<?xml version="1.0" encoding="utf-8"?>
<!-- Generator: Adobe Illustrator 23.0.2, SVG Export Plug-In . SVG Version: 6.00 Build 0)  -->
<svg version="1.1" id="Layer_1" xmlns="http://www.w3.org/2000/svg" xmlns:xlink="http://www.w3.org/1999/xlink" x="0px" y="0px"
	 viewBox="0 0 54 54" style="enable-background:new 0 0 54 54;" xml:space="preserve">
<style type="text/css">
	.st0{fill:#022859;stroke:#CCCCCC;stroke-miterlimit:10;}
	.st1{fill:#2E78A6;stroke:#CCCCCC;stroke-miterlimit:10;}
	.st2{fill:#6AAED9;stroke:#CCCCCC;stroke-miterlimit:10;}
	.st3{fill:#ACD7F2;stroke:#CCCCCC;stroke-miterlimit:10;}
	.st4{fill:#F2F2F2;stroke:#CCCCCC;stroke-miterlimit:10;}
	.st5{fill:#FF931E;stroke:#CCCCCC;stroke-miterlimit:10;}
	.st6{fill:#FF1D25;stroke:#CCCCCC;stroke-miterlimit:10;}
	.st7{fill:#7AC943;stroke:#CCCCCC;stroke-miterlimit:10;}
	.st8{fill:#022859;}
	.st9{fill:#F2F2F2;}
	.st10{fill:none;stroke:#132958;stroke-width:4;stroke-miterlimit:10;}
	.st11{fill:none;stroke:#132958;stroke-width:4.1021;stroke-miterlimit:10;}
	.st12{fill:none;stroke:#132958;stroke-width:2;stroke-miterlimit:10;}
</style>
<g>
	<rect x="-155" y="-214" class="st0" width="26" height="24.1"/>
	<rect x="-117" y="-214" class="st1" width="26" height="24.1"/>
	<rect x="-79" y="-214" class="st2" width="26" height="24.1"/>
	<rect x="-41" y="-214" class="st3" width="26" height="24.1"/>
	<rect x="-3" y="-214" class="st4" width="26" height="24.1"/>
</g>
<rect x="-155" y="-243" class="st5" width="26" height="24.1"/>
<rect x="-117" y="-243" class="st6" width="26" height="24.1"/>
<rect x="-79" y="-243" class="st7" width="26" height="24.1"/>
<path class="st8" d="M172-38.7c-1.6-2.2-3.7-3.7-5.9-4.4c-0.9-0.3-1.9-0.5-2.3-1.6c-0.2-0.5-0.3-1.1-0.5-1.5
	c-0.5-0.9-1.4-0.8-2.1-1.3c-0.9-0.7-1.3-2.5-1.2-4s0.4-3.1,0.4-4.7c0-4.3-2.7-7.4-5.3-9.2c-3.5-2.4-7.5-3.5-10.6-7
	c-1-1.1-1.8-2.4-2.9-3.4c-2.7-2.6-6.1-2.6-9.1-4.4c-2.9-1.7-5.5-6.2-8.6-5.9c-1.4,0.2-5.3,2.4-6.6,3.2c-4.8,3.1-7.2,5.1-12.4,5.9
	c-0.6,0.1-1.2,0.2-1.7,0.8c-0.2,0.3-0.4,0.8-0.6,1.2c-1.2,2.5-3.8,2-5.8,1.7c-2.4-0.4-4.8-0.2-7.1,0.6c-0.5,0.2-1,0.4-1.4,0.8
	c-0.3,0.3-0.6,2.9-0.9,3.4c-3,5-6.1,7.9-9.1,12.9c-0.9,1.4-2.2,3-3.4,2c0.6,1.1,1.7,0.8,2.6,0.5c1.3-0.4,2.6-0.7,3.9-1.1
	c0.6-0.2,1.3-0.3,1.8,0.2c0.3,0.3,0.5,0.8,0.6,1.2c0.7,1.7,0.5,2.1,1.5,3.2c0.6-0.8,0.9-1,0.7-2.1c-0.1-0.8,0.1-1.6,0.4-2.3
	c0.9-2.4,2.1-4.5,3.6-6c1.3-1.3,2.8-2.4,3.4-4.4c0.2-0.5,0.3-1.1,0.6-1.4c0.4-0.4,1,0,1.3,0.7c0.2,0.6,0.3,1.4,0.2,2.1
	c-0.1,2.5-0.4,5-0.9,7.5c-0.2,0.9-0.4,1.7-0.4,2.7c0,0.9,0.3,1.9,0.9,2.2c0.1-3.1,1.9-5.4,2.6-8.4c0.3-1.2,0.3-2.4,0.6-3.6
	c0.2-1.2,0.7-2.4,1.5-2.8c0.7-0.4,1.5,0,2.2-0.4c0.8-0.4,1.4-1.5,1.9-2.6c0.8-1.6,1.7-3.1,2.9-3.9c1.4-1.1,3.1-1.1,4.7-1.2
	c0.2,0,0.5,0,0.6,0.2c0.2,0.2,0.2,0.6,0.2,0.9c0.1,3.5,0.2,4.9,0,8.5c-0.4-1.3-0.1-0.7,0.5-1.9c0.6-1.2,1.3-2.1,1.7-3.4
	c0.4-1.4,0.8-3.4,1.9-3.2c0.7,0.1,1.1,1.4,1.2,2.4c0.5,2.7,1,2.3,1.5,5c-0.3-0.9,0.4-1.1,0.9-1.8c0.5-0.7,1.1-1.2,1.5-1.9
	c1.1-2,0.4-2.9-0.4-5.2c-0.3-0.7-0.6-1.6-0.4-2.4c0.1-0.4,0.3-0.8,0.6-1.1c0.9-1.2,2-2.1,3.1-2.5c0.2-0.1,0.5-0.2,0.7-0.1
	c0.2,0.1,0.4,0.4,0.6,0.6c1.4,1.9,3.4,2.5,4.7,4.6c0.6,1,1,2.4,1.4,3.7c1.5,4.9,1.9,3.6,3.3,8.5c1.1-4.4-0.1-2.8,0.2-7.5
	c0-0.3,0.1-0.7,0.2-1c0.2-0.4,0.6-0.6,0.9-0.6c1.2-0.3,2.4,0.3,3.6,0.9c1.6,0.9,3.3,2.1,4.5,3.9c1.3,1.8,2.1,4.2,2.7,6.7
	c0.9,3.8,1.1,7.9,1.6,11.8c0.1,0.8,0.4,1.9,1,1.8c0-3.9-0.5-7.9-1.5-11.5c-0.6-2.2-0.6-4.6-1-6.8c1-0.6,2.1,0.6,3.2,1
	c0.5,0.2,1,0.2,1.6,0.3c1.9,0.5,3.6,2.7,4.2,5.5c0.2,0.9,0.2,1.8,0.3,2.7c0.2,2.3,0.3,4.6,0.4,6.8c0.1,1.9,0,3.8,0.4,5.6
	c-0.5-2.3,1.6-4.7,0.8-6.8c-0.1-0.3-0.3-0.6-0.4-0.9c-0.1-0.3,0-0.8,0.2-0.9c1,1.8,1.8,3.8,2.3,5.9c0.6,2.3,1.8,4.8,3.5,5
	c0.6,0.1,1.2,0,1.8,0.3c0.2,0.1,0.4,0.3,0.6,0.4c0.2,0.1,0.5,0.2,0.7,0.2c0.8,0.1,1.6,0,2.4,0.1C170.1-39.7,171.4-39.5,172-38.7z"/>
<text transform="matrix(1 0 0 1 105.7207 -17.3408)" style="fill:#FF931E; font-family:'BrandonGrotesque-Black'; font-size:11.5849px;">Beitostølen</text>
<text transform="matrix(1 0 0 1 103.6602 -40.4653)" class="st8" style="font-family:'BrandonGrotesque-Black'; font-size:11.5658px;">&amp;</text>
<text transform="matrix(1 0 0 1 89.1396 -27.667)" class="st8" style="font-family:'BrandonGrotesque-Black'; font-size:23.1698px;">Service</text>
<g>
	
		<text transform="matrix(1 0 0 1 105.8267 -45.1641)" class="st8" style="font-family:'BrandonGrotesque-Black'; font-size:23.1698px;"> Rør</text>
</g>
<rect x="-537.5" y="-274.5" class="st0" width="133" height="110"/>
<path class="st9" d="M-46,53.3c-1.6-2.2-3.7-3.7-5.9-4.4c-0.9-0.3-1.9-0.5-2.3-1.6c-0.2-0.5-0.3-1.1-0.5-1.5
	c-0.5-0.9-1.4-0.8-2.1-1.3c-0.9-0.7-1.3-2.5-1.2-4c0.1-1.6,0.4-3.1,0.4-4.7c0-4.3-2.7-7.4-5.3-9.2c-3.5-2.4-7.5-3.5-10.6-7
	c-1-1.1-1.8-2.4-2.9-3.4c-2.7-2.6-6.1-2.6-9.1-4.4c-2.9-1.7-5.5-6.2-8.6-5.9c-1.4,0.2-5.3,2.4-6.6,3.2c-4.8,3.1-7.2,5.1-12.4,5.9
	c-0.6,0.1-1.2,0.2-1.7,0.8c-0.2,0.3-0.4,0.8-0.6,1.2c-1.2,2.5-3.8,2-5.8,1.7c-2.4-0.4-4.8-0.2-7.1,0.6c-0.5,0.2-1,0.4-1.4,0.8
	c-0.3,0.3-0.6,2.9-0.9,3.4c-3,5-6.1,7.9-9.1,12.9c-0.9,1.4-2.2,3-3.4,2c0.6,1.1,1.7,0.8,2.6,0.5c1.3-0.4,2.6-0.7,3.9-1.1
	c0.6-0.2,1.3-0.3,1.8,0.2c0.3,0.3,0.5,0.8,0.6,1.2c0.7,1.7,0.5,2.1,1.5,3.2c0.6-0.8,0.9-1,0.7-2.1c-0.1-0.8,0.1-1.6,0.4-2.3
	c0.9-2.4,2.1-4.5,3.6-6c1.3-1.3,2.8-2.4,3.4-4.4c0.2-0.5,0.3-1.1,0.6-1.4c0.4-0.4,1,0,1.3,0.7c0.2,0.6,0.3,1.4,0.2,2.1
	c-0.1,2.5-0.4,5-0.9,7.5c-0.2,0.9-0.4,1.7-0.4,2.7c0,0.9,0.3,1.9,0.9,2.2c0.1-3.1,1.9-5.4,2.6-8.4c0.3-1.2,0.3-2.4,0.6-3.6
	c0.2-1.2,0.7-2.4,1.5-2.8c0.7-0.4,1.5,0,2.2-0.4c0.8-0.4,1.4-1.5,1.9-2.6c0.8-1.6,1.7-3.1,2.9-3.9c1.4-1.1,3.1-1.1,4.7-1.2
	c0.2,0,0.5,0,0.6,0.2c0.2,0.2,0.2,0.6,0.2,0.9c0.1,3.5,0.2,4.9,0,8.5c-0.4-1.3-0.1-0.7,0.5-1.9c0.6-1.2,1.3-2.1,1.7-3.4
	c0.4-1.4,0.8-3.4,1.9-3.2c0.7,0.1,1.1,1.4,1.2,2.4c0.5,2.7,1,2.3,1.5,5c-0.3-0.9,0.4-1.1,0.9-1.8c0.5-0.7,1.1-1.2,1.5-1.9
	c1.1-2,0.4-2.9-0.4-5.2c-0.3-0.7-0.6-1.6-0.4-2.4c0.1-0.4,0.3-0.8,0.6-1.1c0.9-1.2,2-2.1,3.1-2.5c0.2-0.1,0.5-0.2,0.7-0.1
	c0.2,0.1,0.4,0.4,0.6,0.6c1.4,1.9,3.4,2.5,4.7,4.6c0.6,1,1,2.4,1.4,3.7c1.5,4.9,1.9,3.6,3.3,8.5c1.1-4.4-0.1-2.8,0.2-7.5
	c0-0.3,0.1-0.7,0.2-1c0.2-0.4,0.6-0.6,0.9-0.6c1.2-0.3,2.4,0.3,3.6,0.9c1.6,0.9,3.3,2.1,4.5,3.9c1.3,1.8,2.1,4.2,2.7,6.7
	c0.9,3.8,1.1,7.9,1.6,11.8c0.1,0.8,0.4,1.9,1,1.8c0-3.9-0.5-7.9-1.5-11.5c-0.6-2.2-0.6-4.6-1-6.8c1-0.6,2.1,0.6,3.2,1
	c0.5,0.2,1,0.2,1.6,0.3c1.9,0.5,3.6,2.7,4.2,5.5c0.2,0.9,0.2,1.8,0.3,2.7c0.2,2.3,0.3,4.6,0.4,6.8c0.1,1.9,0,3.8,0.4,5.6
	c-0.5-2.3,1.6-4.7,0.8-6.8c-0.1-0.3-0.3-0.6-0.4-0.9s0-0.8,0.2-0.9c1,1.8,1.8,3.8,2.3,5.9c0.6,2.3,1.8,4.8,3.5,5
	c0.6,0.1,1.2,0,1.8,0.3c0.2,0.1,0.4,0.3,0.6,0.4c0.2,0.1,0.5,0.2,0.7,0.2c0.8,0.1,1.6,0,2.4,0.1C-47.9,52.3-46.6,52.5-46,53.3z"/>
<text transform="matrix(1 0 0 1 -120.2793 74.6592)" style="fill:#FF931E; font-family:'BrandonGrotesque-Black'; font-size:11.5849px;">Beitostølen</text>
<text transform="matrix(1 0 0 1 -114.3398 51.5347)" class="st9" style="font-family:'BrandonGrotesque-Black'; font-size:11.5658px;">&amp;</text>
<text transform="matrix(1 0 0 1 -128.8604 64.333)" class="st9" style="font-family:'BrandonGrotesque-Black'; font-size:23.1698px;">Service</text>
<g>
	
		<text transform="matrix(1 0 0 1 -112.1733 46.8359)" class="st9" style="font-family:'BrandonGrotesque-Black'; font-size:23.1698px;"> Rør</text>
</g>
<circle class="st10" cx="-190.5" cy="-91.5" r="46.5"/>
<polyline class="st11" points="-187,-109.3 -187,-74 -200,-62 -200,-123 -210,-133 -169,-92 -210,-51 "/>
<circle class="st12" cx="27" cy="27" r="25"/>
<polyline class="st12" points="28.4,17.9 28.4,36.9 21.4,43.4 21.4,10.6 16,5.2 38.1,27.2 16,49.3 "/>
</svg>
