<?xml version="1.0" encoding="utf-8"?>
<!-- Generator: Adobe Illustrator 23.0.2, SVG Export Plug-In . SVG Version: 6.00 Build 0)  -->
<svg version="1.1" id="Layer_1" xmlns="http://www.w3.org/2000/svg" xmlns:xlink="http://www.w3.org/1999/xlink" x="0px" y="0px"
	 viewBox="0 0 54 54" style="enable-background:new 0 0 54 54;" xml:space="preserve">
<style type="text/css">
	.st0{fill:#FFFFFF;stroke:#132958;stroke-width:2;stroke-miterlimit:10;}
	.st1{fill:#022859;stroke:#CCCCCC;stroke-miterlimit:10;}
	.st2{fill:#2E78A6;stroke:#CCCCCC;stroke-miterlimit:10;}
	.st3{fill:#6AAED9;stroke:#CCCCCC;stroke-miterlimit:10;}
	.st4{fill:#ACD7F2;stroke:#CCCCCC;stroke-miterlimit:10;}
	.st5{fill:#F2F2F2;stroke:#CCCCCC;stroke-miterlimit:10;}
	.st6{fill:#FF931E;stroke:#CCCCCC;stroke-miterlimit:10;}
	.st7{fill:#FF1D25;stroke:#CCCCCC;stroke-miterlimit:10;}
	.st8{fill:#7AC943;stroke:#CCCCCC;stroke-miterlimit:10;}
	.st9{fill:#022859;}
	.st10{enable-background:new    ;}
	.st11{fill:#FF931E;}
	.st12{fill:#F2F2F2;}
	.st13{fill:none;stroke:#132958;stroke-width:4;stroke-miterlimit:10;}
	.st14{fill:none;stroke:#132958;stroke-width:4.1021;stroke-miterlimit:10;}
	.st15{fill:#FFFFFF;stroke:#FFFFFF;stroke-width:2;stroke-miterlimit:10;}
</style>
<circle class="st0" cx="118.9" cy="41.8" r="25"/>
<polyline class="st0" points="120.3,32.7 120.3,51.7 113.3,58.2 113.3,25.4 107.9,20 130,42 107.9,64.1 "/>
<g>
	<rect x="-155" y="-214" class="st1" width="26" height="24.1"/>
	<rect x="-117" y="-214" class="st2" width="26" height="24.1"/>
	<rect x="-79" y="-214" class="st3" width="26" height="24.1"/>
	<rect x="-41" y="-214" class="st4" width="26" height="24.1"/>
	<rect x="-3" y="-214" class="st5" width="26" height="24.1"/>
</g>
<rect x="-155" y="-243" class="st6" width="26" height="24.1"/>
<rect x="-117" y="-243" class="st7" width="26" height="24.1"/>
<rect x="-79" y="-243" class="st8" width="26" height="24.1"/>
<path class="st9" d="M172-38.7c-1.6-2.2-3.7-3.7-5.9-4.4c-0.9-0.3-1.9-0.5-2.3-1.6c-0.2-0.5-0.3-1.1-0.5-1.5
	c-0.5-0.9-1.4-0.8-2.1-1.3c-0.9-0.7-1.3-2.5-1.2-4s0.4-3.1,0.4-4.7c0-4.3-2.7-7.4-5.3-9.2c-3.5-2.4-7.5-3.5-10.6-7
	c-1-1.1-1.8-2.4-2.9-3.4c-2.7-2.6-6.1-2.6-9.1-4.4c-2.9-1.7-5.5-6.2-8.6-5.9c-1.4,0.2-5.3,2.4-6.6,3.2c-4.8,3.1-7.2,5.1-12.4,5.9
	c-0.6,0.1-1.2,0.2-1.7,0.8c-0.2,0.3-0.4,0.8-0.6,1.2c-1.2,2.5-3.8,2-5.8,1.7c-2.4-0.4-4.8-0.2-7.1,0.6c-0.5,0.2-1,0.4-1.4,0.8
	c-0.3,0.3-0.6,2.9-0.9,3.4c-3,5-6.1,7.9-9.1,12.9c-0.9,1.4-2.2,3-3.4,2c0.6,1.1,1.7,0.8,2.6,0.5c1.3-0.4,2.6-0.7,3.9-1.1
	c0.6-0.2,1.3-0.3,1.8,0.2c0.3,0.3,0.5,0.8,0.6,1.2c0.7,1.7,0.5,2.1,1.5,3.2c0.6-0.8,0.9-1,0.7-2.1c-0.1-0.8,0.1-1.6,0.4-2.3
	c0.9-2.4,2.1-4.5,3.6-6c1.3-1.3,2.8-2.4,3.4-4.4c0.2-0.5,0.3-1.1,0.6-1.4c0.4-0.4,1,0,1.3,0.7c0.2,0.6,0.3,1.4,0.2,2.1
	c-0.1,2.5-0.4,5-0.9,7.5c-0.2,0.9-0.4,1.7-0.4,2.7c0,0.9,0.3,1.9,0.9,2.2c0.1-3.1,1.9-5.4,2.6-8.4c0.3-1.2,0.3-2.4,0.6-3.6
	c0.2-1.2,0.7-2.4,1.5-2.8c0.7-0.4,1.5,0,2.2-0.4c0.8-0.4,1.4-1.5,1.9-2.6c0.8-1.6,1.7-3.1,2.9-3.9c1.4-1.1,3.1-1.1,4.7-1.2
	c0.2,0,0.5,0,0.6,0.2c0.2,0.2,0.2,0.6,0.2,0.9c0.1,3.5,0.2,4.9,0,8.5c-0.4-1.3-0.1-0.7,0.5-1.9c0.6-1.2,1.3-2.1,1.7-3.4
	c0.4-1.4,0.8-3.4,1.9-3.2c0.7,0.1,1.1,1.4,1.2,2.4c0.5,2.7,1,2.3,1.5,5c-0.3-0.9,0.4-1.1,0.9-1.8c0.5-0.7,1.1-1.2,1.5-1.9
	c1.1-2,0.4-2.9-0.4-5.2c-0.3-0.7-0.6-1.6-0.4-2.4c0.1-0.4,0.3-0.8,0.6-1.1c0.9-1.2,2-2.1,3.1-2.5c0.2-0.1,0.5-0.2,0.7-0.1
	s0.4,0.4,0.6,0.6c1.4,1.9,3.4,2.5,4.7,4.6c0.6,1,1,2.4,1.4,3.7c1.5,4.9,1.9,3.6,3.3,8.5c1.1-4.4-0.1-2.8,0.2-7.5
	c0-0.3,0.1-0.7,0.2-1c0.2-0.4,0.6-0.6,0.9-0.6c1.2-0.3,2.4,0.3,3.6,0.9c1.6,0.9,3.3,2.1,4.5,3.9c1.3,1.8,2.1,4.2,2.7,6.7
	c0.9,3.8,1.1,7.9,1.6,11.8c0.1,0.8,0.4,1.9,1,1.8c0-3.9-0.5-7.9-1.5-11.5c-0.6-2.2-0.6-4.6-1-6.8c1-0.6,2.1,0.6,3.2,1
	c0.5,0.2,1,0.2,1.6,0.3c1.9,0.5,3.6,2.7,4.2,5.5c0.2,0.9,0.2,1.8,0.3,2.7c0.2,2.3,0.3,4.6,0.4,6.8c0.1,1.9,0,3.8,0.4,5.6
	c-0.5-2.3,1.6-4.7,0.8-6.8c-0.1-0.3-0.3-0.6-0.4-0.9c-0.1-0.3,0-0.8,0.2-0.9c1,1.8,1.8,3.8,2.3,5.9c0.6,2.3,1.8,4.8,3.5,5
	c0.6,0.1,1.2,0,1.8,0.3c0.2,0.1,0.4,0.3,0.6,0.4c0.2,0.1,0.5,0.2,0.7,0.2c0.8,0.1,1.6,0,2.4,0.1C170.1-39.7,171.4-39.5,172-38.7z"/>
<g class="st10">
	<path class="st11" d="M106.7-25.2c0-0.1,0.1-0.2,0.2-0.2h2.7c1.4,0,2.5,0.9,2.5,2.2c0,0.9-0.8,1.5-1.3,1.8c0.6,0.3,1.6,0.8,1.6,1.9
		c0,1.3-1.1,2.2-2.5,2.2h-2.9c-0.1,0-0.2-0.1-0.2-0.2V-25.2z M109.4-22.2c0.4,0,0.8-0.4,0.8-0.8c0-0.5-0.4-0.8-0.8-0.8h-0.9v1.6
		H109.4z M109.6-19c0.5,0,0.8-0.4,0.8-0.8c0-0.5-0.5-0.8-1-0.8h-0.9v1.7H109.6z"/>
	<path class="st11" d="M115.3-22.1c1.2,0,2.2,0.9,2.2,2.2c0,0.1,0,0.2,0,0.3c0,0.1-0.1,0.2-0.2,0.2h-2.8c0,0.3,0.3,0.8,0.9,0.8
		c0.3,0,0.6-0.1,0.8-0.3c0.1-0.1,0.2-0.1,0.3,0l0.6,0.7c0.1,0.1,0.1,0.2,0,0.3c-0.4,0.4-1,0.7-1.7,0.7c-1.4,0-2.4-1.1-2.4-2.4
		C112.9-21,114-22.1,115.3-22.1z M115.9-20.3c0-0.3-0.3-0.5-0.6-0.5c-0.3,0-0.6,0.2-0.6,0.5H115.9z"/>
	<path class="st11" d="M118.3-24.3c0-0.5,0.4-0.9,0.9-0.9s0.9,0.4,0.9,0.9c0,0.5-0.4,0.9-0.9,0.9S118.3-23.8,118.3-24.3z
		 M118.4-21.8c0-0.1,0.1-0.2,0.2-0.2h1.3c0.1,0,0.2,0.1,0.2,0.2v4.2c0,0.1-0.1,0.2-0.2,0.2h-1.3c-0.1,0-0.2-0.1-0.2-0.2V-21.8z"/>
	<path class="st11" d="M121.5-20.5h-0.3c-0.1,0-0.2-0.1-0.2-0.2v-1c0-0.1,0.1-0.2,0.2-0.2h0.3v-1.3c0-0.1,0.1-0.2,0.2-0.2h1.2
		c0.1,0,0.2,0.1,0.2,0.2v1.3h0.9c0.1,0,0.2,0.1,0.2,0.2v1c0,0.1-0.1,0.2-0.2,0.2h-0.9v1.4c0,0.3,0.2,0.3,0.3,0.3
		c0.2,0,0.3-0.1,0.5-0.1c0.1,0,0.2,0,0.3,0.2l0.3,1c0,0.1,0,0.2-0.2,0.3c0,0-0.8,0.3-1.4,0.3c-0.9,0-1.4-0.6-1.4-1.6V-20.5z"/>
	<path class="st11" d="M127.4-22.1c1.3,0,2.4,1.1,2.4,2.4c0,1.3-1.1,2.4-2.4,2.4s-2.4-1.1-2.4-2.4C125-21,126.1-22.1,127.4-22.1z
		 M127.4-18.7c0.5,0,0.9-0.4,0.9-1c0-0.5-0.4-0.9-0.9-0.9s-0.9,0.4-0.9,0.9C126.5-19.1,126.9-18.7,127.4-18.7z"/>
	<path class="st11" d="M130.4-17.9l0.4-0.8c0-0.1,0.2-0.1,0.2-0.1c0,0,0.5,0.3,1,0.3c0.1,0,0.2-0.1,0.2-0.2c0-0.1-0.1-0.3-0.7-0.5
		c-0.9-0.3-1.3-0.8-1.3-1.6c0-0.8,0.6-1.4,1.8-1.4c0.7,0,1.3,0.2,1.5,0.4c0.1,0.1,0.2,0.2,0.1,0.3l-0.4,0.8c0,0.1-0.2,0.1-0.2,0.1
		c0,0-0.5-0.3-1-0.3c-0.2,0-0.3,0-0.3,0.2c0,0.1,0.1,0.2,0.5,0.4c0.9,0.3,1.6,0.7,1.6,1.6c0,0.8-0.6,1.5-2,1.5
		c-0.8,0-1.3-0.2-1.6-0.4C130.4-17.7,130.4-17.7,130.4-17.9z"/>
	<path class="st11" d="M135.2-20.5h-0.3c-0.1,0-0.2-0.1-0.2-0.2v-1c0-0.1,0.1-0.2,0.2-0.2h0.3v-1.3c0-0.1,0.1-0.2,0.2-0.2h1.2
		c0.1,0,0.2,0.1,0.2,0.2v1.3h0.9c0.1,0,0.2,0.1,0.2,0.2v1c0,0.1-0.1,0.2-0.2,0.2h-0.9v1.4c0,0.3,0.2,0.3,0.3,0.3
		c0.2,0,0.3-0.1,0.5-0.1c0.1,0,0.2,0,0.3,0.2l0.3,1c0,0.1,0,0.2-0.2,0.3c0,0-0.8,0.3-1.4,0.3c-0.9,0-1.4-0.6-1.4-1.6V-20.5z"/>
	<path class="st11" d="M138.8-17.9l0.3-0.3c-0.3-0.4-0.5-0.9-0.5-1.5c0-1.3,1.1-2.4,2.4-2.4c0.5,0,1.1,0.2,1.5,0.5l0.3-0.3
		c0.1-0.1,0.2-0.1,0.3,0l0.1,0.1c0.1,0.1,0.1,0.2,0,0.3l-0.3,0.3c0.3,0.4,0.5,0.9,0.5,1.5c0,1.3-1.1,2.5-2.4,2.5
		c-0.5,0-1.1-0.2-1.5-0.5l-0.3,0.3c-0.1,0.1-0.2,0.1-0.3,0l-0.1-0.1C138.8-17.7,138.8-17.8,138.8-17.9z M141.4-20.5
		c-0.1-0.1-0.3-0.1-0.4-0.1c-0.5,0-0.9,0.4-0.9,0.9c0,0.2,0,0.3,0.1,0.4L141.4-20.5z M141-18.7c0.5,0,0.9-0.4,0.9-1
		c0-0.1,0-0.3-0.1-0.4l-1.2,1.3C140.8-18.7,140.9-18.7,141-18.7z"/>
	<path class="st11" d="M144.4-25.2c0-0.1,0.1-0.2,0.2-0.2h1.3c0.1,0,0.2,0.1,0.2,0.2v7.7c0,0.1-0.1,0.2-0.2,0.2h-1.3
		c-0.1,0-0.2-0.1-0.2-0.2V-25.2z"/>
	<path class="st11" d="M149.4-22.1c1.2,0,2.2,0.9,2.2,2.2c0,0.1,0,0.2,0,0.3c0,0.1-0.1,0.2-0.2,0.2h-2.8c0,0.3,0.3,0.8,0.9,0.8
		c0.3,0,0.6-0.1,0.8-0.3c0.1-0.1,0.2-0.1,0.3,0l0.6,0.7c0.1,0.1,0.1,0.2,0,0.3c-0.4,0.4-1,0.7-1.7,0.7c-1.4,0-2.4-1.1-2.4-2.4
		C147-21,148-22.1,149.4-22.1z M150-20.3c0-0.3-0.3-0.5-0.6-0.5c-0.3,0-0.6,0.2-0.6,0.5H150z"/>
	<path class="st11" d="M152.4-21.8c0-0.1,0.1-0.2,0.2-0.2h0.5c0.1,0,0.2,0.1,0.2,0.1l0.2,0.5c0.3-0.3,0.8-0.7,1.6-0.7
		c1.4,0,2.2,1.1,2.2,2.4v2.1c0,0.1-0.1,0.2-0.2,0.2H156c-0.1,0-0.2-0.1-0.2-0.2v-2.2c0-0.5-0.3-0.9-0.8-0.9c-0.5,0-0.9,0.3-0.9,0.8
		v2.2c0,0.1,0,0.2-0.2,0.2h-1.2c-0.1,0-0.2-0.1-0.2-0.2V-21.8z"/>
</g>
<g class="st10">
	<path class="st9" d="M106.1-44.9L106.1-44.9l-0.2-0.3c-0.5-0.5-0.8-1-0.8-1.7c0-0.9,0.8-1.9,2.2-1.9c1.3,0,2.3,0.9,2.3,1.9
		c0,1.3-1.3,2-1.3,2l1,1.1c0.2-0.2,0.3-0.6,0.4-0.9c0.1-0.2,0.1-0.4,0.5-0.3l0.8,0.3c0.3,0.1,0.2,0.4,0.2,0.5
		c-0.3,0.8-0.7,1.4-0.7,1.4l1,0.9c0.2,0.1,0.3,0.2,0,0.5l-0.6,0.7c-0.1,0.1-0.3,0.2-0.5,0l-0.8-0.8c0,0-0.8,0.9-2.5,0.9
		c-1.5,0-2.5-1-2.5-2.2C104.5-44.2,106.1-44.9,106.1-44.9z M107.2-41.8c0.9,0,1.2-0.6,1.2-0.6l-1.5-1.6c0,0-0.8,0.3-0.8,1.2
		C106.1-42.2,106.6-41.8,107.2-41.8z M108.1-46.6c0-0.4-0.4-0.7-0.9-0.7c-0.4,0-0.7,0.3-0.7,0.6c0,0.3,0.2,0.6,0.5,0.9l0.3,0.3
		C107.4-45.7,108.1-46,108.1-46.6z"/>
</g>
<g class="st10">
	<path class="st9" d="M90.2-29.9l1.1-1.9c0.2-0.3,0.6-0.3,0.8-0.1c0.1,0,1.8,1.3,3.3,1.3c0.9,0,1.6-0.6,1.6-1.4c0-1-0.8-1.7-2.4-2.3
		c-2-0.8-4.5-2.3-4.5-5.1c0-2.3,1.8-4.6,5.4-4.6c2.4,0,4.3,1.2,5,1.7c0.3,0.2,0.2,0.6,0.1,0.7l-1.2,1.8c-0.2,0.3-0.6,0.5-0.8,0.3
		c-0.2-0.1-1.9-1.4-3.3-1.4c-0.8,0-1.5,0.6-1.5,1.2c0,0.9,0.7,1.5,2.5,2.2c1.8,0.7,4.7,2.1,4.7,5.3c0,2.4-2.1,4.8-5.5,4.8
		c-3,0-4.7-1.3-5.2-1.8C90.1-29.5,90-29.5,90.2-29.9z"/>
	<path class="st9" d="M107-37.2c2.4,0,4.4,1.8,4.4,4.4c0,0.2,0,0.5,0,0.6c0,0.2-0.2,0.4-0.4,0.4h-5.6c0.1,0.6,0.6,1.5,1.8,1.5
		c0.6,0,1.3-0.3,1.6-0.6c0.2-0.2,0.4-0.2,0.6,0l1.2,1.4c0.1,0.2,0.2,0.5,0,0.7c-0.8,0.8-2,1.3-3.4,1.3c-2.8,0-4.8-2.2-4.8-4.9
		C102.2-34.9,104.2-37.2,107-37.2z M108.1-33.6c0-0.6-0.6-1.1-1.2-1.1c-0.6,0-1.2,0.5-1.3,1.1H108.1z"/>
	<path class="st9" d="M113.1-36.5c0-0.3,0.2-0.4,0.4-0.4h1.1c0.3,0,0.3,0.1,0.4,0.3l0.4,1c0.5-0.7,1.3-1.5,2.5-1.5
		c1.3,0,2.2,0.5,1.9,1l-1.1,1.9c-0.1,0.2-0.3,0.3-0.5,0.2c-0.1,0-0.3-0.1-0.6-0.1c-0.7,0-1.2,0.5-1.2,1.3v4.8c0,0.3-0.1,0.4-0.5,0.4
		h-2.4c-0.2,0-0.4-0.2-0.4-0.4V-36.5z"/>
	<path class="st9" d="M120.4-36.3c-0.2-0.3,0-0.6,0.4-0.6h2.6c0.2,0,0.3,0.1,0.4,0.3l1.4,3.2c0,0,0,0,0.1,0l1.5-3.2
		c0.1-0.3,0.3-0.3,0.6-0.3h2.3c0.3,0,0.6,0.3,0.4,0.6l-4.4,8.6c-0.1,0.1-0.3,0.2-0.4,0.2h-0.1c-0.1,0-0.3-0.1-0.4-0.2L120.4-36.3z"
		/>
	<path class="st9" d="M131.3-41.6c0-1,0.8-1.9,1.8-1.9s1.9,0.8,1.9,1.9c0,1-0.8,1.8-1.9,1.8S131.3-40.5,131.3-41.6z M131.5-36.5
		c0-0.3,0.2-0.4,0.4-0.4h2.5c0.2,0,0.4,0.2,0.4,0.4v8.4c0,0.2-0.2,0.4-0.4,0.4h-2.5c-0.2,0-0.4-0.2-0.4-0.4V-36.5z"/>
	<path class="st9" d="M141.7-37.2c1.5,0,2.6,0.6,3.5,1.7c0.2,0.2,0.1,0.5-0.1,0.6l-1.4,1.3c-0.1,0.1-0.4,0.1-0.5,0
		c-0.3-0.3-0.8-0.6-1.3-0.6c-1,0-1.9,0.9-1.9,1.9c0,1,0.8,1.9,1.8,1.9c0.8,0,1.2-0.3,1.6-0.7c0.2-0.2,0.4-0.2,0.5-0.1l1.4,1.2
		c0.2,0.2,0.3,0.4,0.2,0.6c-0.9,1.3-2.1,1.9-3.7,1.9c-2.6,0-5-2.1-5-4.9C136.7-35,139-37.2,141.7-37.2z"/>
	<path class="st9" d="M151.2-37.2c2.4,0,4.4,1.8,4.4,4.4c0,0.2,0,0.5,0,0.6c0,0.2-0.2,0.4-0.4,0.4h-5.6c0.1,0.6,0.6,1.5,1.8,1.5
		c0.6,0,1.3-0.3,1.6-0.6c0.2-0.2,0.4-0.2,0.6,0l1.2,1.4c0.1,0.2,0.2,0.5,0,0.7c-0.8,0.8-2,1.3-3.4,1.3c-2.8,0-4.8-2.2-4.8-4.9
		C146.4-34.9,148.5-37.2,151.2-37.2z M152.4-33.6c0-0.6-0.6-1.1-1.2-1.1c-0.6,0-1.2,0.5-1.3,1.1H152.4z"/>
</g>
<g>
	<g class="st10">
		<path class="st9" d="M112.9-60.9c0-0.2,0.2-0.4,0.4-0.4h6.9c2.8,0,5,2.2,5,5c0,2.1-1.4,3.8-3.4,4.7l3.2,5.9c0.2,0.3,0,0.7-0.4,0.7
			h-3.1c-0.2,0-0.3-0.1-0.4-0.2l-3.1-6.1h-1.6v5.9c0,0.2-0.2,0.4-0.4,0.4h-2.8c-0.3,0-0.4-0.2-0.4-0.4V-60.9z M120-54.5
			c0.9,0,1.8-0.9,1.8-1.9s-0.8-1.8-1.8-1.8h-3.4v3.6H120z"/>
		<path class="st9" d="M126.6-46.3l0.6-0.6c-0.6-0.8-1-1.9-1-3c0-2.6,2.2-4.8,4.8-4.8c1.1,0,2.1,0.4,2.9,1l0.6-0.6
			c0.2-0.2,0.4-0.2,0.6,0l0.3,0.3c0.2,0.2,0.2,0.4,0,0.6l-0.6,0.6c0.6,0.8,1,1.8,1,2.9c0,2.7-2.2,4.9-4.8,4.9c-1.1,0-2.1-0.4-2.9-1
			l-0.6,0.6c-0.2,0.2-0.4,0.1-0.6,0l-0.3-0.3C126.5-45.8,126.5-46.1,126.6-46.3z M131.8-51.5c-0.2-0.1-0.5-0.2-0.8-0.2
			c-1,0-1.8,0.8-1.8,1.8c0,0.3,0,0.6,0.2,0.8L131.8-51.5z M131-47.9c1,0,1.8-0.9,1.8-1.9c0-0.3-0.1-0.5-0.2-0.8l-2.5,2.5
			C130.5-48,130.8-47.9,131-47.9z"/>
		<path class="st9" d="M137.7-54c0-0.3,0.2-0.4,0.4-0.4h1.1c0.3,0,0.3,0.1,0.4,0.3l0.4,1c0.5-0.7,1.3-1.5,2.5-1.5
			c1.3,0,2.2,0.5,1.9,1l-1.1,1.9c-0.1,0.2-0.3,0.3-0.5,0.2c-0.1,0-0.3-0.1-0.6-0.1c-0.7,0-1.2,0.5-1.2,1.3v4.8
			c0,0.3-0.1,0.4-0.5,0.4h-2.4c-0.2,0-0.4-0.2-0.4-0.4V-54z"/>
	</g>
</g>
<rect x="-537.5" y="-274.5" class="st1" width="133" height="110"/>
<path class="st12" d="M-46,53.3c-1.6-2.2-3.7-3.7-5.9-4.4c-0.9-0.3-1.9-0.5-2.3-1.6c-0.2-0.5-0.3-1.1-0.5-1.5
	c-0.5-0.9-1.4-0.8-2.1-1.3c-0.9-0.7-1.3-2.5-1.2-4c0.1-1.6,0.4-3.1,0.4-4.7c0-4.3-2.7-7.4-5.3-9.2c-3.5-2.4-7.5-3.5-10.6-7
	c-1-1.1-1.8-2.4-2.9-3.4c-2.7-2.6-6.1-2.6-9.1-4.4c-2.9-1.7-5.5-6.2-8.6-5.9c-1.4,0.2-5.3,2.4-6.6,3.2c-4.8,3.1-7.2,5.1-12.4,5.9
	c-0.6,0.1-1.2,0.2-1.7,0.8c-0.2,0.3-0.4,0.8-0.6,1.2c-1.2,2.5-3.8,2-5.8,1.7c-2.4-0.4-4.8-0.2-7.1,0.6c-0.5,0.2-1,0.4-1.4,0.8
	c-0.3,0.3-0.6,2.9-0.9,3.4c-3,5-6.1,7.9-9.1,12.9c-0.9,1.4-2.2,3-3.4,2c0.6,1.1,1.7,0.8,2.6,0.5c1.3-0.4,2.6-0.7,3.9-1.1
	c0.6-0.2,1.3-0.3,1.8,0.2c0.3,0.3,0.5,0.8,0.6,1.2c0.7,1.7,0.5,2.1,1.5,3.2c0.6-0.8,0.9-1,0.7-2.1c-0.1-0.8,0.1-1.6,0.4-2.3
	c0.9-2.4,2.1-4.5,3.6-6c1.3-1.3,2.8-2.4,3.4-4.4c0.2-0.5,0.3-1.1,0.6-1.4c0.4-0.4,1,0,1.3,0.7c0.2,0.6,0.3,1.4,0.2,2.1
	c-0.1,2.5-0.4,5-0.9,7.5c-0.2,0.9-0.4,1.7-0.4,2.7c0,0.9,0.3,1.9,0.9,2.2c0.1-3.1,1.9-5.4,2.6-8.4c0.3-1.2,0.3-2.4,0.6-3.6
	c0.2-1.2,0.7-2.4,1.5-2.8c0.7-0.4,1.5,0,2.2-0.4c0.8-0.4,1.4-1.5,1.9-2.6c0.8-1.6,1.7-3.1,2.9-3.9c1.4-1.1,3.1-1.1,4.7-1.2
	c0.2,0,0.5,0,0.6,0.2c0.2,0.2,0.2,0.6,0.2,0.9c0.1,3.5,0.2,4.9,0,8.5c-0.4-1.3-0.1-0.7,0.5-1.9c0.6-1.2,1.3-2.1,1.7-3.4
	c0.4-1.4,0.8-3.4,1.9-3.2c0.7,0.1,1.1,1.4,1.2,2.4c0.5,2.7,1,2.3,1.5,5c-0.3-0.9,0.4-1.1,0.9-1.8c0.5-0.7,1.1-1.2,1.5-1.9
	c1.1-2,0.4-2.9-0.4-5.2c-0.3-0.7-0.6-1.6-0.4-2.4c0.1-0.4,0.3-0.8,0.6-1.1c0.9-1.2,2-2.1,3.1-2.5c0.2-0.1,0.5-0.2,0.7-0.1
	c0.2,0.1,0.4,0.4,0.6,0.6c1.4,1.9,3.4,2.5,4.7,4.6c0.6,1,1,2.4,1.4,3.7c1.5,4.9,1.9,3.6,3.3,8.5c1.1-4.4-0.1-2.8,0.2-7.5
	c0-0.3,0.1-0.7,0.2-1c0.2-0.4,0.6-0.6,0.9-0.6c1.2-0.3,2.4,0.3,3.6,0.9c1.6,0.9,3.3,2.1,4.5,3.9c1.3,1.8,2.1,4.2,2.7,6.7
	c0.9,3.8,1.1,7.9,1.6,11.8c0.1,0.8,0.4,1.9,1,1.8c0-3.9-0.5-7.9-1.5-11.5c-0.6-2.2-0.6-4.6-1-6.8c1-0.6,2.1,0.6,3.2,1
	c0.5,0.2,1,0.2,1.6,0.3c1.9,0.5,3.6,2.7,4.2,5.5c0.2,0.9,0.2,1.8,0.3,2.7c0.2,2.3,0.3,4.6,0.4,6.8c0.1,1.9,0,3.8,0.4,5.6
	c-0.5-2.3,1.6-4.7,0.8-6.8c-0.1-0.3-0.3-0.6-0.4-0.9s0-0.8,0.2-0.9c1,1.8,1.8,3.8,2.3,5.9c0.6,2.3,1.8,4.8,3.5,5
	c0.6,0.1,1.2,0,1.8,0.3c0.2,0.1,0.4,0.3,0.6,0.4c0.2,0.1,0.5,0.2,0.7,0.2c0.8,0.1,1.6,0,2.4,0.1C-47.9,52.3-46.6,52.5-46,53.3z"/>
<g class="st10">
	<path class="st11" d="M-119.3,66.8c0-0.1,0.1-0.2,0.2-0.2h2.7c1.4,0,2.5,0.9,2.5,2.2c0,0.9-0.8,1.5-1.3,1.8
		c0.6,0.3,1.6,0.8,1.6,1.9c0,1.3-1.1,2.2-2.5,2.2h-2.9c-0.1,0-0.2-0.1-0.2-0.2V66.8z M-116.6,69.8c0.4,0,0.8-0.4,0.8-0.8
		c0-0.5-0.4-0.8-0.8-0.8h-0.9v1.6H-116.6z M-116.4,73c0.5,0,0.8-0.4,0.8-0.8c0-0.5-0.5-0.8-0.9-0.8h-0.9V73H-116.4z"/>
	<path class="st11" d="M-110.7,69.9c1.2,0,2.2,0.9,2.2,2.2c0,0.1,0,0.2,0,0.3c0,0.1-0.1,0.2-0.2,0.2h-2.8c0,0.3,0.3,0.8,0.9,0.8
		c0.3,0,0.6-0.1,0.8-0.3c0.1-0.1,0.2-0.1,0.3,0l0.6,0.7c0.1,0.1,0.1,0.2,0,0.3c-0.4,0.4-1,0.7-1.7,0.7c-1.4,0-2.4-1.1-2.4-2.4
		C-113.1,71-112,69.9-110.7,69.9z M-110.1,71.7c0-0.3-0.3-0.5-0.6-0.5c-0.3,0-0.6,0.2-0.6,0.5H-110.1z"/>
	<path class="st11" d="M-107.7,67.7c0-0.5,0.4-0.9,0.9-0.9c0.5,0,0.9,0.4,0.9,0.9c0,0.5-0.4,0.9-0.9,0.9
		C-107.3,68.6-107.7,68.2-107.7,67.7z M-107.6,70.2c0-0.1,0.1-0.2,0.2-0.2h1.3c0.1,0,0.2,0.1,0.2,0.2v4.2c0,0.1-0.1,0.2-0.2,0.2
		h-1.3c-0.1,0-0.2-0.1-0.2-0.2V70.2z"/>
	<path class="st11" d="M-104.5,71.5h-0.3c-0.1,0-0.2-0.1-0.2-0.2v-1c0-0.1,0.1-0.2,0.2-0.2h0.3v-1.3c0-0.1,0.1-0.2,0.2-0.2h1.2
		c0.1,0,0.2,0.1,0.2,0.2V70h0.9c0.1,0,0.2,0.1,0.2,0.2v1c0,0.1-0.1,0.2-0.2,0.2h-0.9v1.4c0,0.3,0.2,0.3,0.3,0.3
		c0.2,0,0.3-0.1,0.5-0.1c0.1,0,0.2,0,0.3,0.2l0.3,1c0,0.1,0,0.2-0.2,0.3c0,0-0.8,0.3-1.4,0.3c-0.9,0-1.4-0.6-1.4-1.6V71.5z"/>
	<path class="st11" d="M-98.6,69.9c1.3,0,2.4,1.1,2.4,2.4c0,1.3-1.1,2.4-2.4,2.4s-2.4-1.1-2.4-2.4C-101,71-99.9,69.9-98.6,69.9z
		 M-98.6,73.3c0.5,0,0.9-0.4,0.9-1c0-0.5-0.4-0.9-0.9-0.9s-0.9,0.4-0.9,0.9C-99.5,72.9-99.1,73.3-98.6,73.3z"/>
	<path class="st11" d="M-95.6,74.1l0.4-0.8c0-0.1,0.2-0.1,0.2-0.1c0,0,0.5,0.3,1,0.3c0.1,0,0.2-0.1,0.2-0.2c0-0.1-0.1-0.3-0.7-0.5
		c-0.9-0.3-1.3-0.8-1.3-1.6c0-0.8,0.6-1.4,1.8-1.4c0.7,0,1.3,0.2,1.5,0.4c0.1,0.1,0.2,0.2,0.1,0.3l-0.4,0.8c0,0.1-0.2,0.1-0.2,0.1
		c0,0-0.5-0.3-1-0.3c-0.2,0-0.3,0-0.3,0.2c0,0.1,0.1,0.2,0.5,0.4c0.9,0.3,1.6,0.7,1.6,1.6c0,0.8-0.6,1.5-2,1.5
		c-0.8,0-1.3-0.2-1.6-0.4C-95.6,74.3-95.6,74.3-95.6,74.1z"/>
	<path class="st11" d="M-90.8,71.5h-0.3c-0.1,0-0.2-0.1-0.2-0.2v-1c0-0.1,0.1-0.2,0.2-0.2h0.3v-1.3c0-0.1,0.1-0.2,0.2-0.2h1.2
		c0.1,0,0.2,0.1,0.2,0.2V70h0.9c0.1,0,0.2,0.1,0.2,0.2v1c0,0.1-0.1,0.2-0.2,0.2h-0.9v1.4c0,0.3,0.2,0.3,0.3,0.3
		c0.2,0,0.3-0.1,0.5-0.1c0.1,0,0.2,0,0.3,0.2l0.3,1c0,0.1,0,0.2-0.2,0.3c0,0-0.8,0.3-1.4,0.3c-0.9,0-1.4-0.6-1.4-1.6V71.5z"/>
	<path class="st11" d="M-87.2,74.1l0.3-0.3c-0.3-0.4-0.5-0.9-0.5-1.5c0-1.3,1.1-2.4,2.4-2.4c0.5,0,1.1,0.2,1.5,0.5l0.3-0.3
		c0.1-0.1,0.2-0.1,0.3,0l0.1,0.1c0.1,0.1,0.1,0.2,0,0.3l-0.3,0.3c0.3,0.4,0.5,0.9,0.5,1.5c0,1.3-1.1,2.5-2.4,2.5
		c-0.5,0-1.1-0.2-1.5-0.5l-0.3,0.3c-0.1,0.1-0.2,0.1-0.3,0l-0.1-0.1C-87.2,74.3-87.2,74.2-87.2,74.1z M-84.6,71.5
		c-0.1-0.1-0.3-0.1-0.4-0.1c-0.5,0-0.9,0.4-0.9,0.9c0,0.2,0,0.3,0.1,0.4L-84.6,71.5z M-85,73.3c0.5,0,0.9-0.4,0.9-1
		c0-0.1,0-0.3-0.1-0.4l-1.2,1.3C-85.2,73.3-85.1,73.3-85,73.3z"/>
	<path class="st11" d="M-81.6,66.8c0-0.1,0.1-0.2,0.2-0.2h1.3c0.1,0,0.2,0.1,0.2,0.2v7.7c0,0.1-0.1,0.2-0.2,0.2h-1.3
		c-0.1,0-0.2-0.1-0.2-0.2V66.8z"/>
	<path class="st11" d="M-76.6,69.9c1.2,0,2.2,0.9,2.2,2.2c0,0.1,0,0.2,0,0.3c0,0.1-0.1,0.2-0.2,0.2h-2.8c0,0.3,0.3,0.8,0.9,0.8
		c0.3,0,0.6-0.1,0.8-0.3c0.1-0.1,0.2-0.1,0.3,0l0.6,0.7c0.1,0.1,0.1,0.2,0,0.3c-0.4,0.4-1,0.7-1.7,0.7c-1.4,0-2.4-1.1-2.4-2.4
		C-79,71-78,69.9-76.6,69.9z M-76,71.7c0-0.3-0.3-0.5-0.6-0.5c-0.3,0-0.6,0.2-0.6,0.5H-76z"/>
	<path class="st11" d="M-73.6,70.2c0-0.1,0.1-0.2,0.2-0.2h0.5c0.1,0,0.2,0.1,0.2,0.1l0.2,0.5c0.3-0.3,0.8-0.7,1.6-0.7
		c1.4,0,2.2,1.1,2.2,2.4v2.1c0,0.1-0.1,0.2-0.2,0.2H-70c-0.1,0-0.2-0.1-0.2-0.2v-2.2c0-0.5-0.3-0.9-0.8-0.9c-0.5,0-0.9,0.3-0.9,0.8
		v2.2c0,0.1,0,0.2-0.2,0.2h-1.2c-0.1,0-0.2-0.1-0.2-0.2V70.2z"/>
</g>
<g class="st10">
	<path class="st12" d="M-111.9,47.1L-111.9,47.1l-0.2-0.3c-0.5-0.5-0.8-1-0.8-1.7c0-0.9,0.8-1.9,2.2-1.9c1.3,0,2.3,0.9,2.3,1.9
		c0,1.3-1.3,2-1.3,2l1,1.1c0.2-0.2,0.3-0.6,0.4-0.9c0.1-0.2,0.1-0.4,0.5-0.3l0.8,0.3c0.3,0.1,0.2,0.4,0.2,0.5
		c-0.3,0.8-0.7,1.4-0.7,1.4l1,0.9c0.2,0.1,0.3,0.2,0,0.5l-0.6,0.7c-0.1,0.1-0.3,0.2-0.5,0l-0.8-0.8c0,0-0.8,0.9-2.5,0.9
		c-1.5,0-2.5-1-2.5-2.2C-113.5,47.8-111.9,47.1-111.9,47.1z M-110.8,50.2c0.9,0,1.2-0.6,1.2-0.6l-1.5-1.6c0,0-0.8,0.3-0.8,1.2
		C-111.9,49.8-111.4,50.2-110.8,50.2z M-109.9,45.4c0-0.4-0.4-0.7-0.9-0.7c-0.4,0-0.7,0.3-0.7,0.6c0,0.3,0.2,0.6,0.5,0.9l0.3,0.3
		C-110.6,46.3-109.9,46-109.9,45.4z"/>
</g>
<g class="st10">
	<path class="st12" d="M-127.8,62.1l1.1-1.9c0.2-0.3,0.6-0.3,0.8-0.1c0.1,0,1.8,1.3,3.3,1.3c0.9,0,1.6-0.6,1.6-1.4
		c0-1-0.8-1.7-2.4-2.3c-2-0.8-4.5-2.3-4.5-5.1c0-2.3,1.8-4.6,5.4-4.6c2.4,0,4.3,1.2,5,1.7c0.3,0.2,0.2,0.6,0.1,0.7l-1.2,1.8
		c-0.2,0.3-0.6,0.5-0.8,0.3c-0.2-0.1-1.9-1.4-3.3-1.4c-0.8,0-1.5,0.6-1.5,1.2c0,0.9,0.7,1.5,2.5,2.2c1.8,0.7,4.7,2.1,4.7,5.3
		c0,2.4-2.1,4.8-5.5,4.8c-3,0-4.7-1.3-5.2-1.8C-127.9,62.5-128,62.5-127.8,62.1z"/>
	<path class="st12" d="M-111,54.8c2.4,0,4.4,1.8,4.4,4.4c0,0.2,0,0.5,0,0.6c0,0.2-0.2,0.4-0.4,0.4h-5.6c0.1,0.6,0.6,1.5,1.8,1.5
		c0.6,0,1.3-0.3,1.6-0.6c0.2-0.2,0.4-0.2,0.6,0l1.2,1.4c0.1,0.2,0.2,0.5,0,0.7c-0.8,0.8-2,1.3-3.4,1.3c-2.8,0-4.8-2.2-4.8-4.9
		C-115.8,57.1-113.8,54.8-111,54.8z M-109.9,58.4c0-0.6-0.6-1.1-1.2-1.1c-0.6,0-1.2,0.5-1.3,1.1H-109.9z"/>
	<path class="st12" d="M-104.9,55.5c0-0.3,0.2-0.4,0.4-0.4h1.1c0.3,0,0.3,0.1,0.4,0.3l0.4,1c0.5-0.7,1.3-1.5,2.5-1.5
		c1.3,0,2.2,0.5,1.9,1l-1.1,1.9c-0.1,0.2-0.3,0.3-0.5,0.2c-0.1,0-0.3-0.1-0.6-0.1c-0.7,0-1.2,0.5-1.2,1.3v4.8c0,0.3-0.1,0.4-0.5,0.4
		h-2.4c-0.2,0-0.4-0.2-0.4-0.4V55.5z"/>
	<path class="st12" d="M-97.6,55.7c-0.2-0.3,0-0.6,0.4-0.6h2.6c0.2,0,0.3,0.1,0.4,0.3l1.4,3.2c0,0,0,0,0.1,0l1.5-3.2
		c0.1-0.3,0.3-0.3,0.6-0.3h2.3c0.3,0,0.6,0.3,0.4,0.6l-4.4,8.6c-0.1,0.1-0.3,0.2-0.4,0.2h-0.1c-0.1,0-0.3-0.1-0.4-0.2L-97.6,55.7z"
		/>
	<path class="st12" d="M-86.7,50.4c0-1,0.8-1.9,1.8-1.9c1,0,1.9,0.8,1.9,1.9c0,1-0.8,1.8-1.9,1.8C-85.9,52.3-86.7,51.5-86.7,50.4z
		 M-86.5,55.5c0-0.3,0.2-0.4,0.4-0.4h2.5c0.2,0,0.4,0.2,0.4,0.4v8.4c0,0.2-0.2,0.4-0.4,0.4h-2.5c-0.2,0-0.4-0.2-0.4-0.4V55.5z"/>
	<path class="st12" d="M-76.3,54.8c1.5,0,2.6,0.6,3.5,1.7c0.2,0.2,0.1,0.5-0.1,0.6l-1.4,1.3c-0.1,0.1-0.4,0.1-0.5,0
		c-0.3-0.3-0.8-0.6-1.3-0.6c-1,0-1.9,0.9-1.9,1.9c0,1,0.8,1.9,1.8,1.9c0.8,0,1.2-0.3,1.6-0.7c0.2-0.2,0.4-0.2,0.5-0.1l1.4,1.2
		c0.2,0.2,0.3,0.4,0.2,0.6c-0.9,1.3-2.1,1.9-3.7,1.9c-2.6,0-5-2.1-5-4.9C-81.3,57-79,54.8-76.3,54.8z"/>
	<path class="st12" d="M-66.8,54.8c2.4,0,4.4,1.8,4.4,4.4c0,0.2,0,0.5,0,0.6c0,0.2-0.2,0.4-0.4,0.4h-5.6c0.1,0.6,0.6,1.5,1.8,1.5
		c0.6,0,1.3-0.3,1.6-0.6c0.2-0.2,0.4-0.2,0.6,0l1.2,1.4c0.1,0.2,0.2,0.5,0,0.7c-0.8,0.8-2,1.3-3.4,1.3c-2.8,0-4.8-2.2-4.8-4.9
		C-71.6,57.1-69.5,54.8-66.8,54.8z M-65.6,58.4c0-0.6-0.6-1.1-1.2-1.1c-0.6,0-1.2,0.5-1.3,1.1H-65.6z"/>
</g>
<g>
	<g class="st10">
		<path class="st12" d="M-105.1,31.1c0-0.2,0.2-0.4,0.4-0.4h6.9c2.8,0,5,2.2,5,5c0,2.1-1.4,3.8-3.4,4.7l3.2,5.9
			c0.2,0.3,0,0.7-0.4,0.7h-3.1c-0.2,0-0.3-0.1-0.4-0.2l-3.1-6.1h-1.6v5.9c0,0.2-0.2,0.4-0.4,0.4h-2.8c-0.3,0-0.4-0.2-0.4-0.4V31.1z
			 M-98,37.5c0.9,0,1.8-0.9,1.8-1.9s-0.8-1.8-1.8-1.8h-3.4v3.6H-98z"/>
		<path class="st12" d="M-91.4,45.7l0.6-0.6c-0.6-0.8-1-1.9-1-3c0-2.6,2.2-4.8,4.8-4.8c1.1,0,2.1,0.4,2.9,1l0.6-0.6
			c0.2-0.2,0.4-0.2,0.6,0l0.3,0.3c0.2,0.2,0.2,0.4,0,0.6l-0.6,0.6c0.6,0.8,1,1.8,1,2.9c0,2.7-2.2,4.9-4.8,4.9c-1.1,0-2.1-0.4-2.9-1
			l-0.6,0.6c-0.2,0.2-0.4,0.1-0.6,0l-0.3-0.3C-91.5,46.2-91.5,45.9-91.4,45.7z M-86.2,40.5c-0.2-0.1-0.5-0.2-0.8-0.2
			c-1,0-1.8,0.8-1.8,1.8c0,0.3,0,0.6,0.2,0.8L-86.2,40.5z M-87,44.1c1,0,1.8-0.9,1.8-1.9c0-0.3-0.1-0.5-0.2-0.8l-2.5,2.5
			C-87.5,44-87.2,44.1-87,44.1z"/>
		<path class="st12" d="M-80.3,38c0-0.3,0.2-0.4,0.4-0.4h1.1c0.3,0,0.3,0.1,0.4,0.3l0.4,1c0.5-0.7,1.3-1.5,2.5-1.5
			c1.3,0,2.2,0.5,1.9,1l-1.1,1.9c-0.1,0.2-0.3,0.3-0.5,0.2c-0.1,0-0.3-0.1-0.6-0.1c-0.7,0-1.2,0.5-1.2,1.3v4.8
			c0,0.3-0.1,0.4-0.5,0.4h-2.4c-0.2,0-0.4-0.2-0.4-0.4V38z"/>
	</g>
</g>
<circle class="st13" cx="-190.5" cy="-91.5" r="46.5"/>
<polyline class="st14" points="-187,-109.3 -187,-74 -200,-62 -200,-123 -210,-133 -169,-92 -210,-51 "/>
<g>
	<path class="st15" d="M27,2C13.2,2,2,13.2,2,27s11.2,25,25,25s25-11.2,25-25S40.8,2,27,2z M27,51.3C13.7,51.3,3,40.6,3,27.3
		S13.7,3.2,27,3.2s24.1,10.8,24.1,24.1S40.4,51.3,27,51.3z"/>
</g>
<polyline class="st15" points="28.4,17.9 28.4,36.9 21.4,43.4 21.4,10.6 16,5.2 38.1,27.2 16,49.3 "/>
<rect x="90.4" y="16.4" width="57.1" height="50.9"/>
</svg>
