<?xml version="1.0" encoding="utf-8"?>
<!-- Generator: Adobe Illustrator 23.0.2, SVG Export Plug-In . SVG Version: 6.00 Build 0)  -->
<svg version="1.1" id="Design" xmlns="http://www.w3.org/2000/svg" xmlns:xlink="http://www.w3.org/1999/xlink" x="0px" y="0px"
	 viewBox="0 0 496.1 283.5" style="enable-background:new 0 0 496.1 283.5;" xml:space="preserve">
<style type="text/css">
	.st0{fill:#FFFFFF;}
	.st1{fill:none;}
	.st2{fill:none;stroke:#FFFFFF;stroke-width:1.5495;stroke-miterlimit:10;}
</style>
<g>
	<g>
		<path class="st0" d="M25.3,125C33.5,69,81.8,25.8,140,25.8c58.2,0,106.6,43.1,114.7,99.1H274C265.7,58.4,208.8,6.7,140,6.7
			S14.3,58.4,6,125H25.3z"/>
		<path class="st0" d="M254.7,158.6c-8.2,56-56.5,99.1-114.7,99.1c-58.2,0-106.6-43.1-114.7-99.1H6c8.3,66.6,65.2,118.3,134,118.3
			s125.7-51.7,134-118.3H254.7z"/>
	</g>
	<g>
		<path class="st0" d="M73.2,191.6v-7.5h8.8v-3.4h-8.8v-3.8h8.9v-3.4H69.3v18.1H73.2z M102.4,191.6l-7-18.1h-4.8l-7,18.1H88l1.1-3.1
			h7.8l1.1,3.1H102.4z M95.9,185.1h-5.6l2.8-7.8L95.9,185.1z M113.8,191.9c3.3,0,5.9-1.4,7.7-3.4v-6.9h-8.6v3.4h4.8v2.2
			c-0.7,0.7-2.3,1.4-3.9,1.4c-3.3,0-5.7-2.5-5.7-5.9s2.4-5.9,5.7-5.9c1.9,0,3.5,1.1,4.3,2.4l3.2-1.7c-1.4-2.1-3.7-4-7.5-4
			c-5.3,0-9.6,3.6-9.6,9.4C104.2,188.3,108.5,191.9,113.8,191.9 M146.1,191.6v-18.1h-5.4l-4.4,10.9l-4.4-10.9h-5.4v18.1h3.9v-12.7
			l5.1,12.7h1.7l5.1-12.7v12.7H146.1z M168.5,191.6l-7-18.1h-4.8l-7,18.1h4.4l1.1-3.1h7.8l1.1,3.1H168.5z M161.9,185.1h-5.6l2.8-7.8
			L161.9,185.1z M188.2,191.6v-18.1h-3.9v11.4l-8.4-11.4h-4v18.1h3.9v-11.8l8.6,11.8H188.2z M209.9,191.6v-18.1H206v11.4l-8.4-11.4
			h-4v18.1h3.9v-11.8l8.6,11.8H209.9z"/>
		<path class="st0" d="M205,158.8c-1.8,0-3.7-0.2-5.6-0.6c-1.9-0.4-3.8-0.9-5.5-1.6c-1.8-0.7-3.5-1.5-5-2.5c-1.6-0.9-3-2-4.2-3.2
			l-0.5-0.5l4.3-6.8c0.4-0.6,0.9-1.1,1.6-1.5c1.5-0.8,3.3-0.7,5,0.3c0.8,0.5,1.7,1,2.7,1.6c1,0.6,2.1,1.1,3.3,1.6
			c1.2,0.5,2.7,0.7,4.3,0.7c2.2,0,3.9-0.5,5.1-1.4c1.1-0.9,1.7-2.3,1.7-4.4c0-1.1-0.3-2-0.9-2.7c-0.7-0.7-1.5-1.4-2.6-1.9
			c-1.1-0.5-2.5-1-3.9-1.4c-1.5-0.4-3.1-0.9-4.7-1.4c-1.6-0.5-3.3-1.2-4.8-1.9c-1.6-0.8-3.1-1.8-4.3-3.1c-1.3-1.3-2.3-2.9-3.1-4.9
			c-0.8-1.9-1.2-4.3-1.2-7.1c0-2.3,0.5-4.5,1.4-6.7c0.9-2.2,2.3-4.1,4-5.8c1.8-1.7,3.9-3,6.5-4c2.5-1,5.5-1.5,8.7-1.5
			c1.8,0,3.6,0.1,5.3,0.4c1.7,0.3,3.4,0.7,4.9,1.3c1.5,0.6,3,1.2,4.3,2c1.4,0.8,2.6,1.7,3.7,2.7l0.5,0.5l-3.6,6.8
			c-0.5,0.8-1,1.3-1.5,1.7c-1.1,0.8-2.8,0.9-4.6,0l-2.4-1.3c-0.8-0.4-1.8-0.9-2.9-1.2c-1-0.3-2.2-0.5-3.6-0.5c-2.3,0-3.9,0.5-5,1.4
			c-1,0.9-1.5,2.1-1.5,3.6c0,0.9,0.3,1.7,0.9,2.3c0.7,0.7,1.5,1.3,2.6,1.8c1.2,0.5,2.5,1,4,1.5c1.5,0.5,3.1,1,4.8,1.6
			c1.6,0.6,3.3,1.3,4.8,2c1.6,0.8,3.1,1.8,4.3,3.1c1.3,1.3,2.3,2.8,3.1,4.6c0.8,1.8,1.2,4,1.2,6.5c0,2.8-0.5,5.4-1.4,7.8
			c-1,2.4-2.4,4.6-4.2,6.4c-1.8,1.8-4.1,3.2-6.8,4.3C211.4,158.2,208.4,158.8,205,158.8"/>
		<path class="st0" d="M157.8,158.1h-13.3l-0.2-0.6l-23.5-58.7h12.1c1.3,0,2.5,0.3,3.4,1c0.9,0.6,1.5,1.5,1.9,2.5l11.1,30.8
			c0.5,1.3,1,2.8,1.5,4.4c0.2,0.5,0.4,1.1,0.5,1.7c0.2-0.6,0.3-1.1,0.5-1.7c0.5-1.6,1-3.1,1.5-4.4l11.1-30.8
			c0.3-0.9,0.9-1.7,1.8-2.4c0.9-0.7,2.1-1.1,3.4-1.1h12.1L157.8,158.1z"/>
		<path class="st0" d="M92.1,158.1H78.8l-0.2-0.6L55.1,98.8h12.1c1.3,0,2.5,0.3,3.4,1c0.9,0.6,1.5,1.5,1.9,2.5l11.1,30.8
			c0.5,1.3,1,2.8,1.5,4.4c0.2,0.5,0.4,1.1,0.5,1.7c0.2-0.6,0.3-1.1,0.5-1.7c0.5-1.6,1-3.1,1.5-4.4l11.1-30.8
			c0.3-0.9,0.9-1.7,1.8-2.4c0.9-0.7,2.1-1.1,3.4-1.1h12.1L92.1,158.1z"/>
	</g>
	<g>
		<rect x="314.3" y="110" class="st1" width="404.1" height="169.8"/>
		<path class="st0" d="M316.9,122.6c1.3,1.3,3.3,2.4,5.7,2.4c2.1,0,3.1-1,3.1-2c0-1.4-1.6-1.8-3.7-2.3c-3-0.7-6.8-1.5-6.8-5.5
			c0-3,2.6-5.5,6.9-5.5c2.9,0,5.3,0.9,7,2.5l-2.1,2.8c-1.5-1.4-3.4-2-5.2-2c-1.7,0-2.7,0.8-2.7,1.8c0,1.2,1.5,1.6,3.6,2.1
			c3,0.7,6.8,1.6,6.8,5.6c0,3.3-2.4,5.8-7.2,5.8c-3.5,0-6-1.2-7.7-2.9L316.9,122.6z"/>
		<path class="st0" d="M333.4,110h8.5c3.9,0,6.1,2.7,6.1,5.8c0,3.1-2.2,5.8-6.1,5.8h-4.6v6.5h-3.8V110z M341.4,113.3h-4.1v5h4.1
			c1.5,0,2.7-1,2.7-2.5C344,114.3,342.9,113.3,341.4,113.3z"/>
		<path class="st0" d="M351.4,110h12.8v3.3h-8.9v3.9h8.8v3.3h-8.8v4.2h8.9v3.3h-12.8V110z"/>
		<path class="st0" d="M369.2,122.6c1.3,1.3,3.3,2.4,5.7,2.4c2.1,0,3.1-1,3.1-2c0-1.4-1.6-1.8-3.7-2.3c-3-0.7-6.8-1.5-6.8-5.5
			c0-3,2.6-5.5,6.9-5.5c2.9,0,5.3,0.9,7,2.5l-2.1,2.8c-1.5-1.4-3.4-2-5.2-2c-1.7,0-2.7,0.8-2.7,1.8c0,1.2,1.5,1.6,3.6,2.1
			c3,0.7,6.8,1.6,6.8,5.6c0,3.3-2.4,5.8-7.2,5.8c-3.5,0-6-1.2-7.7-2.9L369.2,122.6z"/>
		<path class="st0" d="M385.7,110h3.8v18.1h-3.8V110z"/>
		<path class="st0" d="M405.7,125h-8.1l-1.1,3.1h-4.2l7-18.1h4.8l7,18.1h-4.2L405.7,125z M398.7,121.7h6l-3-8.3L398.7,121.7z"/>
		<path class="st0" d="M413.8,110h3.8v14.7h7.6v3.4h-11.5V110z"/>
		<path class="st0" d="M429.1,110h3.8v18.1h-3.8V110z"/>
		<path class="st0" d="M438.5,122.6c1.3,1.3,3.3,2.4,5.7,2.4c2.1,0,3.1-1,3.1-2c0-1.4-1.6-1.8-3.7-2.3c-3-0.7-6.8-1.5-6.8-5.5
			c0-3,2.6-5.5,6.9-5.5c2.9,0,5.3,0.9,7,2.5l-2.1,2.8c-1.5-1.4-3.4-2-5.2-2c-1.7,0-2.7,0.8-2.7,1.8c0,1.2,1.5,1.6,3.6,2.1
			c3,0.7,6.8,1.6,6.8,5.6c0,3.3-2.4,5.8-7.2,5.8c-3.5,0-6-1.2-7.7-2.9L438.5,122.6z"/>
		<path class="st0" d="M459,113.4h-5.3V110h14.4v3.4h-5.3v14.7H459V113.4z"/>
		<path class="st0" d="M316.1,141.8h8.5c3.9,0,6.1,2.7,6.1,5.8c0,3.1-2.2,5.8-6.1,5.8h-4.6v6.5h-3.8V141.8z M324,145.1h-4.1v5h4.1
			c1.5,0,2.7-1,2.7-2.5C326.7,146.1,325.5,145.1,324,145.1z"/>
		<path class="st0" d="M343.6,156.8h-8.1l-1.1,3.1h-4.2l7-18.1h4.8l7,18.1h-4.2L343.6,156.8z M336.6,153.4h6l-3-8.3L336.6,153.4z
			 M339.6,135.2c1.6,0,2.8,1.3,2.8,2.9c0,1.6-1.2,2.8-2.8,2.8c-1.5,0-2.8-1.3-2.8-2.8C336.7,136.6,338,135.2,339.6,135.2z
			 M339.6,136.8c-0.7,0-1.3,0.6-1.3,1.3c0,0.7,0.6,1.3,1.3,1.3c0.7,0,1.2-0.6,1.2-1.3C340.8,137.4,340.3,136.8,339.6,136.8z"/>
		<path class="st0" d="M359.7,141.8h9.5c3.4,0,5.2,2.2,5.2,4.6c0,2.3-1.4,3.8-3.1,4.1c1.9,0.3,3.5,2.2,3.5,4.4
			c0,2.7-1.8,4.9-5.3,4.9h-9.8V141.8z M368.4,149.1c1.3,0,2.1-0.8,2.1-2c0-1.1-0.8-2-2.1-2h-4.8v4H368.4z M368.5,156.6
			c1.5,0,2.3-0.8,2.3-2.1c0-1.1-0.8-2.1-2.3-2.1h-5v4.3H368.5z"/>
		<path class="st0" d="M390.3,156.8h-8.1l-1.1,3.1h-4.2l7-18.1h4.8l7,18.1h-4.2L390.3,156.8z M383.3,153.4h6l-3-8.3L383.3,153.4z"/>
		<path class="st0" d="M398.4,141.8h7.1c5.7,0,9.6,3.6,9.6,9.1s-3.9,9-9.6,9h-7.1V141.8z M405.6,156.5c3.6,0,5.7-2.6,5.7-5.6
			c0-3.2-2-5.7-5.7-5.7h-3.3v11.3H405.6z"/>
		<path class="st0" d="M435.6,141.5c5.5,0,9.5,3.9,9.5,9.4s-4,9.4-9.5,9.4c-5.4,0-9.4-3.9-9.4-9.4S430.1,141.5,435.6,141.5z
			 M435.6,144.9c-3.3,0-5.5,2.5-5.5,5.9c0,3.4,2.1,5.9,5.5,5.9c3.3,0,5.5-2.6,5.5-5.9C441.1,147.5,438.9,144.9,435.6,144.9z"/>
		<path class="st0" d="M457.6,141.5c3.7,0,6.1,1.8,7.5,4l-3.2,1.7c-0.8-1.3-2.4-2.3-4.3-2.3c-3.3,0-5.7,2.5-5.7,5.9s2.4,5.9,5.7,5.9
			c1.7,0,3.1-0.7,3.9-1.4v-2.2h-4.8v-3.3h8.6v6.9c-1.8,2.1-4.4,3.4-7.7,3.4c-5.3,0-9.6-3.7-9.6-9.4
			C448,145.1,452.3,141.5,457.6,141.5z"/>
		<path class="st0" d="M322.7,185.2h-2.8v6.5h-3.8v-18.1h8.5c3.8,0,6.1,2.5,6.1,5.8c0,3.2-2,4.9-4,5.4l4.1,6.9h-4.4L322.7,185.2z
			 M324,176.9h-4v5h4c1.5,0,2.7-1,2.7-2.5C326.7,177.8,325.5,176.9,324,176.9z"/>
		<path class="st0" d="M352.6,182.6c0,5.5-4,9.4-9.5,9.4c-1.8,0-3.5-0.4-4.9-1.2l-1.6,2.2l-1.5-1.1l1.6-2.2c-1.9-1.7-3-4.1-3-7
			c0-5.5,4-9.4,9.4-9.4c1.7,0,3.3,0.4,4.6,1.1l1.5-2.1l1.5,1.1l-1.5,2C351.4,177.1,352.6,179.6,352.6,182.6z M339,186.6l6.8-9.3
			c-0.8-0.4-1.6-0.6-2.5-0.6c-3.3,0-5.5,2.5-5.5,5.9C337.7,184.2,338.2,185.5,339,186.6z M348.7,182.6c0-1.7-0.5-3.1-1.5-4.2
			l-6.8,9.4c0.8,0.5,1.7,0.7,2.8,0.7C346.5,188.6,348.7,186,348.7,182.6z"/>
		<path class="st0" d="M363.1,185.2h-2.8v6.5h-3.8v-18.1h8.5c3.8,0,6.1,2.5,6.1,5.8c0,3.2-2,4.9-4,5.4l4.1,6.9h-4.4L363.1,185.2z
			 M364.3,176.9h-4v5h4c1.5,0,2.7-1,2.7-2.5C367,177.8,365.9,176.9,364.3,176.9z"/>
		<path class="st0" d="M378.9,176.9h-5.3v-3.4H388v3.4h-5.3v14.7h-3.9V176.9z"/>
		<path class="st0" d="M391.5,173.6h12.8v3.3h-8.9v3.9h8.8v3.3h-8.8v4.2h8.9v3.3h-12.8V173.6z"/>
		<path class="st0" d="M413.7,184.4l-1.4,1.7v5.6h-3.8v-18.1h3.8v8.1l6.4-8.1h4.7l-7.2,8.5l7.7,9.6h-4.7L413.7,184.4z"/>
		<path class="st0" d="M430.6,179.5v12.1h-3.8v-18.1h4l8.4,11.7v-11.7h3.9v18.1h-3.7L430.6,179.5z"/>
		<path class="st0" d="M447.6,173.6h3.8v18.1h-3.8V173.6z"/>
		<path class="st0" d="M461.4,184.4l-1.4,1.7v5.6h-3.8v-18.1h3.8v8.1l6.4-8.1h4.7l-7.2,8.5l7.7,9.6h-4.7L461.4,184.4z"/>
		<path class="st0" d="M479.7,184.4l-1.4,1.7v5.6h-3.8v-18.1h3.8v8.1l6.4-8.1h4.7l-7.2,8.5l7.7,9.6h-4.7L479.7,184.4z"/>
	</g>
	<line class="st2" x1="295.1" y1="97.4" x2="295.1" y2="204.3"/>
</g>
<g>
</g>
<g>
</g>
<g>
</g>
<g>
</g>
<g>
</g>
<g>
</g>
</svg>
