<?xml version="1.0" encoding="utf-8"?>
<!-- Generator: Adobe Illustrator 23.0.2, SVG Export Plug-In . SVG Version: 6.00 Build 0)  -->
<svg version="1.1" id="Layer_1" xmlns="http://www.w3.org/2000/svg" xmlns:xlink="http://www.w3.org/1999/xlink" x="0px" y="0px"
	 viewBox="0 0 100 80" style="enable-background:new 0 0 100 80;" xml:space="preserve">
<style type="text/css">
	.st0{fill:#022859;stroke:#CCCCCC;stroke-miterlimit:10;}
	.st1{fill:#2E78A6;stroke:#CCCCCC;stroke-miterlimit:10;}
	.st2{fill:#6AAED9;stroke:#CCCCCC;stroke-miterlimit:10;}
	.st3{fill:#ACD7F2;stroke:#CCCCCC;stroke-miterlimit:10;}
	.st4{fill:#F2F2F2;stroke:#CCCCCC;stroke-miterlimit:10;}
	.st5{fill:#FF931E;stroke:#CCCCCC;stroke-miterlimit:10;}
	.st6{fill:#FF1D25;stroke:#CCCCCC;stroke-miterlimit:10;}
	.st7{fill:#7AC943;stroke:#CCCCCC;stroke-miterlimit:10;}
	.st8{fill:#022859;}
	.st9{fill:#FF931E;}
	.st10{fill:#F2F2F2;}
	.st11{fill:none;stroke:#132958;stroke-width:4;stroke-miterlimit:10;}
	.st12{fill:none;stroke:#132958;stroke-width:4.1021;stroke-miterlimit:10;}
	.st13{fill:none;stroke:#132958;stroke-width:2;stroke-miterlimit:10;}
	.st14{fill:#132958;stroke:#132958;stroke-width:0.25;stroke-miterlimit:10;}
</style>
<g>
	<rect x="-12" y="-214" class="st0" width="26" height="24.1"/>
	<rect x="26" y="-214" class="st1" width="26" height="24.1"/>
	<rect x="64" y="-214" class="st2" width="26" height="24.1"/>
	<rect x="102" y="-214" class="st3" width="26" height="24.1"/>
	<rect x="140" y="-214" class="st4" width="26" height="24.1"/>
</g>
<rect x="-12" y="-243" class="st5" width="26" height="24.1"/>
<rect x="26" y="-243" class="st6" width="26" height="24.1"/>
<rect x="64" y="-243" class="st7" width="26" height="24.1"/>
<path class="st8" d="M315-38.7c-1.6-2.2-3.7-3.7-5.9-4.4c-0.9-0.3-1.9-0.5-2.3-1.6c-0.2-0.5-0.3-1.1-0.5-1.5
	c-0.5-0.9-1.4-0.8-2.1-1.3c-0.9-0.7-1.3-2.5-1.2-4s0.4-3.1,0.4-4.7c0-4.3-2.7-7.4-5.3-9.2c-3.5-2.4-7.5-3.5-10.6-7
	c-1-1.1-1.8-2.4-2.9-3.4c-2.7-2.6-6.1-2.6-9.1-4.4c-2.9-1.7-5.5-6.2-8.6-5.9c-1.4,0.2-5.3,2.4-6.6,3.2c-4.8,3.1-7.2,5.1-12.4,5.9
	c-0.6,0.1-1.2,0.2-1.7,0.8c-0.2,0.3-0.4,0.8-0.6,1.2c-1.2,2.5-3.8,2-5.8,1.7c-2.4-0.4-4.8-0.2-7.1,0.6c-0.5,0.2-1,0.4-1.4,0.8
	c-0.3,0.3-0.6,2.9-0.9,3.4c-3,5-6.1,7.9-9.1,12.9c-0.9,1.4-2.2,3-3.4,2c0.6,1.1,1.7,0.8,2.6,0.5c1.3-0.4,2.6-0.7,3.9-1.1
	c0.6-0.2,1.3-0.3,1.8,0.2c0.3,0.3,0.5,0.8,0.6,1.2c0.7,1.7,0.5,2.1,1.5,3.2c0.6-0.8,0.9-1,0.7-2.1c-0.1-0.8,0.1-1.6,0.4-2.3
	c0.9-2.4,2.1-4.5,3.6-6c1.3-1.3,2.8-2.4,3.4-4.4c0.2-0.5,0.3-1.1,0.6-1.4c0.4-0.4,1,0,1.3,0.7c0.2,0.6,0.3,1.4,0.2,2.1
	c-0.1,2.5-0.4,5-0.9,7.5c-0.2,0.9-0.4,1.7-0.4,2.7s0.3,1.9,0.9,2.2c0.1-3.1,1.9-5.4,2.6-8.4c0.3-1.2,0.3-2.4,0.6-3.6
	c0.2-1.2,0.7-2.4,1.5-2.8c0.7-0.4,1.5,0,2.2-0.4c0.8-0.4,1.4-1.5,1.9-2.6c0.8-1.6,1.7-3.1,2.9-3.9c1.4-1.1,3.1-1.1,4.7-1.2
	c0.2,0,0.5,0,0.6,0.2c0.2,0.2,0.2,0.6,0.2,0.9c0.1,3.5,0.2,4.9,0,8.5c-0.4-1.3-0.1-0.7,0.5-1.9c0.6-1.2,1.3-2.1,1.7-3.4
	c0.4-1.4,0.8-3.4,1.9-3.2c0.7,0.1,1.1,1.4,1.2,2.4c0.5,2.7,1,2.3,1.5,5c-0.3-0.9,0.4-1.1,0.9-1.8c0.5-0.7,1.1-1.2,1.5-1.9
	c1.1-2,0.4-2.9-0.4-5.2c-0.3-0.7-0.6-1.6-0.4-2.4c0.1-0.4,0.3-0.8,0.6-1.1c0.9-1.2,2-2.1,3.1-2.5c0.2-0.1,0.5-0.2,0.7-0.1
	c0.2,0.1,0.4,0.4,0.6,0.6c1.4,1.9,3.4,2.5,4.7,4.6c0.6,1,1,2.4,1.4,3.7c1.5,4.9,1.9,3.6,3.3,8.5c1.1-4.4-0.1-2.8,0.2-7.5
	c0-0.3,0.1-0.7,0.2-1c0.2-0.4,0.6-0.6,0.9-0.6c1.2-0.3,2.4,0.3,3.6,0.9c1.6,0.9,3.3,2.1,4.5,3.9c1.3,1.8,2.1,4.2,2.7,6.7
	c0.9,3.8,1.1,7.9,1.6,11.8c0.1,0.8,0.4,1.9,1,1.8c0-3.9-0.5-7.9-1.5-11.5c-0.6-2.2-0.6-4.6-1-6.8c1-0.6,2.1,0.6,3.2,1
	c0.5,0.2,1,0.2,1.6,0.3c1.9,0.5,3.6,2.7,4.2,5.5c0.2,0.9,0.2,1.8,0.3,2.7c0.2,2.3,0.3,4.6,0.4,6.8c0.1,1.9,0,3.8,0.4,5.6
	c-0.5-2.3,1.6-4.7,0.8-6.8c-0.1-0.3-0.3-0.6-0.4-0.9s0-0.8,0.2-0.9c1,1.8,1.8,3.8,2.3,5.9c0.6,2.3,1.8,4.8,3.5,5
	c0.6,0.1,1.2,0,1.8,0.3c0.2,0.1,0.4,0.3,0.6,0.4c0.2,0.1,0.5,0.2,0.7,0.2c0.8,0.1,1.6,0,2.4,0.1C313.1-39.7,314.4-39.5,315-38.7z"/>
<g>
	<path class="st9" d="M249.8-25.2c0-0.1,0.1-0.2,0.2-0.2h2.7c1.4,0,2.5,0.9,2.5,2.2c0,0.9-0.8,1.5-1.3,1.8c0.6,0.3,1.6,0.8,1.6,1.9
		c0,1.3-1.1,2.2-2.5,2.2H250c-0.1,0-0.2-0.1-0.2-0.2V-25.2z M252.5-22.2c0.4,0,0.8-0.4,0.8-0.8c0-0.5-0.4-0.8-0.8-0.8h-0.9v1.6
		H252.5z M252.6-19c0.5,0,0.8-0.4,0.8-0.8c0-0.5-0.5-0.8-0.9-0.8h-0.9v1.7H252.6z"/>
	<path class="st9" d="M258.4-22.1c1.2,0,2.2,0.9,2.2,2.2c0,0.1,0,0.2,0,0.3c0,0.1-0.1,0.2-0.2,0.2h-2.8c0,0.3,0.3,0.8,0.9,0.8
		c0.3,0,0.6-0.1,0.8-0.3c0.1-0.1,0.2-0.1,0.3,0l0.6,0.7c0.1,0.1,0.1,0.2,0,0.3c-0.4,0.4-1,0.7-1.7,0.7c-1.4,0-2.4-1.1-2.4-2.4
		C256-21,257-22.1,258.4-22.1z M259-20.3c0-0.3-0.3-0.5-0.6-0.5c-0.3,0-0.6,0.2-0.6,0.5H259z"/>
	<path class="st9" d="M261.4-24.3c0-0.5,0.4-0.9,0.9-0.9c0.5,0,0.9,0.4,0.9,0.9c0,0.5-0.4,0.9-0.9,0.9
		C261.8-23.4,261.4-23.8,261.4-24.3z M261.5-21.8c0-0.1,0.1-0.2,0.2-0.2h1.3c0.1,0,0.2,0.1,0.2,0.2v4.2c0,0.1-0.1,0.2-0.2,0.2h-1.3
		c-0.1,0-0.2-0.1-0.2-0.2V-21.8z"/>
	<path class="st9" d="M264.6-20.5h-0.3c-0.1,0-0.2-0.1-0.2-0.2v-1c0-0.1,0.1-0.2,0.2-0.2h0.3v-1.3c0-0.1,0.1-0.2,0.2-0.2h1.2
		c0.1,0,0.2,0.1,0.2,0.2v1.3h0.9c0.1,0,0.2,0.1,0.2,0.2v1c0,0.1-0.1,0.2-0.2,0.2h-0.9v1.4c0,0.3,0.2,0.3,0.3,0.3
		c0.2,0,0.3-0.1,0.5-0.1c0.1,0,0.2,0,0.3,0.2l0.3,1c0,0.1,0,0.2-0.2,0.3c0,0-0.8,0.3-1.4,0.3c-0.9,0-1.4-0.6-1.4-1.6V-20.5z"/>
	<path class="st9" d="M270.5-22.1c1.3,0,2.4,1.1,2.4,2.4c0,1.3-1.1,2.4-2.4,2.4s-2.4-1.1-2.4-2.4C268-21,269.1-22.1,270.5-22.1z
		 M270.5-18.7c0.5,0,0.9-0.4,0.9-1c0-0.5-0.4-0.9-0.9-0.9s-0.9,0.4-0.9,0.9C269.5-19.1,269.9-18.7,270.5-18.7z"/>
	<path class="st9" d="M273.5-17.9l0.4-0.8c0-0.1,0.2-0.1,0.2-0.1c0,0,0.5,0.3,1,0.3c0.1,0,0.2-0.1,0.2-0.2c0-0.1-0.1-0.3-0.7-0.5
		c-0.9-0.3-1.3-0.8-1.3-1.6c0-0.8,0.6-1.4,1.8-1.4c0.7,0,1.3,0.2,1.5,0.4c0.1,0.1,0.2,0.2,0.1,0.3l-0.4,0.8c0,0.1-0.2,0.1-0.2,0.1
		c0,0-0.5-0.3-1-0.3c-0.2,0-0.3,0-0.3,0.2c0,0.1,0.1,0.2,0.5,0.4c0.9,0.3,1.6,0.7,1.6,1.6c0,0.8-0.6,1.5-2,1.5
		c-0.8,0-1.3-0.2-1.6-0.4C273.5-17.7,273.5-17.7,273.5-17.9z"/>
	<path class="st9" d="M278.2-20.5h-0.3c-0.1,0-0.2-0.1-0.2-0.2v-1c0-0.1,0.1-0.2,0.2-0.2h0.3v-1.3c0-0.1,0.1-0.2,0.2-0.2h1.2
		c0.1,0,0.2,0.1,0.2,0.2v1.3h0.9c0.1,0,0.2,0.1,0.2,0.2v1c0,0.1-0.1,0.2-0.2,0.2h-0.9v1.4c0,0.3,0.2,0.3,0.3,0.3
		c0.2,0,0.3-0.1,0.5-0.1c0.1,0,0.2,0,0.3,0.2l0.3,1c0,0.1,0,0.2-0.2,0.3c0,0-0.8,0.3-1.4,0.3c-0.9,0-1.4-0.6-1.4-1.6V-20.5z"/>
	<path class="st9" d="M281.9-17.9l0.3-0.3c-0.3-0.4-0.5-0.9-0.5-1.5c0-1.3,1.1-2.4,2.4-2.4c0.5,0,1.1,0.2,1.5,0.5l0.3-0.3
		c0.1-0.1,0.2-0.1,0.3,0l0.1,0.1c0.1,0.1,0.1,0.2,0,0.3l-0.3,0.3c0.3,0.4,0.5,0.9,0.5,1.5c0,1.3-1.1,2.5-2.4,2.5
		c-0.5,0-1.1-0.2-1.5-0.5l-0.3,0.3c-0.1,0.1-0.2,0.1-0.3,0l-0.1-0.1C281.8-17.7,281.8-17.8,281.9-17.9z M284.5-20.5
		c-0.1-0.1-0.3-0.1-0.4-0.1c-0.5,0-0.9,0.4-0.9,0.9c0,0.2,0,0.3,0.1,0.4L284.5-20.5z M284.1-18.7c0.5,0,0.9-0.4,0.9-1
		c0-0.1,0-0.3-0.1-0.4l-1.2,1.3C283.8-18.7,284-18.7,284.1-18.7z"/>
	<path class="st9" d="M287.4-25.2c0-0.1,0.1-0.2,0.2-0.2h1.3c0.1,0,0.2,0.1,0.2,0.2v7.7c0,0.1-0.1,0.2-0.2,0.2h-1.3
		c-0.1,0-0.2-0.1-0.2-0.2V-25.2z"/>
	<path class="st9" d="M292.5-22.1c1.2,0,2.2,0.9,2.2,2.2c0,0.1,0,0.2,0,0.3c0,0.1-0.1,0.2-0.2,0.2h-2.8c0,0.3,0.3,0.8,0.9,0.8
		c0.3,0,0.6-0.1,0.8-0.3c0.1-0.1,0.2-0.1,0.3,0l0.6,0.7c0.1,0.1,0.1,0.2,0,0.3c-0.4,0.4-1,0.7-1.7,0.7c-1.4,0-2.4-1.1-2.4-2.4
		C290.1-21,291.1-22.1,292.5-22.1z M293-20.3c0-0.3-0.3-0.5-0.6-0.5c-0.3,0-0.6,0.2-0.6,0.5H293z"/>
	<path class="st9" d="M295.5-21.8c0-0.1,0.1-0.2,0.2-0.2h0.5c0.1,0,0.2,0.1,0.2,0.1l0.2,0.5c0.3-0.3,0.8-0.7,1.6-0.7
		c1.4,0,2.2,1.1,2.2,2.4v2.1c0,0.1-0.1,0.2-0.2,0.2H299c-0.1,0-0.2-0.1-0.2-0.2v-2.2c0-0.5-0.3-0.9-0.8-0.9c-0.5,0-0.9,0.3-0.9,0.8
		v2.2c0,0.1,0,0.2-0.2,0.2h-1.2c-0.1,0-0.2-0.1-0.2-0.2V-21.8z"/>
</g>
<g>
	<path class="st8" d="M249.1-44.9L249.1-44.9l-0.2-0.3c-0.5-0.5-0.8-1-0.8-1.7c0-0.9,0.8-1.9,2.2-1.9c1.3,0,2.3,0.9,2.3,1.9
		c0,1.3-1.3,2-1.3,2l1,1.1c0.2-0.2,0.3-0.6,0.4-0.9c0.1-0.2,0.1-0.4,0.5-0.3l0.8,0.3c0.3,0.1,0.2,0.4,0.2,0.5
		c-0.3,0.8-0.7,1.4-0.7,1.4l1,0.9c0.2,0.1,0.3,0.2,0,0.5l-0.6,0.7c-0.1,0.1-0.3,0.2-0.5,0l-0.8-0.8c0,0-0.8,0.9-2.5,0.9
		c-1.5,0-2.5-1-2.5-2.2C247.5-44.2,249.1-44.9,249.1-44.9z M250.2-41.8c0.9,0,1.2-0.6,1.2-0.6l-1.5-1.6c0,0-0.8,0.3-0.8,1.2
		C249.1-42.2,249.6-41.8,250.2-41.8z M251.1-46.6c0-0.4-0.4-0.7-0.9-0.7c-0.4,0-0.7,0.3-0.7,0.6c0,0.3,0.2,0.6,0.5,0.9l0.3,0.3
		C250.4-45.7,251.1-46,251.1-46.6z"/>
</g>
<g>
	<path class="st8" d="M233-29.9l1.1-1.9c0.2-0.3,0.6-0.3,0.8-0.1c0.1,0,1.8,1.3,3.3,1.3c0.9,0,1.6-0.6,1.6-1.4c0-1-0.8-1.7-2.4-2.3
		c-2-0.8-4.5-2.3-4.5-5.1c0-2.3,1.8-4.6,5.3-4.6c2.4,0,4.3,1.2,5,1.7c0.3,0.2,0.2,0.6,0.1,0.7l-1.2,1.8c-0.2,0.3-0.6,0.5-0.8,0.3
		c-0.2-0.1-1.9-1.4-3.3-1.4c-0.8,0-1.5,0.6-1.5,1.2c0,0.9,0.7,1.5,2.5,2.2c1.8,0.7,4.7,2.1,4.7,5.3c0,2.4-2.1,4.8-5.5,4.8
		c-3,0-4.7-1.3-5.2-1.8C232.9-29.5,232.8-29.5,233-29.9z"/>
	<path class="st8" d="M249.8-37.2c2.4,0,4.4,1.8,4.4,4.4c0,0.2,0,0.5,0,0.6c0,0.2-0.2,0.4-0.4,0.4h-5.6c0.1,0.6,0.6,1.5,1.8,1.5
		c0.6,0,1.3-0.3,1.6-0.6c0.2-0.2,0.4-0.2,0.6,0l1.2,1.4c0.1,0.2,0.2,0.5,0,0.7c-0.8,0.8-2,1.3-3.4,1.3c-2.8,0-4.8-2.2-4.8-4.9
		C245-34.9,247.1-37.2,249.8-37.2z M250.9-33.6c0-0.6-0.6-1.1-1.2-1.1c-0.6,0-1.2,0.5-1.3,1.1H250.9z"/>
	<path class="st8" d="M255.9-36.5c0-0.3,0.2-0.4,0.4-0.4h1.1c0.3,0,0.3,0.1,0.4,0.3l0.4,1c0.5-0.7,1.3-1.5,2.5-1.5
		c1.3,0,2.2,0.5,1.9,1l-1.1,1.9c-0.1,0.2-0.3,0.3-0.5,0.2c-0.1,0-0.3-0.1-0.6-0.1c-0.7,0-1.2,0.5-1.2,1.3v4.8c0,0.3-0.1,0.4-0.5,0.4
		h-2.4c-0.2,0-0.4-0.2-0.4-0.4V-36.5z"/>
	<path class="st8" d="M263.3-36.3c-0.2-0.3,0-0.6,0.4-0.6h2.6c0.2,0,0.3,0.1,0.4,0.3l1.4,3.1c0,0,0,0,0.1,0l1.5-3.1
		c0.1-0.3,0.3-0.3,0.6-0.3h2.3c0.3,0,0.6,0.3,0.4,0.6l-4.4,8.6c-0.1,0.1-0.3,0.2-0.4,0.2H268c-0.1,0-0.3-0.1-0.4-0.2L263.3-36.3z"/>
	<path class="st8" d="M274.2-41.6c0-1,0.8-1.9,1.8-1.9c1,0,1.9,0.8,1.9,1.9c0,1-0.8,1.8-1.9,1.8C275-39.7,274.2-40.5,274.2-41.6z
		 M274.3-36.5c0-0.3,0.2-0.4,0.4-0.4h2.5c0.2,0,0.4,0.2,0.4,0.4v8.4c0,0.2-0.2,0.4-0.4,0.4h-2.5c-0.2,0-0.4-0.2-0.4-0.4V-36.5z"/>
	<path class="st8" d="M284.5-37.2c1.5,0,2.6,0.6,3.5,1.7c0.2,0.2,0.1,0.5-0.1,0.6l-1.4,1.3c-0.1,0.1-0.4,0.1-0.5,0
		c-0.3-0.3-0.8-0.6-1.3-0.6c-1,0-1.9,0.9-1.9,1.9c0,1,0.8,1.9,1.8,1.9c0.8,0,1.2-0.3,1.6-0.7c0.2-0.2,0.4-0.2,0.5-0.1l1.4,1.2
		c0.2,0.2,0.3,0.4,0.2,0.6c-0.9,1.3-2.1,1.9-3.7,1.9c-2.6,0-5-2.1-5-4.9C279.5-35,281.9-37.2,284.5-37.2z"/>
	<path class="st8" d="M294.1-37.2c2.4,0,4.4,1.8,4.4,4.4c0,0.2,0,0.5,0,0.6c0,0.2-0.2,0.4-0.4,0.4h-5.6c0.1,0.6,0.6,1.5,1.8,1.5
		c0.6,0,1.3-0.3,1.6-0.6c0.2-0.2,0.4-0.2,0.6,0l1.2,1.4c0.1,0.2,0.2,0.5,0,0.7c-0.8,0.8-2,1.3-3.4,1.3c-2.8,0-4.8-2.2-4.8-4.9
		C289.3-34.9,291.3-37.2,294.1-37.2z M295.2-33.6c0-0.6-0.6-1.1-1.2-1.1c-0.6,0-1.2,0.5-1.3,1.1H295.2z"/>
</g>
<g>
	<g>
		<path class="st8" d="M256.4-60.9c0-0.2,0.2-0.4,0.4-0.4h6.9c2.8,0,5,2.2,5,5c0,2.1-1.4,3.8-3.4,4.7l3.2,5.9c0.2,0.3,0,0.7-0.4,0.7
			H265c-0.2,0-0.3-0.1-0.4-0.2l-3.1-6.1H260v5.9c0,0.2-0.2,0.4-0.4,0.4h-2.8c-0.3,0-0.4-0.2-0.4-0.4V-60.9z M263.4-54.5
			c1,0,1.8-0.9,1.8-1.9c0-1-0.8-1.8-1.8-1.8H260v3.6H263.4z"/>
		<path class="st8" d="M270-46.3l0.6-0.6c-0.6-0.8-1-1.9-1-3c0-2.6,2.2-4.8,4.8-4.8c1.1,0,2.1,0.4,2.9,1l0.6-0.6
			c0.2-0.2,0.4-0.2,0.6,0l0.3,0.3c0.2,0.2,0.2,0.4,0,0.6l-0.6,0.6c0.6,0.8,1,1.8,1,2.9c0,2.7-2.2,4.9-4.8,4.9c-1.1,0-2.1-0.4-2.9-1
			l-0.6,0.6c-0.2,0.2-0.4,0.1-0.6,0l-0.3-0.3C269.9-45.8,269.9-46.1,270-46.3z M275.2-51.5c-0.2-0.1-0.5-0.2-0.8-0.2
			c-1,0-1.8,0.8-1.8,1.8c0,0.3,0,0.6,0.2,0.8L275.2-51.5z M274.5-47.9c1,0,1.8-0.9,1.8-1.9c0-0.3-0.1-0.5-0.2-0.8l-2.5,2.5
			C273.9-48,274.2-47.9,274.5-47.9z"/>
		<path class="st8" d="M281.1-54c0-0.3,0.2-0.4,0.4-0.4h1.1c0.3,0,0.3,0.1,0.4,0.3l0.4,1c0.5-0.7,1.3-1.5,2.5-1.5
			c1.3,0,2.2,0.5,1.9,1l-1.1,1.9c-0.1,0.2-0.3,0.3-0.5,0.2c-0.1,0-0.3-0.1-0.6-0.1c-0.7,0-1.2,0.5-1.2,1.3v4.8
			c0,0.3-0.1,0.4-0.5,0.4h-2.4c-0.2,0-0.4-0.2-0.4-0.4V-54z"/>
	</g>
</g>
<rect x="-394.5" y="-274.5" class="st0" width="133" height="110"/>
<path class="st10" d="M97,53.3c-1.6-2.2-3.7-3.7-5.9-4.4c-0.9-0.3-1.9-0.5-2.3-1.6c-0.2-0.5-0.3-1.1-0.5-1.5
	c-0.5-0.9-1.4-0.8-2.1-1.3c-0.9-0.7-1.3-2.5-1.2-4c0.1-1.6,0.4-3.1,0.4-4.7c0-4.3-2.7-7.4-5.3-9.2c-3.5-2.4-7.5-3.5-10.6-7
	c-1-1.1-1.8-2.4-2.9-3.4c-2.7-2.6-6.1-2.6-9.1-4.4C54.7,10.2,52.1,5.7,49,6c-1.4,0.2-5.3,2.4-6.6,3.2c-4.8,3.1-7.2,5.1-12.4,5.9
	c-0.6,0.1-1.2,0.2-1.7,0.8c-0.2,0.3-0.4,0.8-0.6,1.2c-1.2,2.5-3.8,2-5.8,1.7c-2.4-0.4-4.8-0.2-7.1,0.6c-0.5,0.2-1,0.4-1.4,0.8
	c-0.3,0.3-0.6,2.9-0.9,3.4c-3,5-6.1,7.9-9.1,12.9c-0.9,1.4-2.2,3-3.4,2c0.6,1.1,1.7,0.8,2.6,0.5c1.3-0.4,2.6-0.7,3.9-1.1
	c0.6-0.2,1.3-0.3,1.8,0.2c0.3,0.3,0.5,0.8,0.6,1.2c0.7,1.7,0.5,2.1,1.5,3.2c0.6-0.8,0.9-1,0.7-2.1c-0.1-0.8,0.1-1.6,0.4-2.3
	c0.9-2.4,2.1-4.5,3.6-6c1.3-1.3,2.8-2.4,3.4-4.4c0.2-0.5,0.3-1.1,0.6-1.4c0.4-0.4,1,0,1.3,0.7c0.2,0.6,0.3,1.4,0.2,2.1
	c-0.1,2.5-0.4,5-0.9,7.5c-0.2,0.9-0.4,1.7-0.4,2.7c0,0.9,0.3,1.9,0.9,2.2c0.1-3.1,1.9-5.4,2.6-8.4c0.3-1.2,0.3-2.4,0.6-3.6
	c0.2-1.2,0.7-2.4,1.5-2.8c0.7-0.4,1.5,0,2.2-0.4c0.8-0.4,1.4-1.5,1.9-2.6c0.8-1.6,1.7-3.1,2.9-3.9c1.4-1.1,3.1-1.1,4.7-1.2
	c0.2,0,0.5,0,0.6,0.2c0.2,0.2,0.2,0.6,0.2,0.9c0.1,3.5,0.2,4.9,0,8.5c-0.4-1.3-0.1-0.7,0.5-1.9c0.6-1.2,1.3-2.1,1.7-3.4
	c0.4-1.4,0.8-3.4,1.9-3.2c0.7,0.1,1.1,1.4,1.2,2.4c0.5,2.7,1,2.3,1.5,5c-0.3-0.9,0.4-1.1,0.9-1.8s1.1-1.2,1.5-1.9
	c1.1-2,0.4-2.9-0.4-5.2c-0.3-0.7-0.6-1.6-0.4-2.4c0.1-0.4,0.3-0.8,0.6-1.1c0.9-1.2,2-2.1,3.1-2.5c0.2-0.1,0.5-0.2,0.7-0.1
	c0.2,0.1,0.4,0.4,0.6,0.6c1.4,1.9,3.4,2.5,4.7,4.6c0.6,1,1,2.4,1.4,3.7c1.5,4.9,1.9,3.6,3.3,8.5c1.1-4.4-0.1-2.8,0.2-7.5
	c0-0.3,0.1-0.7,0.2-1c0.2-0.4,0.6-0.6,0.9-0.6c1.2-0.3,2.4,0.3,3.6,0.9c1.6,0.9,3.3,2.1,4.5,3.9c1.3,1.8,2.1,4.2,2.7,6.7
	c0.9,3.8,1.1,7.9,1.6,11.8c0.1,0.8,0.4,1.9,1,1.8c0-3.9-0.5-7.9-1.5-11.5c-0.6-2.2-0.6-4.6-1-6.8c1-0.6,2.1,0.6,3.2,1
	c0.5,0.2,1,0.2,1.6,0.3c1.9,0.5,3.6,2.7,4.2,5.5c0.2,0.9,0.2,1.8,0.3,2.7c0.2,2.3,0.3,4.6,0.4,6.8c0.1,1.9,0,3.8,0.4,5.6
	c-0.5-2.3,1.6-4.7,0.8-6.8c-0.1-0.3-0.3-0.6-0.4-0.9s0-0.8,0.2-0.9c1,1.8,1.8,3.8,2.3,5.9c0.6,2.3,1.8,4.8,3.5,5
	c0.6,0.1,1.2,0,1.8,0.3c0.2,0.1,0.4,0.3,0.6,0.4c0.2,0.1,0.5,0.2,0.7,0.2c0.8,0.1,1.6,0,2.4,0.1C95.1,52.3,96.4,52.5,97,53.3z"/>
<g>
	<path class="st9" d="M23.8,66.8c0-0.1,0.1-0.2,0.2-0.2h2.7c1.4,0,2.5,0.9,2.5,2.2c0,0.9-0.8,1.5-1.3,1.8c0.6,0.3,1.6,0.8,1.6,1.9
		c0,1.3-1.1,2.2-2.5,2.2H24c-0.1,0-0.2-0.1-0.2-0.2V66.8z M26.5,69.8c0.4,0,0.8-0.4,0.8-0.8c0-0.5-0.4-0.8-0.8-0.8h-0.9v1.6H26.5z
		 M26.6,73c0.5,0,0.8-0.4,0.8-0.8c0-0.5-0.5-0.8-0.9-0.8h-0.9V73H26.6z"/>
	<path class="st9" d="M32.4,69.9c1.2,0,2.2,0.9,2.2,2.2c0,0.1,0,0.2,0,0.3c0,0.1-0.1,0.2-0.2,0.2h-2.8c0,0.3,0.3,0.8,0.9,0.8
		c0.3,0,0.6-0.1,0.8-0.3c0.1-0.1,0.2-0.1,0.3,0l0.6,0.7c0.1,0.1,0.1,0.2,0,0.3c-0.4,0.4-1,0.7-1.7,0.7c-1.4,0-2.4-1.1-2.4-2.4
		C30,71,31,69.9,32.4,69.9z M33,71.7c0-0.3-0.3-0.5-0.6-0.5c-0.3,0-0.6,0.2-0.6,0.5H33z"/>
	<path class="st9" d="M35.4,67.7c0-0.5,0.4-0.9,0.9-0.9c0.5,0,0.9,0.4,0.9,0.9c0,0.5-0.4,0.9-0.9,0.9C35.8,68.6,35.4,68.2,35.4,67.7
		z M35.5,70.2c0-0.1,0.1-0.2,0.2-0.2h1.3c0.1,0,0.2,0.1,0.2,0.2v4.2c0,0.1-0.1,0.2-0.2,0.2h-1.3c-0.1,0-0.2-0.1-0.2-0.2V70.2z"/>
	<path class="st9" d="M38.6,71.5h-0.3c-0.1,0-0.2-0.1-0.2-0.2v-1c0-0.1,0.1-0.2,0.2-0.2h0.3v-1.3c0-0.1,0.1-0.2,0.2-0.2h1.2
		c0.1,0,0.2,0.1,0.2,0.2V70h0.9c0.1,0,0.2,0.1,0.2,0.2v1c0,0.1-0.1,0.2-0.2,0.2h-0.9v1.4c0,0.3,0.2,0.3,0.3,0.3
		c0.2,0,0.3-0.1,0.5-0.1c0.1,0,0.2,0,0.3,0.2l0.3,1c0,0.1,0,0.2-0.2,0.3c0,0-0.8,0.3-1.4,0.3c-0.9,0-1.4-0.6-1.4-1.6V71.5z"/>
	<path class="st9" d="M44.5,69.9c1.3,0,2.4,1.1,2.4,2.4c0,1.3-1.1,2.4-2.4,2.4S42,73.7,42,72.3C42,71,43.1,69.9,44.5,69.9z
		 M44.5,73.3c0.5,0,0.9-0.4,0.9-1c0-0.5-0.4-0.9-0.9-0.9s-0.9,0.4-0.9,0.9C43.5,72.9,43.9,73.3,44.5,73.3z"/>
	<path class="st9" d="M47.5,74.1l0.4-0.8c0-0.1,0.2-0.1,0.2-0.1c0,0,0.5,0.3,1,0.3c0.1,0,0.2-0.1,0.2-0.2c0-0.1-0.1-0.3-0.7-0.5
		c-0.9-0.3-1.3-0.8-1.3-1.6c0-0.8,0.6-1.4,1.8-1.4c0.7,0,1.3,0.2,1.5,0.4c0.1,0.1,0.2,0.2,0.1,0.3l-0.4,0.8c0,0.1-0.2,0.1-0.2,0.1
		c0,0-0.5-0.3-1-0.3c-0.2,0-0.3,0-0.3,0.2c0,0.1,0.1,0.2,0.5,0.4c0.9,0.3,1.6,0.7,1.6,1.6c0,0.8-0.6,1.5-2,1.5
		c-0.8,0-1.3-0.2-1.6-0.4C47.5,74.3,47.5,74.3,47.5,74.1z"/>
	<path class="st9" d="M52.2,71.5h-0.3c-0.1,0-0.2-0.1-0.2-0.2v-1c0-0.1,0.1-0.2,0.2-0.2h0.3v-1.3c0-0.1,0.1-0.2,0.2-0.2h1.2
		c0.1,0,0.2,0.1,0.2,0.2V70h0.9c0.1,0,0.2,0.1,0.2,0.2v1c0,0.1-0.1,0.2-0.2,0.2h-0.9v1.4c0,0.3,0.2,0.3,0.3,0.3
		c0.2,0,0.3-0.1,0.5-0.1c0.1,0,0.2,0,0.3,0.2l0.3,1c0,0.1,0,0.2-0.2,0.3c0,0-0.8,0.3-1.4,0.3c-0.9,0-1.4-0.6-1.4-1.6V71.5z"/>
	<path class="st9" d="M55.9,74.1l0.3-0.3c-0.3-0.4-0.5-0.9-0.5-1.5c0-1.3,1.1-2.4,2.4-2.4c0.5,0,1.1,0.2,1.5,0.5l0.3-0.3
		c0.1-0.1,0.2-0.1,0.3,0l0.1,0.1c0.1,0.1,0.1,0.2,0,0.3L60,70.9c0.3,0.4,0.5,0.9,0.5,1.5c0,1.3-1.1,2.5-2.4,2.5
		c-0.5,0-1.1-0.2-1.5-0.5l-0.3,0.3c-0.1,0.1-0.2,0.1-0.3,0l-0.1-0.1C55.8,74.3,55.8,74.2,55.9,74.1z M58.5,71.5
		c-0.1-0.1-0.3-0.1-0.4-0.1c-0.5,0-0.9,0.4-0.9,0.9c0,0.2,0,0.3,0.1,0.4L58.5,71.5z M58.1,73.3c0.5,0,0.9-0.4,0.9-1
		c0-0.1,0-0.3-0.1-0.4l-1.2,1.3C57.8,73.3,58,73.3,58.1,73.3z"/>
	<path class="st9" d="M61.4,66.8c0-0.1,0.1-0.2,0.2-0.2h1.3c0.1,0,0.2,0.1,0.2,0.2v7.7c0,0.1-0.1,0.2-0.2,0.2h-1.3
		c-0.1,0-0.2-0.1-0.2-0.2V66.8z"/>
	<path class="st9" d="M66.5,69.9c1.2,0,2.2,0.9,2.2,2.2c0,0.1,0,0.2,0,0.3c0,0.1-0.1,0.2-0.2,0.2h-2.8c0,0.3,0.3,0.8,0.9,0.8
		c0.3,0,0.6-0.1,0.8-0.3c0.1-0.1,0.2-0.1,0.3,0l0.6,0.7c0.1,0.1,0.1,0.2,0,0.3c-0.4,0.4-1,0.7-1.7,0.7c-1.4,0-2.4-1.1-2.4-2.4
		C64.1,71,65.1,69.9,66.5,69.9z M67,71.7c0-0.3-0.3-0.5-0.6-0.5c-0.3,0-0.6,0.2-0.6,0.5H67z"/>
	<path class="st9" d="M69.5,70.2c0-0.1,0.1-0.2,0.2-0.2h0.5c0.1,0,0.2,0.1,0.2,0.1l0.2,0.5c0.3-0.3,0.8-0.7,1.6-0.7
		c1.4,0,2.2,1.1,2.2,2.4v2.1c0,0.1-0.1,0.2-0.2,0.2H73c-0.1,0-0.2-0.1-0.2-0.2v-2.2c0-0.5-0.3-0.9-0.8-0.9c-0.5,0-0.9,0.3-0.9,0.8
		v2.2c0,0.1,0,0.2-0.2,0.2h-1.2c-0.1,0-0.2-0.1-0.2-0.2V70.2z"/>
</g>
<g>
	<path class="st10" d="M31.1,47.1L31.1,47.1l-0.2-0.3c-0.5-0.5-0.8-1-0.8-1.7c0-0.9,0.8-1.9,2.2-1.9c1.3,0,2.3,0.9,2.3,1.9
		c0,1.3-1.3,2-1.3,2l1,1.1c0.2-0.2,0.3-0.6,0.4-0.9c0.1-0.2,0.1-0.4,0.5-0.3l0.8,0.3c0.3,0.1,0.2,0.4,0.2,0.5
		c-0.3,0.8-0.7,1.4-0.7,1.4l1,0.9c0.2,0.1,0.3,0.2,0,0.5l-0.6,0.7c-0.1,0.1-0.3,0.2-0.5,0l-0.8-0.8c0,0-0.8,0.9-2.5,0.9
		c-1.5,0-2.5-1-2.5-2.2C29.5,47.8,31.1,47.1,31.1,47.1z M32.2,50.2c0.9,0,1.2-0.6,1.2-0.6L31.9,48c0,0-0.8,0.3-0.8,1.2
		C31.1,49.8,31.6,50.2,32.2,50.2z M33.1,45.4c0-0.4-0.4-0.7-0.9-0.7c-0.4,0-0.7,0.3-0.7,0.6c0,0.3,0.2,0.6,0.5,0.9l0.3,0.3
		C32.4,46.3,33.1,46,33.1,45.4z"/>
</g>
<g>
	<path class="st10" d="M15,62.1l1.1-1.9c0.2-0.3,0.6-0.3,0.8-0.1c0.1,0,1.8,1.3,3.3,1.3c0.9,0,1.6-0.6,1.6-1.4c0-1-0.8-1.7-2.4-2.3
		c-2-0.8-4.5-2.3-4.5-5.1c0-2.3,1.8-4.6,5.4-4.6c2.4,0,4.3,1.2,5,1.7c0.3,0.2,0.2,0.6,0.1,0.7l-1.2,1.8c-0.2,0.3-0.6,0.5-0.8,0.3
		c-0.2-0.1-1.9-1.4-3.3-1.4c-0.8,0-1.5,0.6-1.5,1.2c0,0.9,0.7,1.5,2.5,2.2c1.8,0.7,4.7,2.1,4.7,5.3c0,2.4-2.1,4.8-5.5,4.8
		c-3,0-4.7-1.3-5.2-1.8C14.9,62.5,14.8,62.5,15,62.1z"/>
	<path class="st10" d="M31.8,54.8c2.4,0,4.4,1.8,4.4,4.4c0,0.2,0,0.5,0,0.6c0,0.2-0.2,0.4-0.4,0.4h-5.6c0.1,0.6,0.6,1.5,1.8,1.5
		c0.6,0,1.3-0.3,1.6-0.6c0.2-0.2,0.4-0.2,0.6,0l1.2,1.4c0.1,0.2,0.2,0.5,0,0.7c-0.8,0.8-2,1.3-3.4,1.3c-2.8,0-4.8-2.2-4.8-4.9
		C27,57.1,29.1,54.8,31.8,54.8z M32.9,58.4c0-0.6-0.6-1.1-1.2-1.1c-0.6,0-1.2,0.5-1.3,1.1H32.9z"/>
	<path class="st10" d="M37.9,55.5c0-0.3,0.2-0.4,0.4-0.4h1.1c0.3,0,0.3,0.1,0.4,0.3l0.4,1c0.5-0.7,1.3-1.5,2.5-1.5
		c1.3,0,2.2,0.5,1.9,1l-1.1,1.9c-0.1,0.2-0.3,0.3-0.5,0.2c-0.1,0-0.3-0.1-0.6-0.1c-0.7,0-1.2,0.5-1.2,1.3v4.8c0,0.3-0.1,0.4-0.5,0.4
		h-2.4c-0.2,0-0.4-0.2-0.4-0.4V55.5z"/>
	<path class="st10" d="M45.3,55.7c-0.2-0.3,0-0.6,0.4-0.6h2.6c0.2,0,0.3,0.1,0.4,0.3l1.4,3.2c0,0,0,0,0.1,0l1.5-3.2
		c0.1-0.3,0.3-0.3,0.6-0.3h2.3c0.3,0,0.6,0.3,0.4,0.6l-4.4,8.6c-0.1,0.1-0.3,0.2-0.4,0.2H50c-0.1,0-0.3-0.1-0.4-0.2L45.3,55.7z"/>
	<path class="st10" d="M56.2,50.4c0-1,0.8-1.9,1.8-1.9c1,0,1.9,0.8,1.9,1.9S59,52.3,58,52.3C57,52.3,56.2,51.5,56.2,50.4z
		 M56.3,55.5c0-0.3,0.2-0.4,0.4-0.4h2.5c0.2,0,0.4,0.2,0.4,0.4v8.4c0,0.2-0.2,0.4-0.4,0.4h-2.5c-0.2,0-0.4-0.2-0.4-0.4V55.5z"/>
	<path class="st10" d="M66.5,54.8c1.5,0,2.6,0.6,3.5,1.7c0.2,0.2,0.1,0.5-0.1,0.6l-1.4,1.3c-0.1,0.1-0.4,0.1-0.5,0
		c-0.3-0.3-0.8-0.6-1.3-0.6c-1,0-1.9,0.9-1.9,1.9c0,1,0.8,1.9,1.8,1.9c0.8,0,1.2-0.3,1.6-0.7c0.2-0.2,0.4-0.2,0.5-0.1l1.4,1.2
		c0.2,0.2,0.3,0.4,0.2,0.6c-0.9,1.3-2.1,1.9-3.7,1.9c-2.6,0-5-2.1-5-4.9C61.5,57,63.9,54.8,66.5,54.8z"/>
	<path class="st10" d="M76.1,54.8c2.4,0,4.4,1.8,4.4,4.4c0,0.2,0,0.5,0,0.6c0,0.2-0.2,0.4-0.4,0.4h-5.6c0.1,0.6,0.6,1.5,1.8,1.5
		c0.6,0,1.3-0.3,1.6-0.6c0.2-0.2,0.4-0.2,0.6,0l1.2,1.4c0.1,0.2,0.2,0.5,0,0.7c-0.8,0.8-2,1.3-3.4,1.3c-2.8,0-4.8-2.2-4.8-4.9
		C71.3,57.1,73.3,54.8,76.1,54.8z M77.2,58.4c0-0.6-0.6-1.1-1.2-1.1c-0.6,0-1.2,0.5-1.3,1.1H77.2z"/>
</g>
<g>
	<g>
		<path class="st10" d="M38.4,31.1c0-0.2,0.2-0.4,0.4-0.4h6.9c2.8,0,5,2.2,5,5c0,2.1-1.4,3.8-3.4,4.7l3.2,5.9c0.2,0.3,0,0.7-0.4,0.7
			H47c-0.2,0-0.3-0.1-0.4-0.2l-3.1-6.1H42v5.9c0,0.2-0.2,0.4-0.4,0.4h-2.8c-0.3,0-0.4-0.2-0.4-0.4V31.1z M45.4,37.5
			c0.9,0,1.8-0.9,1.8-1.9c0-1-0.8-1.8-1.8-1.8H42v3.6H45.4z"/>
		<path class="st10" d="M52,45.7l0.6-0.6c-0.6-0.8-1-1.9-1-3c0-2.6,2.2-4.8,4.8-4.8c1.1,0,2.1,0.4,2.9,1l0.6-0.6
			c0.2-0.2,0.4-0.2,0.6,0l0.3,0.3c0.2,0.2,0.2,0.4,0,0.6l-0.6,0.6c0.6,0.8,1,1.8,1,2.9c0,2.7-2.2,4.9-4.8,4.9c-1.1,0-2.1-0.4-2.9-1
			L53,46.7c-0.2,0.2-0.4,0.1-0.6,0l-0.3-0.3C51.9,46.2,51.9,45.9,52,45.7z M57.2,40.5c-0.2-0.1-0.5-0.2-0.8-0.2
			c-1,0-1.8,0.8-1.8,1.8c0,0.3,0,0.6,0.2,0.8L57.2,40.5z M56.5,44.1c1,0,1.8-0.9,1.8-1.9c0-0.3-0.1-0.5-0.2-0.8l-2.5,2.5
			C55.9,44,56.2,44.1,56.5,44.1z"/>
		<path class="st10" d="M63.1,38c0-0.3,0.2-0.4,0.4-0.4h1.1c0.3,0,0.3,0.1,0.4,0.3l0.4,1c0.5-0.7,1.3-1.5,2.5-1.5
			c1.3,0,2.2,0.5,1.9,1l-1.1,1.9c-0.1,0.2-0.3,0.3-0.5,0.2c-0.1,0-0.3-0.1-0.6-0.1c-0.7,0-1.2,0.5-1.2,1.3v4.8
			c0,0.3-0.1,0.4-0.5,0.4h-2.4c-0.2,0-0.4-0.2-0.4-0.4V38z"/>
	</g>
</g>
<circle class="st11" cx="-47.5" cy="-91.5" r="46.5"/>
<polyline class="st12" points="-44,-109.3 -44,-74 -57,-62 -57,-123 -67,-133 -26,-92 -67,-51 "/>
<circle class="st13" cx="170" cy="27" r="25"/>
<polyline class="st13" points="171.4,17.9 171.4,36.9 164.4,43.4 164.4,10.6 159,5.2 181.1,27.2 159,49.3 "/>
<g>
	
		<ellipse transform="matrix(0.4767 -0.8791 0.8791 0.4767 99.1791 243.4729)" class="st14" cx="254.1" cy="38.4" rx="10.4" ry="23.4"/>
	<polygon class="st14" points="262.9,39.4 251.5,33.2 216.6,89 218.5,88.8 218.2,90.4 220,89.9 220.5,92.4 	"/>
</g>
<g>
</g>
<g>
</g>
<g>
</g>
<g>
</g>
<g>
</g>
<g>
</g>
<g>
</g>
<g>
</g>
<g>
</g>
<g>
</g>
<g>
</g>
<g>
</g>
<g>
</g>
<g>
</g>
<g>
</g>
</svg>
