<?xml version="1.0" encoding="utf-8"?>
<!-- Generator: Adobe Illustrator 23.0.2, SVG Export Plug-In . SVG Version: 6.00 Build 0)  -->
<svg version="1.1" id="Layer_1" xmlns="http://www.w3.org/2000/svg" xmlns:xlink="http://www.w3.org/1999/xlink" x="0px" y="0px"
	 viewBox="0 0 210 270" style="enable-background:new 0 0 210 270;" xml:space="preserve">
<style type="text/css">
	.st0{fill:#717D8E;stroke:#000000;stroke-width:0.7071;stroke-miterlimit:10;}
	.st1{fill:#6C757D;}
	.st2{fill:#0000FF;}
	.st3{stroke:#000000;stroke-width:1.1905;stroke-linecap:round;stroke-miterlimit:10;}
	.st4{fill:none;stroke:#000000;stroke-width:0.9243;stroke-linecap:round;stroke-miterlimit:10;}
	.st5{stroke:#000000;stroke-width:0.951;stroke-linecap:round;stroke-miterlimit:10;}
	.st6{fill:#FFFFFF;stroke:#000000;stroke-width:1.2054;stroke-linecap:round;stroke-miterlimit:10;}
	.st7{fill:none;}
	.st8{fill:#FFFFFF;}
	.st9{fill:#FFFFFF;stroke:#000000;stroke-width:1.4957;stroke-linecap:round;stroke-miterlimit:10;}
	.st10{fill:#FFFFFF;stroke:#6C757D;stroke-miterlimit:10;}
	.st11{fill:#132958;}
	.st12{fill:#FFFFFF;stroke:#000000;stroke-miterlimit:10;}
	.st13{fill:#F17722;}
	.st14{fill:#132958;stroke:#000000;stroke-width:0.7071;stroke-miterlimit:10;}
	.st15{fill:#B8D8F2;stroke:#000000;stroke-width:0.7071;stroke-miterlimit:10;}
	.st16{fill:#B8D8F2;stroke:#000000;stroke-width:0.6583;stroke-miterlimit:10;}
	.st17{fill:#B8D8F2;stroke:#000000;stroke-width:0.7;stroke-miterlimit:10;}
	.st18{fill:#FFFFFF;stroke:#000000;stroke-width:0.6953;stroke-miterlimit:10;}
	.st19{fill:none;stroke:#000000;stroke-width:0.125;stroke-miterlimit:10;}
	.st20{fill:#3F88BD;}
	.st21{fill:#999999;}
	.st22{fill:#F2F2F2;}
</style>
<ellipse transform="matrix(0.7071 -0.7071 0.7071 0.7071 524.525 796.3152)" class="st0" cx="1223.5" cy="-235" rx="5.3" ry="38.2"/>
<path d="M497.2-77h-43.5c-42.9,0-77.8-34.8-77.8-77.8v-18.5c0-42.9,34.8-77.8,77.8-77.8h43.5c42.9,0,77.8,34.8,77.8,77.8v18.5
	C575-111.8,540.2-77,497.2-77z"/>
<rect x="-493" y="-491.5" class="st1" width="130" height="103"/>
<rect x="-125" y="-202" width="104" height="83"/>
<g>
	<g>
		<g>
			<polygon class="st2" points="-324.3,98.2 -324,98.8 -324,98 -334,98 -334,170 -324,170 -324,118.5 -333,103.2 			"/>
		</g>
		<g>
			<polygon class="st2" points="-293,169 -293.8,170 -294,169.6 			"/>
		</g>
		<g>
			<polygon class="st2" points="-284,98 -294,98 -294,149.9 -285.1,165.1 -293.4,170 -284,170 			"/>
		</g>
		<g>
			<polygon class="st2" points="-294,149.9 -324,98 -333,103.2 -324,118.5 -294,169.6 -293.8,170 -293.4,170 -285.1,165.1 			"/>
		</g>
	</g>
	<g>
		<path class="st2" d="M-278.5,98c-0.2,0-0.3,0-0.5,0v9.5c0.2,0,0.3,0,0.5,0c14.7,0,26.5,11.9,26.5,26.5c0,14.7-11.9,26.5-26.5,26.5
			c-0.2,0-0.3,0-0.5,0v9.5c0.2,0,0.3,0,0.5,0c19.9,0,36-16.1,36-36S-258.6,98-278.5,98z"/>
	</g>
</g>
<path class="st3" d="M-231.9,112c0,0-1.5,2-3.6,2.5c-2.1,0.6-4.9-0.3-4.9-0.2c7.5,18.8,7.5,24.7,1.4,31.7
	c-12.9,15-53.5,4.6-131.8-28.9l0.1-0.4c81.5,41.6,123.3,51.2,137.4,34.8c3.3-3.8,5.9-8.3,6.8-14.4
	C-225.5,130.8-227.6,122.7-231.9,112"/>
<g>
	<g>
		<g>
			<polygon class="st2" points="-526.3,29.2 -526,29.8 -526,29 -536,29 -536,101 -526,101 -526,49.5 -535,34.2 			"/>
		</g>
		<g>
			<polygon class="st2" points="-495,100 -495.8,101 -496,100.6 			"/>
		</g>
		<g>
			<polygon class="st2" points="-486,29 -496,29 -496,80.9 -487.1,96.1 -495.4,101 -486,101 			"/>
		</g>
		<g>
			<polygon class="st2" points="-496,80.9 -526,29 -535,34.2 -526,49.5 -496,100.6 -495.8,101 -495.4,101 -487.1,96.1 			"/>
		</g>
	</g>
	<g>
		<path class="st2" d="M-480.5,29c-0.2,0-0.3,0-0.5,0v9.5c0.2,0,0.3,0,0.5,0c14.7,0,26.5,11.9,26.5,26.5c0,14.7-11.9,26.5-26.5,26.5
			c-0.2,0-0.3,0-0.5,0v9.5c0.2,0,0.3,0,0.5,0c19.9,0,36-16.1,36-36S-460.6,29-480.5,29z"/>
	</g>
</g>
<g>
	<circle class="st4" cx="-435.5" cy="35.6" r="6.5"/>
	<ellipse class="st4" cx="-435.5" cy="35.6" rx="3.9" ry="6.5"/>
	<line class="st4" x1="-435.5" y1="29.1" x2="-435.5" y2="42"/>
	<line class="st4" x1="-441.9" y1="35.6" x2="-429" y2="35.6"/>
	<line class="st4" x1="-441.1" y1="32.3" x2="-429.8" y2="32.3"/>
	<line class="st4" x1="-441.1" y1="38.8" x2="-429.8" y2="38.8"/>
</g>
<polyline class="st5" points="-542.6,32.4 -437.2,89 -437.9,48.8 -430.8,52.6 -429.3,100.7 -542.8,32.8 "/>
<g>
	<circle class="st6" cx="-53.5" cy="-160.4" r="8.4"/>
	<ellipse class="st6" cx="-53.5" cy="-160.4" rx="5.1" ry="8.4"/>
	<line class="st6" x1="-53.5" y1="-168.9" x2="-53.5" y2="-152"/>
	<line class="st6" x1="-61.9" y1="-160.4" x2="-45" y2="-160.4"/>
	<line class="st6" x1="-60.8" y1="-164.7" x2="-46.1" y2="-164.7"/>
	<line class="st6" x1="-60.8" y1="-156.2" x2="-46.1" y2="-156.2"/>
</g>
<polyline class="st5" points="-290.6,-119.6 -185.2,-63 -186.5,-102.5 -178.8,-106.4 -177.3,-51.3 -290.8,-119.2 "/>
<g>
	<polygon class="st7" points="-270.3,-124.8 -279,-119.8 -270.3,-124.8 	"/>
	<g>
		<polygon class="st2" points="-279,-119.8 -270.3,-124.8 -270.3,-124.8 -270,-125 -280,-125 -280,-53 -270,-53 -270,-61 
			-270,-104.5 		"/>
	</g>
	<g>
		<polygon class="st2" points="-240,-104 -240,-73.1 -231.1,-57.9 -239.4,-53 -230,-53 -230,-125 -240,-125 		"/>
	</g>
	<g>
		<polygon class="st2" points="-279,-119.8 -270,-104.5 -270,-124.2 -270.3,-124.8 		"/>
	</g>
	<g>
		<polygon class="st2" points="-265,-116.4 -265,-96 -245,-61.9 -245,-81.8 		"/>
	</g>
	<g>
		<polygon class="st2" points="-240,-73.1 -240,-53.4 -239.8,-53 -239.4,-53 -231.1,-57.9 		"/>
	</g>
	<g>
		<polygon class="st2" points="-270,-124.2 -270,-125 -270.3,-124.8 		"/>
	</g>
	<g>
		<path class="st2" d="M-224.5-125c-0.2,0-0.3,0-0.5,0v9.5c0.2,0,0.3,0,0.5,0c14.7,0,26.5,11.9,26.5,26.5
			c0,14.7-11.9,26.5-26.5,26.5c-0.2,0-0.3,0-0.5,0v9.5c0.2,0,0.3,0,0.5,0c19.9,0,36-16.1,36-36S-204.6-125-224.5-125z"/>
	</g>
</g>
<g>
	<polygon class="st8" points="-108.3,-195.8 -117,-190.8 -108.3,-195.8 	"/>
	<g>
		<polygon class="st8" points="-117,-190.8 -108.3,-195.8 -108.3,-195.8 -108,-196 -118,-196 -118,-124 -108,-124 -108,-132 
			-108,-175.5 		"/>
	</g>
	<g>
		<polygon class="st8" points="-78,-175 -78,-144.1 -69.1,-128.9 -77.4,-124 -68,-124 -68,-196 -78,-196 		"/>
	</g>
	<g>
		<polygon class="st8" points="-117,-190.8 -108,-175.5 -108,-195.2 -108.3,-195.8 		"/>
	</g>
	<g>
		<polygon class="st8" points="-103,-187.4 -103,-167 -83,-132.9 -83,-152.8 		"/>
	</g>
	<g>
		<polygon class="st8" points="-78,-144.1 -78,-124.4 -77.8,-124 -77.4,-124 -69.1,-128.9 		"/>
	</g>
	<g>
		<polygon class="st8" points="-108,-195.2 -108,-196 -108.3,-195.8 		"/>
	</g>
	<g>
		<path class="st8" d="M-62.5-196c-0.2,0-0.3,0-0.5,0v9.5c0.2,0,0.3,0,0.5,0c14.7,0,26.5,11.9,26.5,26.5c0,14.7-11.9,26.5-26.5,26.5
			c-0.2,0-0.3,0-0.5,0v9.5c0.2,0,0.3,0,0.5,0c19.9,0,36-16.1,36-36S-42.6-196-62.5-196z"/>
	</g>
</g>
<path d="M-26.8-238h-88.5c-4.3,0-7.8-3.5-7.8-7.8v-67.5c0-4.3,3.5-7.8,7.8-7.8h88.5c4.3,0,7.8,3.5,7.8,7.8v67.5
	C-19-241.5-22.5-238-26.8-238z"/>
<g>
	<circle class="st9" cx="-51.5" cy="-279.4" r="10.5"/>
	<ellipse class="st9" cx="-51.5" cy="-279.4" rx="6.3" ry="10.5"/>
	<line class="st9" x1="-51.5" y1="-289.9" x2="-51.5" y2="-269"/>
	<line class="st9" x1="-61.9" y1="-279.4" x2="-41" y2="-279.4"/>
	<line class="st9" x1="-60.6" y1="-284.7" x2="-42.3" y2="-284.7"/>
	<line class="st9" x1="-60.6" y1="-274.2" x2="-42.3" y2="-274.2"/>
</g>
<g>
	<polygon class="st8" points="-106.3,-314.8 -115,-309.8 -106.3,-314.8 	"/>
	<g>
		<polygon class="st8" points="-115,-309.8 -106.3,-314.8 -106.3,-314.8 -106,-315 -116,-315 -116,-243 -106,-243 -106,-251 
			-106,-294.5 		"/>
	</g>
	<g>
		<path class="st8" d="M-76-294v30.9l8.9,15.2l-8.3,4.9h9.4v-72h-9.9c0,0-0.1,0-0.1,0.1V-294z"/>
	</g>
	<g>
		<polygon class="st8" points="-115,-309.8 -106,-294.5 -106,-314.2 -106.3,-314.8 		"/>
	</g>
	<g>
		<polygon class="st8" points="-101,-306.4 -101,-286 -81,-251.9 -81,-271.8 		"/>
	</g>
	<g>
		<polygon class="st8" points="-76,-263.1 -76,-243 -75.8,-243 -75.4,-243 -67.1,-247.9 		"/>
	</g>
	<g>
		<polygon class="st8" points="-106,-314.2 -106,-315 -106.3,-314.8 		"/>
	</g>
	<g>
		<path class="st8" d="M-61-315v9.5c0.2,0,0.3,0,0.5,0c14.7,0,26.5,11.9,26.5,26.5c0,14.7-11.9,26.5-26.5,26.5c-0.2,0-0.3,0-0.5,0
			v9.5c20.1,0.3,36.5-16,36.5-36S-40.9-315.3-61-315z"/>
	</g>
</g>
<polygon class="st8" points="-473,-404 -463,-404 -463,-412 -463,-455.5 -463,-475.2 -463,-476 -473,-476 "/>
<path class="st8" d="M-433-475.9v20.9v30.9v20.1h0.2h0.4h9.4v-72L-433-475.9C-433-476-433-476-433-475.9z"/>
<polygon class="st8" points="-458,-447 -438,-412.9 -438,-432.8 -458,-467.4 "/>
<path class="st8" d="M-383.8-399h7.8v-7.8C-376-402.5-379.5-399-383.8-399z"/>
<path class="st8" d="M-472.2-482h-7.8v7.8C-480-478.5-476.5-482-472.2-482z"/>
<path class="st8" d="M-480-406.8v7.8h7.8C-476.5-399-480-402.5-480-406.8z"/>
<path class="st8" d="M-418-476v9.5c0.2,0,0.3,0,0.5,0c14.7,0,26.5,11.9,26.5,26.5c0,14.7-11.9,26.5-26.5,26.5c-0.2,0-0.3,0-0.5,0
	v9.5c20.1,0.3,36.5-16,36.5-36S-397.9-476.3-418-476z"/>
<path class="st8" d="M-383.8-482c4.3,0,7.8,3.5,7.8,7.8v-7.8H-383.8z"/>
<path d="M-117.8-401h-88.5c-4.3,0-7.8,3.5-7.8,7.8v67.5c0,4.3,3.5,7.8,7.8,7.8h88.5c4.3,0,7.8-3.5,7.8-7.8v-67.5
	C-110-397.5-113.5-401-117.8-401z M-197-394.2v19.8v43.5v8h-10v-72h10V-394.2z M-172-331.9l-20-34.1v-20.4l20,34.6V-331.9z
	 M-157-323h-9.4h-0.4h-0.2v-20.1V-374v-20.9c0,0,0-0.1,0.1-0.1h9.9V-323z M-151.6-364.7L-151.6-364.7c1.9-3.1,5.3-5.2,9.1-5.2
	s7.2,2.1,9.1,5.2h0.1h-0.1c0.9,1.5,1.4,3.3,1.4,5.2c0,1.9-0.5,3.7-1.4,5.2h0.1h-0.1c-1.8,3.1-5.2,5.2-9.1,5.2s-7.2-2.1-9.1-5.2h-0.1
	h0.1c-0.9-1.5-1.4-3.3-1.4-5.2C-152.9-361.3-152.4-363.1-151.6-364.7L-151.6-364.7z M-152-323v-9.5c0.2,0,0.3,0,0.5,0
	c14.7,0,26.5-11.9,26.5-26.5c0-14.7-11.9-26.5-26.5-26.5c-0.2,0-0.3,0-0.5,0v-9.5c20.1-0.3,36.5,16,36.5,36S-131.9-322.7-152-323z"
	/>
<path class="st10" d="M-402.2-440.4h4.2c0-1.9-0.5-3.7-1.4-5.2h-3.6C-402.5-444.1-402.2-442.3-402.2-440.4z"/>
<path class="st10" d="M-403-435.2h3.6c0.9-1.5,1.4-3.3,1.4-5.2h-4.2C-402.2-438.5-402.5-436.7-403-435.2z"/>
<path class="st10" d="M-414.8-440.4h-4.2c0,1.9,0.5,3.7,1.4,5.2h3.6C-414.4-436.7-414.8-438.5-414.8-440.4z"/>
<path class="st10" d="M-413.9-435.2h-3.6c1.8,3.1,5.2,5.2,9.1,5.2C-410.8-430-412.8-432.1-413.9-435.2z"/>
<path class="st10" d="M-408.5-430c3.9,0,7.2-2.1,9.1-5.2h-3.6C-404.1-432.1-406.1-430-408.5-430z"/>
<path class="st10" d="M-403-445.7h3.6c-1.8-3.1-5.2-5.2-9.1-5.2C-406.1-450.9-404.1-448.8-403-445.7z"/>
<path class="st10" d="M-408.5-450.9c-3.9,0-7.2,2.1-9.1,5.2h3.6C-412.8-448.8-410.8-450.9-408.5-450.9z"/>
<path class="st10" d="M-414.8-440.4c0-1.9,0.3-3.7,0.8-5.2h-3.6c-0.9,1.5-1.4,3.3-1.4,5.2H-414.8z"/>
<path class="st10" d="M-408.5-445.7h-5.4c-0.5,1.5-0.8,3.3-0.8,5.2h6.3V-445.7z"/>
<path class="st10" d="M-402.2-440.4c0-1.9-0.3-3.7-0.8-5.2h-5.4v5.2H-402.2z"/>
<path class="st10" d="M-408.5-435.2h5.4c0.5-1.5,0.8-3.3,0.8-5.2h-6.3V-435.2z"/>
<path class="st10" d="M-403-445.7c-1.1-3.1-3.1-5.2-5.4-5.2v5.2H-403z"/>
<path class="st10" d="M-408.5-435.2v-5.2h-6.3c0,1.9,0.3,3.7,0.8,5.2H-408.5z"/>
<path class="st10" d="M-413.9-435.2c1.1,3.1,3.1,5.2,5.4,5.2v-5.2H-413.9z"/>
<path class="st10" d="M-413.9-445.7h5.4v-5.2C-410.8-450.9-412.8-448.8-413.9-445.7z"/>
<path class="st10" d="M-403-435.2h-5.4v5.2C-406.1-430-404.1-432.1-403-435.2z"/>
<g>
	<rect x="-458.5" y="-395" class="st7" width="28.8" height="12.1"/>
</g>
<g>
</g>
<g>
	<path d="M-321.9-479.1h-2.5v-0.9h6v0.9h-2.5v7.2h-1.1V-479.1z"/>
	<path d="M-317.8-474.6c0,1.4,0.9,2,2,2c0.8,0,1.2-0.1,1.6-0.3l0.2,0.8c-0.4,0.2-1,0.4-1.9,0.4c-1.8,0-2.9-1.2-2.9-2.9
		c0-1.8,1-3.1,2.7-3.1c1.9,0,2.4,1.7,2.4,2.7c0,0.2,0,0.4,0,0.5H-317.8z M-314.7-475.4c0-0.7-0.3-1.7-1.5-1.7c-1.1,0-1.5,1-1.6,1.7
		H-314.7z"/>
	<path d="M-308.4-472.8L-308.4-472.8c-0.3,0.6-1,1-1.9,1c-1.4,0-2.5-1.2-2.5-2.9c0-2.2,1.4-3.1,2.6-3.1c0.9,0,1.5,0.4,1.8,1h0l0-0.9
		h1c0,0.5,0,1,0,1.6v6.6h-1.1V-472.8z M-308.4-475.3c0-0.1,0-0.3,0-0.4c-0.2-0.6-0.7-1.2-1.5-1.2c-1.1,0-1.8,0.9-1.8,2.2
		c0,1.2,0.6,2.2,1.7,2.2c0.7,0,1.3-0.4,1.5-1.2c0-0.1,0.1-0.3,0.1-0.5V-475.3z"/>
</g>
<g>
	<path d="M-330.9-454.3l-2.1-8.1h1.1l1,4.1c0.2,1,0.5,2,0.6,2.8h0c0.1-0.8,0.4-1.8,0.7-2.8l1.1-4.1h1.1l1,4.1c0.2,1,0.4,1.9,0.6,2.8
		h0c0.2-0.9,0.4-1.8,0.6-2.8l1.1-4.1h1.1l-2.3,8.1h-1.1l-1-4.2c-0.3-1-0.4-1.8-0.5-2.6h0c-0.1,0.8-0.3,1.6-0.6,2.6l-1.2,4.2H-330.9z
		"/>
	<path d="M-321.9-457c0,1.4,0.9,2,2,2c0.8,0,1.2-0.1,1.6-0.3l0.2,0.8c-0.4,0.2-1,0.4-1.9,0.4c-1.8,0-2.9-1.2-2.9-2.9
		c0-1.8,1-3.1,2.7-3.1c1.9,0,2.4,1.7,2.4,2.7c0,0.2,0,0.4,0,0.5H-321.9z M-318.8-457.7c0-0.7-0.3-1.7-1.5-1.7c-1.1,0-1.5,1-1.6,1.7
		H-318.8z"/>
	<path d="M-316.5-454.3c0-0.4,0-1,0-1.5v-7h1v3.6h0c0.4-0.6,1-1.1,2-1.1c1.4,0,2.5,1.2,2.4,3c0,2.1-1.3,3.1-2.6,3.1
		c-0.8,0-1.5-0.3-1.9-1.1h0l0,1H-316.5z M-315.4-456.6c0,0.1,0,0.3,0,0.4c0.2,0.7,0.8,1.2,1.6,1.2c1.1,0,1.8-0.9,1.8-2.2
		c0-1.2-0.6-2.2-1.7-2.2c-0.7,0-1.4,0.5-1.6,1.3c0,0.1-0.1,0.3-0.1,0.4V-456.6z"/>
</g>
<g>
	<path d="M-316.1-443.4v7c0,0.5,0,1.1,0,1.5h-0.9l0-1h0c-0.3,0.6-1,1.1-2,1.1c-1.4,0-2.5-1.2-2.5-3c0-1.9,1.2-3.1,2.6-3.1
		c0.9,0,1.5,0.4,1.8,0.9h0v-3.5H-316.1z M-317.1-438.4c0-0.1,0-0.3,0-0.4c-0.2-0.7-0.7-1.2-1.5-1.2c-1.1,0-1.7,1-1.7,2.2
		c0,1.2,0.6,2.1,1.7,2.1c0.7,0,1.4-0.5,1.5-1.3c0-0.1,0-0.3,0-0.5V-438.4z"/>
	<path d="M-313.7-437.6c0,1.4,0.9,2,2,2c0.8,0,1.2-0.1,1.6-0.3l0.2,0.8c-0.4,0.2-1,0.4-1.9,0.4c-1.8,0-2.9-1.2-2.9-2.9
		s1-3.1,2.7-3.1c1.9,0,2.4,1.7,2.4,2.7c0,0.2,0,0.4,0,0.5H-313.7z M-310.7-438.4c0-0.7-0.3-1.7-1.5-1.7c-1.1,0-1.5,1-1.6,1.7H-310.7
		z"/>
	<path d="M-307.9-440.7l1.1,3.3c0.2,0.5,0.3,1,0.5,1.5h0c0.1-0.5,0.3-1,0.5-1.5l1.1-3.3h1.1l-2.3,5.8h-1l-2.2-5.8H-307.9z"/>
</g>
<g>
	<path d="M-338.7-432.7c0.5-0.1,1.2-0.2,2-0.2c1,0,1.8,0.2,2.3,0.7c0.4,0.4,0.7,1,0.7,1.7c0,0.7-0.2,1.3-0.6,1.7
		c-0.6,0.6-1.5,0.9-2.5,0.9c-0.3,0-0.6,0-0.8-0.1v3.2h-1V-432.7z M-337.6-428.8c0.2,0.1,0.5,0.1,0.9,0.1c1.3,0,2-0.6,2-1.7
		c0-1.1-0.8-1.6-1.9-1.6c-0.5,0-0.8,0-1,0.1V-428.8z"/>
	<path d="M-332.5-428.7c0-0.7,0-1.3,0-1.8h0.9l0,1.1h0c0.3-0.8,0.9-1.3,1.6-1.3c0.1,0,0.2,0,0.3,0v1c-0.1,0-0.2,0-0.4,0
		c-0.7,0-1.3,0.6-1.4,1.4c0,0.1,0,0.3,0,0.5v3.1h-1V-428.7z"/>
	<path d="M-323.5-427.7c0,2.1-1.5,3.1-2.9,3.1c-1.6,0-2.8-1.2-2.8-3c0-1.9,1.3-3.1,2.9-3.1C-324.6-430.7-323.5-429.5-323.5-427.7z
		 M-328.1-427.6c0,1.3,0.7,2.2,1.8,2.2c1,0,1.8-0.9,1.8-2.3c0-1-0.5-2.2-1.7-2.2C-327.5-429.9-328.1-428.7-328.1-427.6z"/>
	<path d="M-321-431.9h-2.5v-0.9h6v0.9h-2.5v7.2h-1.1V-431.9z"/>
	<path d="M-316.9-427.4c0,1.4,0.9,2,2,2c0.8,0,1.2-0.1,1.6-0.3l0.2,0.8c-0.4,0.2-1,0.4-1.9,0.4c-1.8,0-2.9-1.2-2.9-2.9
		s1-3.1,2.7-3.1c1.9,0,2.4,1.7,2.4,2.7c0,0.2,0,0.4,0,0.5H-316.9z M-313.8-428.2c0-0.7-0.3-1.7-1.5-1.7c-1.1,0-1.5,1-1.6,1.7H-313.8
		z"/>
	<path d="M-307.5-425.6L-307.5-425.6c-0.3,0.6-1,1-1.9,1c-1.4,0-2.5-1.2-2.5-2.9c0-2.2,1.4-3.1,2.6-3.1c0.9,0,1.5,0.4,1.8,1h0l0-0.9
		h1c0,0.5,0,1,0,1.6v6.6h-1.1V-425.6z M-307.5-428.2c0-0.1,0-0.3,0-0.4c-0.2-0.6-0.7-1.2-1.5-1.2c-1.1,0-1.8,0.9-1.8,2.2
		c0,1.2,0.6,2.2,1.7,2.2c0.7,0,1.3-0.4,1.5-1.2c0-0.1,0.1-0.3,0.1-0.5V-428.2z"/>
</g>
<path d="M276-94.8v2.5c0,11.5,7.1,20.8,15.8,20.8h55.3c8.8,0,15.8-9.3,15.8-20.8v-2.5c0-11.5-7.1-20.8-15.8-20.8h-55.3
	C283.1-115.6,276-106.3,276-94.8z"/>
<g>
	<path class="st8" d="M453.6-130.1v8.4h3.6v8.7h-3.6c0,1.7,0.3,2.9,0.8,3.6c0.5,0.7,1.5,1,3,1v8.6c-0.4,0-0.7,0-0.9,0
		c-1.8,0-3.6-0.4-5.2-1.3s-2.9-2-3.9-3.5c-1.2-1.9-1.9-4.4-1.9-7.5v-18H453.6z"/>
	<path class="st8" d="M482.5-109.7h-12.3c-0.2-0.6-0.3-1.2-0.3-1.7c0-0.7,0.1-1.5,0.4-2.2h4.1c-0.3-1.6-1.2-2.4-2.7-2.4
		c-1,0-1.8,0.4-2.5,1.3s-1,2-1,3.4c0,1.4,0.3,2.6,0.9,3.4c0.6,0.9,1.4,1.3,2.4,1.3c0.8,0,1.6-0.4,2.3-1.2l4.6,5.6
		c-2.2,1.7-4.5,2.6-7.2,2.6c-3.2,0-5.9-1.1-8.1-3.3s-3.3-4.9-3.3-8.1c0-3.2,1.1-5.9,3.3-8.1c2.2-2.2,4.9-3.3,8.1-3.3
		c3.1,0,5.8,1.1,7.9,3.2c2.1,2.2,3.2,4.8,3.2,8C482.5-110.9,482.5-110.4,482.5-109.7z"/>
	<path class="st8" d="M499.1-92v-18c0-2.9-1-4.4-3.1-4.4c-0.9,0-1.6,0.3-2.2,0.9c-0.6,0.6-0.9,1.3-0.9,2.2s0.3,1.6,0.9,2.2
		c0.6,0.6,1.3,0.9,2.2,0.9c0.7,0,1.3-0.3,2-0.8v9.1c-1,0.1-1.7,0.2-2.2,0.2c-3,0-5.6-1.1-7.8-3.4c-2.2-2.3-3.3-4.9-3.3-8
		c0-3.2,1.1-5.9,3.3-8.1s4.9-3.3,8.2-3.3c1.6,0,3.2,0.4,4.7,1.1s2.8,1.7,3.8,2.9c1.7,2.1,2.6,4.8,2.6,8.2V-92H499.1z"/>
</g>
<g>
	<path class="st11" d="M845.3-450.2v-58.9c0-9.6-3.4-14.3-10.3-14.3c-2.8,0-5.2,1-7.3,3c-2,2-3.1,4.4-3.1,7.2c0,2.8,1,5.3,3,7.3
		c2,2.1,4.3,3.1,7.1,3.1c2.1,0,4.3-0.9,6.5-2.7v29.7c-3.1,0.3-5.5,0.5-7.1,0.5c-9.9,0-18.4-3.7-25.6-11.1
		c-7.2-7.4-10.8-16.2-10.8-26.4c0-10.5,3.6-19.3,10.9-26.5c7.3-7.2,16.2-10.8,26.7-10.8c5.3,0,10.5,1.2,15.5,3.5
		c5,2.4,9.2,5.5,12.5,9.5c5.7,6.9,8.5,15.9,8.5,26.9v59.9H845.3z"/>
</g>
<g>
	<path class="st12" d="M755.4-137.5h-26.6v-59.9c0-11,2.8-19.9,8.5-26.9c3.3-4,7.4-7.2,12.5-9.5c5-2.4,10.2-3.5,15.5-3.5
		c10.6,0,19.5,3.6,26.7,10.8c7.3,7.2,10.9,16,10.9,26.5c0,10.2-3.6,19-10.8,26.4c-7.2,7.4-15.7,11.1-25.6,11.1c-1.6,0-4-0.2-7.1-0.5
		v-29.7c2.2,1.8,4.4,2.7,6.5,2.7c2.7,0,5.1-1,7.1-3.1c2-2.1,3-4.5,3-7.3c0-2.8-1-5.2-3.1-7.2c-2-2-4.5-3-7.3-3
		c-6.8,0-10.2,4.8-10.2,14.3V-137.5z"/>
</g>
<g>
	<path class="st11" d="M850.3-137.2v-58.9c0-9.6-3.4-14.3-10.3-14.3c-2.8,0-5.2,1-7.3,3c-2,2-3.1,4.4-3.1,7.2c0,2.8,1,5.3,3,7.3
		c2,2.1,4.3,3.1,7.1,3.1c2.1,0,4.3-0.9,6.5-2.7v29.7c-3.1,0.3-5.5,0.5-7.1,0.5c-9.9,0-18.4-3.7-25.6-11.1
		c-7.2-7.4-10.8-16.2-10.8-26.4c0-10.5,3.6-19.3,10.9-26.5c7.3-7.2,16.2-10.8,26.7-10.8c5.3,0,10.5,1.2,15.5,3.5
		c5,2.4,9.2,5.5,12.5,9.5c5.7,6.9,8.5,15.9,8.5,26.9v59.9H850.3z"/>
</g>
<path d="M275-138.8v2.5c0,11.5,7.1,20.8,15.8,20.8h55.3c8.8,0,15.8-9.3,15.8-20.8v-2.5c0-11.5-7.1-20.8-15.8-20.8h-55.3
	C282.1-159.6,275-150.3,275-138.8z"/>
<g>
	<path class="st8" d="M294.1-120.4H286v-18.3c0-3.4,0.9-6.1,2.6-8.2c1-1.2,2.3-2.2,3.8-2.9c1.5-0.7,3.1-1.1,4.7-1.1
		c3.2,0,5.9,1.1,8.2,3.3s3.3,4.9,3.3,8.1c0,3.1-1.1,5.8-3.3,8s-4.8,3.4-7.8,3.4c-0.5,0-1.2-0.1-2.2-0.2v-9.1c0.7,0.5,1.3,0.8,2,0.8
		c0.8,0,1.6-0.3,2.2-0.9s0.9-1.4,0.9-2.2s-0.3-1.6-0.9-2.2c-0.6-0.6-1.4-0.9-2.2-0.9c-2.1,0-3.1,1.5-3.1,4.4V-120.4z"/>
	<path class="st8" d="M324-150.6v8.8c-0.6-0.3-1.1-0.5-1.5-0.5c-1.5,0-2.2,1.1-2.2,3.4v10.4h-8.1v-12c0-3.2,0.9-5.7,2.6-7.6
		c1.7-1.9,4-2.8,6.8-2.8C322.2-150.9,323-150.8,324-150.6z"/>
	<path class="st8" d="M336.7-150.9c3.1,0,5.7,1.1,7.9,3.4c2.2,2.2,3.3,4.9,3.3,8c0,3.2-1.1,5.9-3.3,8.1c-2.2,2.2-4.9,3.3-8,3.3
		c-3.1,0-5.8-1.1-8-3.4c-2.2-2.2-3.3-4.9-3.3-8.1c0-3.2,1.1-5.9,3.3-8.1C330.7-149.8,333.4-150.9,336.7-150.9z M336.5-142.8
		c-0.9,0-1.6,0.3-2.2,1c-0.6,0.6-0.9,1.4-0.9,2.3c0,0.9,0.3,1.7,0.9,2.3c0.6,0.6,1.3,1,2.2,1c0.9,0,1.6-0.3,2.2-1
		c0.6-0.6,0.9-1.4,0.9-2.3c0-0.9-0.3-1.7-0.9-2.3C338.1-142.5,337.3-142.8,336.5-142.8z"/>
</g>
<g>
	<path d="M-269.1-489.6v4.1h-0.8v-8.7c0-0.6,0-1.3,0-1.8h0.7c0,0.3,0,0.7,0,1.3c0.5-0.9,1.3-1.5,2.6-1.5c1.8,0,3,1.5,3,3.7
		c0,2.7-1.4,4.1-3.3,4.1C-268.1-488.4-268.8-488.9-269.1-489.6z M-264.3-492.4c0-1.7-0.8-3-2.3-3c-1.8,0-2.6,1.1-2.6,3.2
		c0,2,0.6,3.3,2.5,3.3C-265.2-489.1-264.3-490.4-264.3-492.4z"/>
	<path d="M-261.6-494c0-1.3,0-1.8,0-2h0.7c0,0.2,0,0.7,0,1.7c0.4-1.1,1.4-1.8,2.6-1.9v0.8c-1.6,0.1-2.6,1.2-2.6,3v3.9h-0.8V-494z"/>
	<path d="M-250.8-492.3c0,2.1-1.2,3.9-3.4,3.9c-2,0-3.3-1.7-3.3-3.9c0-2.1,1.2-3.9,3.4-3.9C-252.1-496.2-250.8-494.7-250.8-492.3z
		 M-256.7-492.3c0,1.8,1,3.2,2.5,3.2c1.6,0,2.5-1.3,2.5-3.2c0-1.8-0.9-3.2-2.6-3.2C-255.9-495.5-256.7-494.1-256.7-492.3z"/>
	<path d="M-248.6-488.5v-6.8h-1.3v-0.7h1.3v-1.1c0-1.3,0.4-2.6,2-2.6c0.2,0,0.6,0,0.7,0.1v0.7c-0.2-0.1-0.6-0.1-0.8-0.1
		c-0.9,0-1.2,0.6-1.2,1.9v1h1.6v0.7h-1.6v6.8H-248.6z"/>
	<path d="M-244.9-492.2c0,1.9,1,3.1,2.4,3.1c1.4,0,1.9-0.8,2.2-1.4h0.8c-0.3,1-1.1,2.1-3,2.1c-2.3,0-3.2-2-3.2-3.9
		c0-2.1,1.1-4,3.3-4c2.3,0,3,2,3,3.4c0,0.2,0,0.4,0,0.6H-244.9z M-240.1-492.9c0-1.5-0.8-2.7-2.3-2.7c-1.5,0-2.3,1.1-2.4,2.7H-240.1
		z"/>
	<path d="M-237.4-490.6c0.3,1,0.9,1.6,2.1,1.6c1.3,0,1.9-0.6,1.9-1.5c0-0.9-0.4-1.3-2-1.7c-1.9-0.5-2.4-1-2.4-2c0-1,0.8-2,2.5-2
		s2.5,1,2.6,2.1h-0.8c-0.1-0.6-0.6-1.4-1.9-1.4c-1.3,0-1.7,0.6-1.7,1.2c0,0.7,0.4,1,1.8,1.4c2.1,0.5,2.6,1.2,2.6,2.3
		c0,1.4-1.1,2.2-2.7,2.2c-1.7,0-2.7-0.9-2.9-2.3H-237.4z"/>
	<path d="M-230.5-490.6c0.3,1,0.9,1.6,2.1,1.6c1.3,0,1.9-0.6,1.9-1.5c0-0.9-0.4-1.3-2-1.7c-1.9-0.5-2.4-1-2.4-2c0-1,0.8-2,2.5-2
		s2.5,1,2.6,2.1h-0.8c-0.1-0.6-0.6-1.4-1.9-1.4c-1.3,0-1.7,0.6-1.7,1.2c0,0.7,0.4,1,1.8,1.4c2.1,0.5,2.6,1.2,2.6,2.3
		c0,1.4-1.1,2.2-2.7,2.2c-1.7,0-2.7-0.9-2.9-2.3H-230.5z"/>
	<path d="M-223.9-499.6h0.8v1.5h-0.8V-499.6z M-223.9-496h0.8v7.5h-0.8V-496z"/>
	<path d="M-214.6-492.3c0,2.1-1.2,3.9-3.4,3.9c-2,0-3.3-1.7-3.3-3.9c0-2.1,1.2-3.9,3.4-3.9C-215.9-496.2-214.6-494.7-214.6-492.3z
		 M-220.5-492.3c0,1.8,1,3.2,2.5,3.2c1.6,0,2.5-1.3,2.5-3.2c0-1.8-0.9-3.2-2.6-3.2C-219.6-495.5-220.5-494.1-220.5-492.3z"/>
	<path d="M-212.7-494.1c0-0.7,0-1.3,0-1.9h0.7c0,0.2,0,1.2,0,1.4c0.3-0.8,0.9-1.6,2.5-1.6c1.3,0,2.5,0.8,2.5,2.8v4.9h-0.7v-4.7
		c0-1.3-0.6-2.2-1.9-2.2c-1.8,0-2.4,1.5-2.4,3.1v3.8h-0.8V-494.1z"/>
	<path d="M-199.4-490c0,0.7,0.1,1.2,0.1,1.4h-0.7c-0.1-0.2-0.1-0.5-0.1-1.2c-0.3,0.6-0.9,1.3-2.5,1.3c-1.7,0-2.5-1.1-2.5-2.3
		c0-1.6,1.3-2.4,3.5-2.4c0.6,0,1.1,0,1.4,0v-0.8c0-0.8-0.2-1.8-1.9-1.8c-1.5,0-1.7,0.8-1.9,1.4h-0.8c0.1-0.8,0.6-2.1,2.7-2.1
		c1.7,0,2.7,0.7,2.7,2.4V-490z M-200.2-492.4c-0.3,0-1,0-1.5,0c-1.7,0-2.7,0.4-2.7,1.7c0,0.9,0.7,1.6,1.7,1.6c2.1,0,2.4-1.4,2.4-3
		V-492.4z"/>
	<path d="M-197-488.5v-11.1h0.8v11.1H-197z"/>
	<path d="M-271-478h1.4v-2.3h0.8v2.3h1.8v0.7h-1.8v4.9c0,0.8,0.2,1.3,0.9,1.3c0.2,0,0.5,0,0.8-0.1v0.7c-0.3,0.1-0.6,0.1-0.9,0.1
		c-1,0-1.5-0.5-1.5-1.7v-5.2h-1.4V-478z"/>
	<path d="M-265.5-474.2c0,1.9,1,3.1,2.4,3.1c1.4,0,1.9-0.8,2.2-1.4h0.8c-0.3,1-1.1,2.1-3,2.1c-2.3,0-3.2-2-3.2-3.9
		c0-2.1,1.1-4,3.3-4c2.3,0,3,2,3,3.4c0,0.2,0,0.4,0,0.6H-265.5z M-260.7-474.9c0-1.5-0.8-2.7-2.3-2.7c-1.5,0-2.3,1.1-2.4,2.7H-260.7
		z"/>
	<path d="M-253-471.8c-0.4,0.9-1.1,1.5-2.6,1.5c-1.7,0-3.1-1.4-3.1-3.8c0-2.6,1.5-4,3.3-4c1.5,0,2.2,0.8,2.4,1.3c0-0.3,0-0.7,0-1.1
		h0.7c0,0.9,0,1.4,0,2.1v8.4h-0.7V-471.8z M-257.8-474.2c0,1.6,0.8,3.2,2.4,3.2c1.9,0,2.5-1.2,2.5-3.3c0-2-0.5-3.2-2.4-3.2
		C-257-477.5-257.8-476.1-257.8-474.2z"/>
	<path d="M-249.8-476.1c0-0.7,0-1.3,0-1.9h0.7c0,0.2,0,1.2,0,1.4c0.3-0.8,0.9-1.6,2.5-1.6c1.3,0,2.5,0.8,2.5,2.8v4.9h-0.8v-4.7
		c0-1.3-0.6-2.2-1.9-2.2c-1.8,0-2.4,1.5-2.4,3.1v3.8h-0.8V-476.1z"/>
	<path d="M-235.5-474.3c0,2.1-1.2,3.9-3.4,3.9c-2,0-3.3-1.7-3.3-3.9c0-2.1,1.2-3.9,3.4-3.9C-236.8-478.2-235.5-476.7-235.5-474.3z
		 M-241.4-474.3c0,1.8,1,3.2,2.5,3.2c1.6,0,2.5-1.3,2.5-3.2c0-1.8-0.9-3.2-2.6-3.2C-240.6-477.5-241.4-476.1-241.4-474.3z"/>
	<path d="M-233.6-470.5v-11.1h0.8v11.1H-233.6z"/>
	<path d="M-224.4-474.3c0,2.1-1.2,3.9-3.4,3.9c-2,0-3.3-1.7-3.3-3.9c0-2.1,1.2-3.9,3.4-3.9C-225.7-478.2-224.4-476.7-224.4-474.3z
		 M-230.2-474.3c0,1.8,1,3.2,2.5,3.2c1.6,0,2.5-1.3,2.5-3.2c0-1.8-0.9-3.2-2.6-3.2C-229.4-477.5-230.2-476.1-230.2-474.3z"/>
	<path d="M-216.7-471c0,2.4-1.1,3.7-3.2,3.7c-1.9,0-2.8-1.1-2.9-2.2h0.8c0.3,1,1.1,1.5,2.2,1.5c1.9,0,2.5-1.3,2.5-3.2v-0.8
		c-0.4,1-1.1,1.5-2.5,1.5c-1.8,0-3.1-1.4-3.1-3.8c0-2.5,1.4-3.9,3.2-3.9c1.5,0,2.2,0.7,2.4,1.3c0-0.4,0-1,0-1.1h0.7
		c0,0.3,0,1.5,0,2.2V-471z M-222.2-474.3c0,1.8,0.9,3.1,2.4,3.1c1.9,0,2.4-1.2,2.4-3.2c0-2-0.6-3.1-2.4-3.1
		C-221.5-477.5-222.2-476-222.2-474.3z"/>
	<path d="M-214.2-481.6h0.8v1.5h-0.8V-481.6z M-214.2-478h0.8v7.5h-0.8V-478z"/>
	<path d="M-210.8-474.2c0,1.9,1,3.1,2.4,3.1c1.4,0,1.9-0.8,2.2-1.4h0.8c-0.3,1-1.1,2.1-3,2.1c-2.3,0-3.2-2-3.2-3.9
		c0-2.1,1.1-4,3.3-4c2.3,0,3,2,3,3.4c0,0.2,0,0.4,0,0.6H-210.8z M-206.1-474.9c0-1.5-0.8-2.7-2.3-2.7c-1.5,0-2.3,1.1-2.4,2.7H-206.1
		z"/>
	<path d="M-203.3-472.6c0.3,1,0.9,1.6,2.1,1.6c1.3,0,1.9-0.6,1.9-1.5c0-0.9-0.4-1.3-2-1.7c-1.9-0.5-2.4-1-2.4-2c0-1,0.8-2,2.5-2
		s2.5,1,2.6,2.1h-0.8c-0.1-0.6-0.6-1.4-1.9-1.4c-1.3,0-1.7,0.6-1.7,1.2c0,0.7,0.4,1,1.8,1.4c2.1,0.5,2.6,1.2,2.6,2.3
		c0,1.4-1.1,2.2-2.7,2.2c-1.7,0-2.7-0.9-2.9-2.3H-203.3z"/>
</g>
<path d="M-421-549.8v2.6c0,11.7,9.5,21.1,21.1,21.1h73.7c11.7,0,21.1-9.5,21.1-21.1v-2.6c0-11.7-9.5-21.1-21.1-21.1h-73.7
	C-411.5-570.9-421-561.5-421-549.8z"/>
<g>
	<path class="st8" d="M-381.4-558.8v6.5c-0.4-0.2-0.8-0.4-1.1-0.4c-1.1,0-1.7,0.8-1.7,2.5v7.7h-6.1v-8.8c0-2.3,0.6-4.2,1.9-5.6
		c1.3-1.4,3-2.1,5.1-2.1C-382.8-559-382.2-558.9-381.4-558.8z"/>
	<path class="st8" d="M-372-559c2.3,0,4.2,0.8,5.9,2.5c1.6,1.6,2.5,3.6,2.5,5.9c0,2.3-0.8,4.3-2.5,6c-1.7,1.6-3.7,2.5-6,2.5
		c-2.3,0-4.3-0.8-6-2.5c-1.7-1.6-2.5-3.6-2.5-5.9c0-2.4,0.8-4.4,2.5-6C-376.5-558.2-374.4-559-372-559z M-372.1-553
		c-0.6,0-1.2,0.2-1.7,0.7s-0.7,1-0.7,1.7c0,0.7,0.2,1.2,0.7,1.7c0.5,0.5,1,0.7,1.6,0.7c0.6,0,1.2-0.2,1.7-0.7c0.5-0.5,0.7-1,0.7-1.7
		c0-0.7-0.2-1.3-0.7-1.7S-371.5-553-372.1-553z"/>
	<path class="st8" d="M-355.7-564.6v6.2h2.7v6.4h-2.7c0,1.3,0.2,2.2,0.6,2.7c0.4,0.5,1.1,0.7,2.2,0.7v6.4c-0.3,0-0.5,0-0.7,0
		c-1.4,0-2.7-0.3-3.9-1s-2.2-1.5-2.9-2.6c-0.9-1.4-1.4-3.2-1.4-5.5v-13.3H-355.7z"/>
	<path class="st8" d="M-334.2-549.6h-9.2c-0.1-0.5-0.2-0.9-0.2-1.3c0-0.5,0.1-1.1,0.3-1.6h3.1c-0.2-1.2-0.9-1.8-2-1.8
		c-0.8,0-1.4,0.3-1.8,1c-0.5,0.6-0.7,1.5-0.7,2.5c0,1,0.2,1.9,0.7,2.5c0.5,0.6,1.1,1,1.8,1c0.6,0,1.2-0.3,1.7-0.9l3.4,4.1
		c-1.6,1.3-3.4,1.9-5.4,1.9c-2.4,0-4.4-0.8-6-2.4s-2.4-3.6-2.4-6c0-2.4,0.8-4.4,2.5-6c1.6-1.6,3.7-2.4,6.1-2.4
		c2.3,0,4.3,0.8,5.9,2.4c1.6,1.6,2.4,3.6,2.4,5.9C-334.1-550.5-334.1-550.1-334.2-549.6z"/>
</g>
<g>
	<path class="st13" d="M-403.2-536.7h-6.1v-13.5c0-2.5,0.6-4.5,1.9-6c0.7-0.9,1.7-1.6,2.8-2.1s2.3-0.8,3.5-0.8
		c2.4,0,4.4,0.8,6.1,2.4c1.7,1.6,2.5,3.6,2.5,6c0,2.3-0.8,4.3-2.5,5.9c-1.6,1.7-3.6,2.5-5.8,2.5c-0.4,0-0.9,0-1.6-0.1v-6.7
		c0.5,0.4,1,0.6,1.5,0.6c0.6,0,1.2-0.2,1.6-0.7c0.4-0.5,0.7-1,0.7-1.7s-0.2-1.2-0.7-1.6s-1-0.7-1.7-0.7c-1.6,0-2.3,1.1-2.3,3.2
		V-536.7z"/>
</g>
<g>
	<path class="st13" d="M-321.2-536v-13.2c0-2.1-0.8-3.2-2.3-3.2c-0.6,0-1.2,0.2-1.7,0.7s-0.7,1-0.7,1.6s0.2,1.2,0.7,1.7
		c0.4,0.5,1,0.7,1.6,0.7c0.5,0,1-0.2,1.5-0.6v6.7c-0.7,0.1-1.3,0.1-1.6,0.1c-2.2,0-4.2-0.8-5.8-2.5c-1.6-1.7-2.5-3.6-2.5-5.9
		c0-2.4,0.8-4.3,2.5-6c1.7-1.6,3.7-2.4,6.1-2.4c1.2,0,2.4,0.3,3.5,0.8s2.1,1.2,2.8,2.1c1.3,1.6,1.9,3.6,1.9,6v13.5H-321.2z"/>
</g>
<g>
</g>
<ellipse transform="matrix(0.7071 -0.7071 0.7071 0.7071 472.0762 679.6929)" class="st0" cx="1056.5" cy="-230" rx="5.3" ry="38.2"/>
<ellipse transform="matrix(0.7071 -0.7071 0.7071 0.7071 467.8336 681.4503)" class="st0" cx="1056.5" cy="-224" rx="5.3" ry="38.2"/>
<ellipse transform="matrix(0.7071 -0.7071 0.7071 0.7071 463.591 683.2076)" class="st0" cx="1056.5" cy="-218" rx="5.3" ry="38.2"/>
<ellipse transform="matrix(0.7071 -0.7071 0.7071 0.7071 459.3483 684.965)" class="st0" cx="1056.5" cy="-212" rx="5.3" ry="38.2"/>
<ellipse transform="matrix(0.7071 -0.7071 0.7071 0.7071 455.1057 686.7223)" class="st0" cx="1056.5" cy="-206" rx="5.3" ry="38.2"/>
<ellipse transform="matrix(0.7071 -0.7071 0.7071 0.7071 450.863 688.4797)" class="st0" cx="1056.5" cy="-200" rx="5.3" ry="38.2"/>
<ellipse transform="matrix(0.7071 -0.7071 0.7071 0.7071 446.6204 690.237)" class="st0" cx="1056.5" cy="-194" rx="5.3" ry="38.2"/>
<ellipse transform="matrix(0.7071 -0.7071 0.7071 0.7071 442.3777 691.9944)" class="st0" cx="1056.5" cy="-188" rx="5.3" ry="38.2"/>
<ellipse transform="matrix(0.7071 -0.7071 0.7071 0.7071 438.1351 693.7518)" class="st0" cx="1056.5" cy="-182" rx="5.3" ry="38.2"/>
<ellipse transform="matrix(0.7071 -0.7071 0.7071 0.7071 433.8925 695.5091)" class="st0" cx="1056.5" cy="-176" rx="5.3" ry="38.2"/>
<ellipse transform="matrix(0.7071 -0.7071 0.7071 0.7071 429.6498 697.2665)" class="st0" cx="1056.5" cy="-170" rx="5.3" ry="38.2"/>
<ellipse transform="matrix(0.7071 -0.7071 0.7071 0.7071 425.4072 699.0238)" class="st0" cx="1056.5" cy="-164" rx="5.3" ry="38.2"/>
<ellipse transform="matrix(0.7071 -0.7071 0.7071 0.7071 421.1646 700.7812)" class="st0" cx="1056.5" cy="-158" rx="5.3" ry="38.2"/>
<ellipse transform="matrix(0.7071 -0.7071 0.7071 0.7071 418.3361 701.9528)" class="st0" cx="1056.5" cy="-154" rx="5.3" ry="38.2"/>
<ellipse transform="matrix(0.7071 -0.7071 0.7071 0.7071 415.9219 702.1243)" class="st0" cx="1055.5" cy="-151" rx="5.3" ry="38.2"/>
<ellipse transform="matrix(0.7071 -0.7071 0.7071 0.7071 413.629 700.5888)" class="st0" cx="1052.5" cy="-149" rx="5.3" ry="38.2"/>
<ellipse transform="matrix(0.7071 -0.7071 0.7071 0.7071 411.8717 696.3461)" class="st0" cx="1046.5" cy="-149" rx="5.3" ry="38.2"/>
<ellipse transform="matrix(0.7071 -0.7071 0.7071 0.7071 410.1143 692.1035)" class="st0" cx="1040.5" cy="-149" rx="5.3" ry="38.2"/>
<ellipse transform="matrix(0.7071 -0.7071 0.7071 0.7071 408.3569 687.8609)" class="st0" cx="1034.5" cy="-149" rx="5.3" ry="38.2"/>
<ellipse transform="matrix(0.7071 -0.7071 0.7071 0.7071 406.5996 683.6182)" class="st0" cx="1028.5" cy="-149" rx="5.3" ry="38.2"/>
<ellipse transform="matrix(0.7071 -0.7071 0.7071 0.7071 404.8422 679.3756)" class="st0" cx="1022.5" cy="-149" rx="5.3" ry="38.2"/>
<ellipse transform="matrix(0.7071 -0.7071 0.7071 0.7071 403.0849 675.1329)" class="st0" cx="1016.5" cy="-149" rx="5.3" ry="38.2"/>
<ellipse transform="matrix(0.7071 -0.7071 0.7071 0.7071 401.3275 670.8903)" class="st0" cx="1010.5" cy="-149" rx="5.3" ry="38.2"/>
<ellipse transform="matrix(0.7071 -0.7071 0.7071 0.7071 399.5702 666.6476)" class="st0" cx="1004.5" cy="-149" rx="5.3" ry="38.2"/>
<ellipse transform="matrix(0.7071 -0.7071 0.7071 0.7071 397.8128 662.405)" class="st0" cx="998.5" cy="-149" rx="5.3" ry="38.2"/>
<ellipse transform="matrix(0.7071 -0.7071 0.7071 0.7071 396.0554 658.1624)" class="st14" cx="992.5" cy="-149" rx="5.3" ry="38.2"/>
<ellipse transform="matrix(0.7071 -0.7071 0.7071 0.7071 399.591 656.6979)" class="st14" cx="992.5" cy="-154" rx="5.3" ry="38.2"/>
<ellipse transform="matrix(0.7071 -0.7071 0.7071 0.7071 404.5407 654.6476)" class="st14" cx="992.5" cy="-161" rx="5.3" ry="38.2"/>
<ellipse transform="matrix(0.7071 -0.7071 0.7071 0.7071 409.4904 652.5974)" class="st14" cx="992.5" cy="-168" rx="5.3" ry="38.2"/>
<ellipse transform="matrix(0.7071 -0.7071 0.7071 0.7071 414.4402 650.5472)" class="st14" cx="992.5" cy="-175" rx="5.3" ry="38.2"/>
<ellipse transform="matrix(0.7071 -0.7071 0.7071 0.7071 419.39 648.4969)" class="st14" cx="992.5" cy="-182" rx="5.3" ry="38.2"/>
<ellipse transform="matrix(0.7071 -0.7071 0.7071 0.7071 424.3397 646.4467)" class="st14" cx="992.5" cy="-189" rx="5.3" ry="38.2"/>
<ellipse transform="matrix(0.7071 -0.7071 0.7071 0.7071 429.2895 644.3964)" class="st14" cx="992.5" cy="-196" rx="5.3" ry="38.2"/>
<ellipse transform="matrix(0.7071 -0.7071 0.7071 0.7071 434.2392 642.3461)" class="st14" cx="992.5" cy="-203" rx="5.3" ry="38.2"/>
<ellipse transform="matrix(0.7071 -0.7071 0.7071 0.7071 439.1889 640.2959)" class="st14" cx="992.5" cy="-210" rx="5.3" ry="38.2"/>
<ellipse transform="matrix(0.7071 -0.7071 0.7071 0.7071 444.1387 638.2457)" class="st14" cx="992.5" cy="-217" rx="5.3" ry="38.2"/>
<ellipse transform="matrix(0.7071 -0.7071 0.7071 0.7071 449.0884 636.1954)" class="st14" cx="992.5" cy="-224" rx="5.3" ry="38.2"/>
<ellipse transform="matrix(0.7071 -0.7071 0.7071 0.7071 454.0382 634.1451)" class="st14" cx="992.5" cy="-231" rx="5.3" ry="38.2"/>
<ellipse transform="matrix(0.7071 -0.7071 0.7071 0.7071 458.9879 632.0949)" class="st14" cx="992.5" cy="-238" rx="5.3" ry="38.2"/>
<ellipse transform="matrix(0.7071 -0.7071 0.7071 0.7071 520.9894 797.7797)" class="st0" cx="1223.5" cy="-230" rx="5.3" ry="38.2"/>
<ellipse transform="matrix(0.7071 -0.7071 0.7071 0.7071 516.7468 799.537)" class="st0" cx="1223.5" cy="-224" rx="5.3" ry="38.2"/>
<ellipse transform="matrix(0.7071 -0.7071 0.7071 0.7071 512.5042 801.2944)" class="st0" cx="1223.5" cy="-218" rx="5.3" ry="38.2"/>
<ellipse transform="matrix(0.7071 -0.7071 0.7071 0.7071 508.2615 803.0518)" class="st0" cx="1223.5" cy="-212" rx="5.3" ry="38.2"/>
<ellipse transform="matrix(0.7071 -0.7071 0.7071 0.7071 504.0189 804.8091)" class="st0" cx="1223.5" cy="-206" rx="5.3" ry="38.2"/>
<ellipse transform="matrix(0.7071 -0.7071 0.7071 0.7071 499.7762 806.5665)" class="st0" cx="1223.5" cy="-200" rx="5.3" ry="38.2"/>
<ellipse transform="matrix(0.7071 -0.7071 0.7071 0.7071 495.5336 808.3239)" class="st0" cx="1223.5" cy="-194" rx="5.3" ry="38.2"/>
<ellipse transform="matrix(0.7071 -0.7071 0.7071 0.7071 491.2909 810.0812)" class="st0" cx="1223.5" cy="-188" rx="5.3" ry="38.2"/>
<ellipse transform="matrix(0.7071 -0.7071 0.7071 0.7071 487.0483 811.8386)" class="st0" cx="1223.5" cy="-182" rx="5.3" ry="38.2"/>
<ellipse transform="matrix(0.7071 -0.7071 0.7071 0.7071 482.8056 813.5959)" class="st0" cx="1223.5" cy="-176" rx="5.3" ry="38.2"/>
<ellipse transform="matrix(0.7071 -0.7071 0.7071 0.7071 478.563 815.3533)" class="st0" cx="1223.5" cy="-170" rx="5.3" ry="38.2"/>
<ellipse transform="matrix(0.7071 -0.7071 0.7071 0.7071 474.3204 817.1107)" class="st0" cx="1223.5" cy="-164" rx="5.3" ry="38.2"/>
<ellipse transform="matrix(0.7071 -0.7071 0.7071 0.7071 470.0777 818.868)" class="st0" cx="1223.5" cy="-158" rx="5.3" ry="38.2"/>
<ellipse transform="matrix(0.7071 -0.7071 0.7071 0.7071 467.2493 820.0396)" class="st0" cx="1223.5" cy="-154" rx="5.3" ry="38.2"/>
<ellipse transform="matrix(0.7071 -0.7071 0.7071 0.7071 464.8351 820.2112)" class="st0" cx="1222.5" cy="-151" rx="5.3" ry="38.2"/>
<ellipse transform="matrix(0.7071 -0.7071 0.7071 0.7071 462.5422 818.6757)" class="st0" cx="1219.5" cy="-149" rx="5.3" ry="38.2"/>
<ellipse transform="matrix(0.7071 -0.7071 0.7071 0.7071 460.7848 814.433)" class="st0" cx="1213.5" cy="-149" rx="5.3" ry="38.2"/>
<ellipse transform="matrix(0.7071 -0.7071 0.7071 0.7071 459.0275 810.1904)" class="st0" cx="1207.5" cy="-149" rx="5.3" ry="38.2"/>
<ellipse transform="matrix(0.7071 -0.7071 0.7071 0.7071 457.2701 805.9477)" class="st0" cx="1201.5" cy="-149" rx="5.3" ry="38.2"/>
<ellipse transform="matrix(0.7071 -0.7071 0.7071 0.7071 455.5128 801.7051)" class="st0" cx="1195.5" cy="-149" rx="5.3" ry="38.2"/>
<ellipse transform="matrix(0.7071 -0.7071 0.7071 0.7071 453.7554 797.4624)" class="st0" cx="1189.5" cy="-149" rx="5.3" ry="38.2"/>
<ellipse transform="matrix(0.7071 -0.7071 0.7071 0.7071 451.998 793.2198)" class="st0" cx="1183.5" cy="-149" rx="5.3" ry="38.2"/>
<ellipse transform="matrix(0.7071 -0.7071 0.7071 0.7071 450.2407 788.9772)" class="st0" cx="1177.5" cy="-149" rx="5.3" ry="38.2"/>
<ellipse transform="matrix(0.7071 -0.7071 0.7071 0.7071 448.4833 784.7345)" class="st0" cx="1171.5" cy="-149" rx="5.3" ry="38.2"/>
<ellipse transform="matrix(0.7071 -0.7071 0.7071 0.7071 446.726 780.4919)" class="st0" cx="1165.5" cy="-149" rx="5.3" ry="38.2"/>
<ellipse transform="matrix(0.7071 -0.7071 0.7071 0.7071 444.9686 776.2492)" class="st14" cx="1159.5" cy="-149" rx="5.3" ry="38.2"/>
<ellipse transform="matrix(0.7071 -0.7071 0.7071 0.7071 448.5041 774.7847)" class="st14" cx="1159.5" cy="-154" rx="5.3" ry="38.2"/>
<ellipse transform="matrix(0.7071 -0.7071 0.7071 0.7071 453.4539 772.7345)" class="st14" cx="1159.5" cy="-161" rx="5.3" ry="38.2"/>
<ellipse transform="matrix(0.7071 -0.7071 0.7071 0.7071 458.4036 770.6843)" class="st14" cx="1159.5" cy="-168" rx="5.3" ry="38.2"/>
<ellipse transform="matrix(0.7071 -0.7071 0.7071 0.7071 463.3534 768.634)" class="st14" cx="1159.5" cy="-175" rx="5.3" ry="38.2"/>
<ellipse transform="matrix(0.7071 -0.7071 0.7071 0.7071 468.3031 766.5837)" class="st14" cx="1159.5" cy="-182" rx="5.3" ry="38.2"/>
<ellipse transform="matrix(0.7071 -0.7071 0.7071 0.7071 473.2529 764.5335)" class="st14" cx="1159.5" cy="-189" rx="5.3" ry="38.2"/>
<ellipse transform="matrix(0.7071 -0.7071 0.7071 0.7071 478.2026 762.4832)" class="st14" cx="1159.5" cy="-196" rx="5.3" ry="38.2"/>
<ellipse transform="matrix(0.7071 -0.7071 0.7071 0.7071 483.1524 760.433)" class="st14" cx="1159.5" cy="-203" rx="5.3" ry="38.2"/>
<ellipse transform="matrix(0.7071 -0.7071 0.7071 0.7071 488.1021 758.3828)" class="st14" cx="1159.5" cy="-210" rx="5.3" ry="38.2"/>
<ellipse transform="matrix(0.7071 -0.7071 0.7071 0.7071 493.0518 756.3325)" class="st14" cx="1159.5" cy="-217" rx="5.3" ry="38.2"/>
<ellipse transform="matrix(0.7071 -0.7071 0.7071 0.7071 498.0016 754.2822)" class="st14" cx="1159.5" cy="-224" rx="5.3" ry="38.2"/>
<ellipse transform="matrix(0.7071 -0.7071 0.7071 0.7071 502.9514 752.232)" class="st14" cx="1159.5" cy="-231" rx="5.3" ry="38.2"/>
<ellipse transform="matrix(0.7071 -0.7071 0.7071 0.7071 508.194 750.8889)" class="st14" cx="1160.5" cy="-238" rx="5.3" ry="38.2"/>
<ellipse transform="matrix(0.7071 -0.7071 0.7071 0.7071 513.4366 749.5457)" class="st14" cx="1161.5" cy="-245" rx="5.3" ry="38.2"/>
<ellipse transform="matrix(0.7071 -0.7071 0.7071 0.7071 512.8508 748.1315)" class="st15" cx="1159.5" cy="-245" rx="5.3" ry="38.2"/>
<ellipse transform="matrix(0.7071 -0.7071 0.7071 0.7071 463.9377 630.0446)" class="st14" cx="992.5" cy="-245" rx="5.3" ry="38.2"/>
<ellipse transform="matrix(0.7071 -0.7071 0.7071 0.7071 465.9879 634.9944)" class="st15" cx="999.5" cy="-245" rx="5.3" ry="38.2"/>
<ellipse transform="matrix(0.7071 -0.7071 0.7071 0.7071 468.0382 639.9442)" class="st15" cx="1006.5" cy="-245" rx="5.3" ry="38.2"/>
<ellipse transform="matrix(0.7071 -0.7071 0.7071 0.7071 470.0884 644.8939)" class="st15" cx="1013.5" cy="-245" rx="5.3" ry="38.2"/>
<ellipse transform="matrix(0.7071 -0.7071 0.7071 0.7071 472.1387 649.8436)" class="st15" cx="1020.5" cy="-245" rx="5.3" ry="38.2"/>
<ellipse transform="matrix(0.7071 -0.7071 0.7071 0.7071 474.1889 654.7934)" class="st15" cx="1027.5" cy="-245" rx="5.3" ry="38.2"/>
<ellipse transform="matrix(0.7071 -0.7071 0.7071 0.7071 476.2392 659.7431)" class="st15" cx="1034.5" cy="-245" rx="5.3" ry="38.2"/>
<ellipse transform="matrix(0.7071 -0.7071 0.7071 0.7071 478.2895 664.6929)" class="st15" cx="1041.5" cy="-245" rx="5.3" ry="38.2"/>
<ellipse transform="matrix(0.7071 -0.7071 0.7071 0.7071 480.3397 669.6426)" class="st15" cx="1048.5" cy="-245" rx="5.3" ry="38.2"/>
<ellipse transform="matrix(0.7071 -0.7071 0.7071 0.7071 482.39 674.5923)" class="st15" cx="1055.5" cy="-245" rx="5.3" ry="38.2"/>
<ellipse transform="matrix(0.7071 -0.7071 0.7071 0.7071 484.4402 679.5421)" class="st15" cx="1062.5" cy="-245" rx="5.3" ry="38.2"/>
<ellipse transform="matrix(0.7071 -0.7071 0.7071 0.7071 486.4904 684.4919)" class="st15" cx="1069.5" cy="-245" rx="5.3" ry="38.2"/>
<ellipse transform="matrix(0.7071 -0.7071 0.7071 0.7071 488.5407 689.4416)" class="st15" cx="1076.5" cy="-245" rx="5.3" ry="38.2"/>
<ellipse transform="matrix(0.7071 -0.7071 0.7071 0.7071 490.591 694.3914)" class="st15" cx="1083.5" cy="-245" rx="5.3" ry="38.2"/>
<ellipse transform="matrix(0.7071 -0.7071 0.7071 0.7071 492.6412 699.3411)" class="st15" cx="1090.5" cy="-245" rx="5.3" ry="38.2"/>
<ellipse transform="matrix(0.7071 -0.7071 0.7071 0.7071 494.6915 704.2908)" class="st15" cx="1097.5" cy="-245" rx="5.3" ry="38.2"/>
<ellipse transform="matrix(0.7071 -0.7071 0.7071 0.7071 496.7417 709.2406)" class="st15" cx="1104.5" cy="-245" rx="5.3" ry="38.2"/>
<ellipse transform="matrix(0.7071 -0.7071 0.7071 0.7071 498.792 714.1904)" class="st15" cx="1111.5" cy="-245" rx="5.3" ry="38.2"/>
<ellipse transform="matrix(0.7071 -0.7071 0.7071 0.7071 500.8422 719.1401)" class="st15" cx="1118.5" cy="-245" rx="5.3" ry="38.2"/>
<ellipse transform="matrix(0.7071 -0.7071 0.7071 0.7071 502.8925 724.0898)" class="st15" cx="1125.5" cy="-245" rx="5.3" ry="38.2"/>
<ellipse transform="matrix(0.7071 -0.7071 0.7071 0.7071 504.9427 729.0396)" class="st15" cx="1132.5" cy="-245" rx="5.3" ry="38.2"/>
<ellipse transform="matrix(0.7071 -0.7071 0.7071 0.7071 506.993 733.9893)" class="st15" cx="1139.5" cy="-245" rx="5.3" ry="38.2"/>
<ellipse transform="matrix(0.7071 -0.7071 0.7071 0.7071 509.0432 738.9391)" class="st15" cx="1146.5" cy="-245" rx="5.3" ry="38.2"/>
<ellipse transform="matrix(0.7071 -0.7071 0.7071 0.7071 511.0935 743.8889)" class="st15" cx="1153.5" cy="-245" rx="5.3" ry="38.2"/>
<ellipse transform="matrix(0.7071 -0.7071 0.7071 0.7071 513.1437 748.8386)" class="st15" cx="1160.5" cy="-245" rx="5.3" ry="38.2"/>
<ellipse transform="matrix(0.7071 -0.7071 0.7071 0.7071 515.194 753.7883)" class="st15" cx="1167.5" cy="-245" rx="5.3" ry="38.2"/>
<ellipse transform="matrix(0.7071 -0.7071 0.7071 0.7071 517.2443 758.7381)" class="st15" cx="1174.5" cy="-245" rx="5.3" ry="38.2"/>
<ellipse transform="matrix(0.7071 -0.7071 0.7071 0.7071 519.2945 763.6878)" class="st15" cx="1181.5" cy="-245" rx="5.3" ry="38.2"/>
<ellipse transform="matrix(0.7071 -0.7071 0.7071 0.7071 521.3447 768.6376)" class="st15" cx="1188.5" cy="-245" rx="5.3" ry="38.2"/>
<ellipse transform="matrix(0.7071 -0.7071 0.7071 0.7071 523.395 773.5873)" class="st15" cx="1195.5" cy="-245" rx="5.3" ry="38.2"/>
<ellipse transform="matrix(0.7071 -0.7071 0.7071 0.7071 525.4453 778.537)" class="st15" cx="1202.5" cy="-245" rx="5.3" ry="38.2"/>
<ellipse transform="matrix(0.7071 -0.7071 0.7071 0.7071 527.4955 783.4868)" class="st15" cx="1209.5" cy="-245" rx="5.3" ry="38.2"/>
<ellipse transform="matrix(0.7071 -0.7071 0.7071 0.7071 529.0458 788.2294)" class="st16" cx="1216" cy="-244.5" rx="4.6" ry="38.2"/>
<ellipse transform="matrix(0.7071 -0.7071 0.7071 0.7071 529.1818 793.5579)" class="st17" cx="1222.5" cy="-242" rx="2.5" ry="38.2"/>
<ellipse transform="matrix(0.7071 -0.7071 0.7071 0.7071 714.1423 692.0919)" class="st0" cx="1192.5" cy="-516" rx="5.3" ry="38.2"/>
<ellipse transform="matrix(0.7071 -0.7071 0.7071 0.7071 639.3088 581.4279)" class="st0" cx="1021.5" cy="-481" rx="5.3" ry="38.2"/>
<ellipse transform="matrix(0.7071 -0.7071 0.7071 0.7071 636.723 579.1853)" class="st0" cx="1017.5" cy="-479" rx="5.3" ry="38.2"/>
<ellipse transform="matrix(0.7071 -0.7071 0.7071 0.7071 634.9656 574.9426)" class="st0" cx="1011.5" cy="-479" rx="5.3" ry="38.2"/>
<ellipse transform="matrix(0.7071 -0.7071 0.7071 0.7071 633.2083 570.7)" class="st0" cx="1005.5" cy="-479" rx="5.3" ry="38.2"/>
<ellipse transform="matrix(0.7071 -0.7071 0.7071 0.7071 631.4509 566.4574)" class="st0" cx="999.5" cy="-479" rx="5.3" ry="38.2"/>
<ellipse transform="matrix(0.7071 -0.7071 0.7071 0.7071 629.6935 562.2147)" class="st0" cx="993.5" cy="-479" rx="5.3" ry="38.2"/>
<ellipse transform="matrix(0.7071 -0.7071 0.7071 0.7071 627.9362 557.9721)" class="st0" cx="987.5" cy="-479" rx="5.3" ry="38.2"/>
<ellipse transform="matrix(0.7071 -0.7071 0.7071 0.7071 626.1788 553.7294)" class="st0" cx="981.5" cy="-479" rx="5.3" ry="38.2"/>
<ellipse transform="matrix(0.7071 -0.7071 0.7071 0.7071 624.4215 549.4868)" class="st0" cx="975.5" cy="-479" rx="5.3" ry="38.2"/>
<ellipse transform="matrix(0.7071 -0.7071 0.7071 0.7071 622.6641 545.2442)" class="st0" cx="969.5" cy="-479" rx="5.3" ry="38.2"/>
<ellipse transform="matrix(0.7071 -0.7071 0.7071 0.7071 585.6727 553.9391)" class="st14" cx="961.5" cy="-430" rx="5.3" ry="38.2"/>
<ellipse transform="matrix(0.7071 -0.7071 0.7071 0.7071 589.2083 552.4746)" class="st14" cx="961.5" cy="-435" rx="5.3" ry="38.2"/>
<ellipse transform="matrix(0.7071 -0.7071 0.7071 0.7071 594.158 550.4244)" class="st14" cx="961.5" cy="-442" rx="5.3" ry="38.2"/>
<ellipse transform="matrix(0.7071 -0.7071 0.7071 0.7071 599.1078 548.3741)" class="st14" cx="961.5" cy="-449" rx="5.3" ry="38.2"/>
<ellipse transform="matrix(0.7071 -0.7071 0.7071 0.7071 604.0575 546.3239)" class="st14" cx="961.5" cy="-456" rx="5.3" ry="38.2"/>
<ellipse transform="matrix(0.7071 -0.7071 0.7071 0.7071 609.0073 544.2736)" class="st14" cx="961.5" cy="-463" rx="5.3" ry="38.2"/>
<ellipse transform="matrix(0.7071 -0.7071 0.7071 0.7071 613.957 542.2233)" class="st14" cx="961.5" cy="-470" rx="5.3" ry="38.2"/>
<ellipse transform="matrix(0.7071 -0.7071 0.7071 0.7071 618.9067 540.1731)" class="st14" cx="961.5" cy="-477" rx="5.3" ry="38.2"/>
<ellipse transform="matrix(0.7071 -0.7071 0.7071 0.7071 638.7733 584.1351)" class="st14" cx="1024.5" cy="-479" rx="5.3" ry="38.2"/>
<ellipse transform="matrix(0.7071 -0.7071 0.7071 0.7071 642.3088 582.6706)" class="st14" cx="1024.5" cy="-484" rx="5.3" ry="38.2"/>
<ellipse transform="matrix(0.7071 -0.7071 0.7071 0.7071 647.2585 580.6203)" class="st14" cx="1024.5" cy="-491" rx="5.3" ry="38.2"/>
<ellipse transform="matrix(0.7071 -0.7071 0.7071 0.7071 652.2083 578.5701)" class="st14" cx="1024.5" cy="-498" rx="5.3" ry="38.2"/>
<ellipse transform="matrix(0.7071 -0.7071 0.7071 0.7071 657.158 576.5198)" class="st14" cx="1024.5" cy="-505" rx="5.3" ry="38.2"/>
<ellipse transform="matrix(0.7071 -0.7071 0.7071 0.7071 662.1078 574.4695)" class="st14" cx="1024.5" cy="-512" rx="5.3" ry="38.2"/>
<ellipse transform="matrix(0.7071 -0.7071 0.7071 0.7071 667.0575 572.4193)" class="st14" cx="1024.5" cy="-519" rx="5.3" ry="38.2"/>
<ellipse transform="matrix(0.7071 -0.7071 0.7071 0.7071 672.0073 570.3691)" class="st14" cx="1024.5" cy="-526" rx="5.3" ry="38.2"/>
<ellipse transform="matrix(0.7071 -0.7071 0.7071 0.7071 623.8565 538.1229)" class="st14" cx="961.5" cy="-484" rx="5.3" ry="38.2"/>
<ellipse transform="matrix(0.7071 -0.7071 0.7071 0.7071 628.8063 536.0726)" class="st14" cx="961.5" cy="-491" rx="5.3" ry="38.2"/>
<ellipse transform="matrix(0.7071 -0.7071 0.7071 0.7071 633.756 534.0223)" class="st14" cx="961.5" cy="-498" rx="5.3" ry="38.2"/>
<ellipse transform="matrix(0.7071 -0.7071 0.7071 0.7071 638.7057 531.9721)" class="st14" cx="961.5" cy="-505" rx="5.3" ry="38.2"/>
<ellipse transform="matrix(0.7071 -0.7071 0.7071 0.7071 643.6555 529.9218)" class="st14" cx="961.5" cy="-512" rx="5.3" ry="38.2"/>
<ellipse transform="matrix(0.7071 -0.7071 0.7071 0.7071 648.6052 527.8716)" class="st14" cx="961.5" cy="-519" rx="5.3" ry="38.2"/>
<ellipse transform="matrix(0.7071 -0.7071 0.7071 0.7071 710.6068 693.5564)" class="st0" cx="1192.5" cy="-511" rx="5.3" ry="38.2"/>
<ellipse transform="matrix(0.7071 -0.7071 0.7071 0.7071 706.3641 695.3138)" class="st0" cx="1192.5" cy="-505" rx="5.3" ry="38.2"/>
<ellipse transform="matrix(0.7071 -0.7071 0.7071 0.7071 702.1215 697.0711)" class="st0" cx="1192.5" cy="-499" rx="5.3" ry="38.2"/>
<ellipse transform="matrix(0.7071 -0.7071 0.7071 0.7071 697.8788 698.8285)" class="st0" cx="1192.5" cy="-493" rx="5.3" ry="38.2"/>
<ellipse transform="matrix(0.7071 -0.7071 0.7071 0.7071 693.6362 700.5858)" class="st0" cx="1192.5" cy="-487" rx="5.3" ry="38.2"/>
<ellipse transform="matrix(0.7071 -0.7071 0.7071 0.7071 689.3936 702.3432)" class="st0" cx="1192.5" cy="-481" rx="5.3" ry="38.2"/>
<ellipse transform="matrix(0.7071 -0.7071 0.7071 0.7071 685.1509 704.1006)" class="st0" cx="1192.5" cy="-475" rx="5.3" ry="38.2"/>
<ellipse transform="matrix(0.7071 -0.7071 0.7071 0.7071 680.9083 705.8579)" class="st0" cx="1192.5" cy="-469" rx="5.3" ry="38.2"/>
<ellipse transform="matrix(0.7071 -0.7071 0.7071 0.7071 676.6656 707.6153)" class="st0" cx="1192.5" cy="-463" rx="5.3" ry="38.2"/>
<ellipse transform="matrix(0.7071 -0.7071 0.7071 0.7071 672.423 709.3726)" class="st0" cx="1192.5" cy="-457" rx="5.3" ry="38.2"/>
<ellipse transform="matrix(0.7071 -0.7071 0.7071 0.7071 668.1803 711.13)" class="st0" cx="1192.5" cy="-451" rx="5.3" ry="38.2"/>
<ellipse transform="matrix(0.7071 -0.7071 0.7071 0.7071 663.9377 712.8873)" class="st0" cx="1192.5" cy="-445" rx="5.3" ry="38.2"/>
<ellipse transform="matrix(0.7071 -0.7071 0.7071 0.7071 659.6951 714.6447)" class="st0" cx="1192.5" cy="-439" rx="5.3" ry="38.2"/>
<ellipse transform="matrix(0.7071 -0.7071 0.7071 0.7071 656.8666 715.8163)" class="st0" cx="1192.5" cy="-435" rx="5.3" ry="38.2"/>
<ellipse transform="matrix(0.7071 -0.7071 0.7071 0.7071 654.4524 715.9879)" class="st0" cx="1191.5" cy="-432" rx="5.3" ry="38.2"/>
<ellipse transform="matrix(0.7071 -0.7071 0.7071 0.7071 688.2219 699.5148)" class="st0" cx="1188.5" cy="-481" rx="5.3" ry="38.2"/>
<ellipse transform="matrix(0.7071 -0.7071 0.7071 0.7071 686.4646 695.2722)" class="st0" cx="1182.5" cy="-481" rx="5.3" ry="38.2"/>
<ellipse transform="matrix(0.7071 -0.7071 0.7071 0.7071 684.7072 691.0295)" class="st0" cx="1176.5" cy="-481" rx="5.3" ry="38.2"/>
<ellipse transform="matrix(0.7071 -0.7071 0.7071 0.7071 682.9499 686.7869)" class="st0" cx="1170.5" cy="-481" rx="5.3" ry="38.2"/>
<ellipse transform="matrix(0.7071 -0.7071 0.7071 0.7071 681.1925 682.5442)" class="st0" cx="1164.5" cy="-481" rx="5.3" ry="38.2"/>
<ellipse transform="matrix(0.7071 -0.7071 0.7071 0.7071 679.4352 678.3016)" class="st0" cx="1158.5" cy="-481" rx="5.3" ry="38.2"/>
<ellipse transform="matrix(0.7071 -0.7071 0.7071 0.7071 677.6778 674.0589)" class="st0" cx="1152.5" cy="-481" rx="5.3" ry="38.2"/>
<ellipse transform="matrix(0.7071 -0.7071 0.7071 0.7071 675.9204 669.8163)" class="st0" cx="1146.5" cy="-481" rx="5.3" ry="38.2"/>
<ellipse transform="matrix(0.7071 -0.7071 0.7071 0.7071 674.1631 665.5737)" class="st0" cx="1140.5" cy="-481" rx="5.3" ry="38.2"/>
<ellipse transform="matrix(0.7071 -0.7071 0.7071 0.7071 672.4057 661.331)" class="st0" cx="1134.5" cy="-481" rx="5.3" ry="38.2"/>
<ellipse transform="matrix(0.7071 -0.7071 0.7071 0.7071 703.054 645.3224)" class="st14" cx="1130.5" cy="-526" rx="5.3" ry="38.2"/>
<ellipse transform="matrix(0.7071 -0.7071 0.7071 0.7071 702.4681 643.9081)" class="st15" cx="1128.5" cy="-526" rx="5.3" ry="38.2"/>
<ellipse transform="matrix(0.7071 -0.7071 0.7071 0.7071 653.555 525.8214)" class="st14" cx="961.5" cy="-526" rx="5.3" ry="38.2"/>
<ellipse transform="matrix(0.7071 -0.7071 0.7071 0.7071 655.6052 530.7711)" class="st15" cx="968.5" cy="-526" rx="5.3" ry="38.2"/>
<ellipse transform="matrix(0.7071 -0.7071 0.7071 0.7071 657.6555 535.7208)" class="st15" cx="975.5" cy="-526" rx="5.3" ry="38.2"/>
<ellipse transform="matrix(0.7071 -0.7071 0.7071 0.7071 659.7057 540.6706)" class="st15" cx="982.5" cy="-526" rx="5.3" ry="38.2"/>
<ellipse transform="matrix(0.7071 -0.7071 0.7071 0.7071 661.756 545.6203)" class="st15" cx="989.5" cy="-526" rx="5.3" ry="38.2"/>
<ellipse transform="matrix(0.7071 -0.7071 0.7071 0.7071 663.8063 550.5701)" class="st15" cx="996.5" cy="-526" rx="5.3" ry="38.2"/>
<ellipse transform="matrix(0.7071 -0.7071 0.7071 0.7071 665.8565 555.5198)" class="st15" cx="1003.5" cy="-526" rx="5.3" ry="38.2"/>
<ellipse transform="matrix(0.7071 -0.7071 0.7071 0.7071 667.9067 560.4695)" class="st15" cx="1010.5" cy="-526" rx="5.3" ry="38.2"/>
<ellipse transform="matrix(0.7071 -0.7071 0.7071 0.7071 669.957 565.4193)" class="st15" cx="1017.5" cy="-526" rx="5.3" ry="38.2"/>
<ellipse transform="matrix(0.7071 -0.7071 0.7071 0.7071 672.0073 570.3691)" class="st15" cx="1024.5" cy="-526" rx="5.3" ry="38.2"/>
<ellipse transform="matrix(0.7071 -0.7071 0.7071 0.7071 674.0575 575.3188)" class="st15" cx="1031.5" cy="-526" rx="5.3" ry="38.2"/>
<ellipse transform="matrix(0.7071 -0.7071 0.7071 0.7071 676.1078 580.2686)" class="st15" cx="1038.5" cy="-526" rx="5.3" ry="38.2"/>
<ellipse transform="matrix(0.7071 -0.7071 0.7071 0.7071 678.158 585.2183)" class="st15" cx="1045.5" cy="-526" rx="5.3" ry="38.2"/>
<ellipse transform="matrix(0.7071 -0.7071 0.7071 0.7071 680.2083 590.168)" class="st15" cx="1052.5" cy="-526" rx="5.3" ry="38.2"/>
<ellipse transform="matrix(0.7071 -0.7071 0.7071 0.7071 682.2585 595.1178)" class="st15" cx="1059.5" cy="-526" rx="5.3" ry="38.2"/>
<ellipse transform="matrix(0.7071 -0.7071 0.7071 0.7071 684.3088 600.0676)" class="st15" cx="1066.5" cy="-526" rx="5.3" ry="38.2"/>
<ellipse transform="matrix(0.7071 -0.7071 0.7071 0.7071 686.359 605.0173)" class="st15" cx="1073.5" cy="-526" rx="5.3" ry="38.2"/>
<ellipse transform="matrix(0.7071 -0.7071 0.7071 0.7071 688.4093 609.967)" class="st15" cx="1080.5" cy="-526" rx="5.3" ry="38.2"/>
<ellipse transform="matrix(0.7071 -0.7071 0.7071 0.7071 690.4595 614.9168)" class="st15" cx="1087.5" cy="-526" rx="5.3" ry="38.2"/>
<ellipse transform="matrix(0.7071 -0.7071 0.7071 0.7071 692.5098 619.8665)" class="st15" cx="1094.5" cy="-526" rx="5.3" ry="38.2"/>
<ellipse transform="matrix(0.7071 -0.7071 0.7071 0.7071 694.5601 624.8163)" class="st15" cx="1101.5" cy="-526" rx="5.3" ry="38.2"/>
<ellipse transform="matrix(0.7071 -0.7071 0.7071 0.7071 696.6103 629.7661)" class="st15" cx="1108.5" cy="-526" rx="5.3" ry="38.2"/>
<ellipse transform="matrix(0.7071 -0.7071 0.7071 0.7071 698.6605 634.7158)" class="st15" cx="1115.5" cy="-526" rx="5.3" ry="38.2"/>
<ellipse transform="matrix(0.7071 -0.7071 0.7071 0.7071 700.7108 639.6655)" class="st15" cx="1122.5" cy="-526" rx="5.3" ry="38.2"/>
<ellipse transform="matrix(0.7071 -0.7071 0.7071 0.7071 702.761 644.6153)" class="st15" cx="1129.5" cy="-526" rx="5.3" ry="38.2"/>
<ellipse transform="matrix(0.7071 -0.7071 0.7071 0.7071 704.8113 649.565)" class="st15" cx="1136.5" cy="-526" rx="5.3" ry="38.2"/>
<ellipse transform="matrix(0.7071 -0.7071 0.7071 0.7071 706.8616 654.5148)" class="st15" cx="1143.5" cy="-526" rx="5.3" ry="38.2"/>
<ellipse transform="matrix(0.7071 -0.7071 0.7071 0.7071 708.9118 659.4645)" class="st15" cx="1150.5" cy="-526" rx="5.3" ry="38.2"/>
<ellipse transform="matrix(0.7071 -0.7071 0.7071 0.7071 710.9621 664.4142)" class="st15" cx="1157.5" cy="-526" rx="5.3" ry="38.2"/>
<ellipse transform="matrix(0.7071 -0.7071 0.7071 0.7071 713.0123 669.364)" class="st15" cx="1164.5" cy="-526" rx="5.3" ry="38.2"/>
<ellipse transform="matrix(0.7071 -0.7071 0.7071 0.7071 715.0626 674.3138)" class="st15" cx="1171.5" cy="-526" rx="5.3" ry="38.2"/>
<ellipse transform="matrix(0.7071 -0.7071 0.7071 0.7071 717.1129 679.2635)" class="st15" cx="1178.5" cy="-526" rx="5.3" ry="38.2"/>
<ellipse transform="matrix(0.7071 -0.7071 0.7071 0.7071 718.6631 684.0062)" class="st16" cx="1185" cy="-525.5" rx="4.6" ry="38.2"/>
<ellipse transform="matrix(0.7071 -0.7071 0.7071 0.7071 718.7991 689.3346)" class="st17" cx="1191.5" cy="-523" rx="2.5" ry="38.2"/>
<rect x="272.5" y="-104.5" class="st18" width="177" height="117"/>
<ellipse class="st19" cx="769.8" cy="-376.1" rx="13.8" ry="1.9"/>
<ellipse transform="matrix(0.1632 -0.9866 0.9866 0.1632 1015.1489 444.7404)" class="st19" cx="769.8" cy="-376.1" rx="1.9" ry="13.8"/>
<ellipse transform="matrix(0.322 -0.9467 0.9467 0.322 877.9054 473.7848)" class="st19" cx="769.8" cy="-376.1" rx="1.9" ry="13.8"/>
<ellipse transform="matrix(0.4722 -0.8815 0.8815 0.4722 737.7618 480.0419)" class="st19" cx="769.8" cy="-376.1" rx="1.9" ry="13.8"/>
<ellipse transform="matrix(0.6097 -0.7926 0.7926 0.6097 598.476 463.344)" class="st19" cx="769.8" cy="-376.1" rx="1.9" ry="13.8"/>
<ellipse transform="matrix(0.7309 -0.6825 0.6825 0.7309 463.7826 424.1387)" class="st19" cx="769.8" cy="-376.1" rx="1.9" ry="13.8"/>
<ellipse transform="matrix(0.8325 -0.554 0.554 0.8325 337.2932 363.4773)" class="st19" cx="769.8" cy="-376.1" rx="1.9" ry="13.8"/>
<ellipse transform="matrix(0.9117 -0.4107 0.4107 0.9117 222.3994 282.9864)" class="st19" cx="769.8" cy="-376.1" rx="1.9" ry="13.8"/>
<ellipse transform="matrix(0.9666 -0.2564 0.2564 0.9666 122.182 184.8241)" class="st19" cx="769.8" cy="-376.1" rx="1.9" ry="13.8"/>
<ellipse transform="matrix(0.9955 -9.526856e-02 9.526856e-02 0.9955 39.3281 71.6225)" class="st19" cx="769.8" cy="-376.1" rx="1.9" ry="13.8"/>
<ellipse transform="matrix(6.846458e-02 -0.9977 0.9977 6.846458e-02 1092.2295 417.6283)" class="st19" cx="769.8" cy="-376.1" rx="13.8" ry="1.9"/>
<ellipse transform="matrix(0.2304 -0.9731 0.9731 0.2304 958.3772 459.6156)" class="st19" cx="769.8" cy="-376.1" rx="13.8" ry="1.9"/>
<ellipse transform="matrix(0.3861 -0.9225 0.9225 0.3861 819.4672 479.1955)" class="st19" cx="769.8" cy="-376.1" rx="13.8" ry="1.9"/>
<ellipse transform="matrix(0.5315 -0.8471 0.8471 0.5315 679.2241 475.8431)" class="st19" cx="769.8" cy="-376.1" rx="13.8" ry="1.9"/>
<ellipse transform="matrix(0.6626 -0.749 0.749 0.6626 541.4082 449.6482)" class="st19" cx="769.8" cy="-376.1" rx="13.8" ry="1.9"/>
<ellipse transform="matrix(0.7759 -0.6308 0.6308 0.7759 409.7151 401.3131)" class="st19" cx="769.8" cy="-376.1" rx="13.8" ry="1.9"/>
<ellipse transform="matrix(0.8685 -0.4957 0.4957 0.8685 287.6756 332.1341)" class="st19" cx="769.8" cy="-376.1" rx="13.8" ry="1.9"/>
<ellipse transform="matrix(0.9377 -0.3474 0.3474 0.9377 178.5622 243.9658)" class="st19" cx="769.8" cy="-376.1" rx="13.8" ry="1.9"/>
<ellipse transform="matrix(0.9818 -0.1897 0.1897 0.9818 85.3006 139.1725)" class="st19" cx="769.8" cy="-376.1" rx="13.8" ry="1.9"/>
<rect x="36" y="467" class="st8" width="210" height="270"/>
<g>
	<g>
		<path class="st11" d="M715.8,738.4h-7v-15.2c0-2.8,0.7-5.1,2.2-6.8c0.9-1,1.9-1.8,3.3-2.4c1.3-0.6,2.7-0.9,4.1-0.9
			c2.8,0,5.1,0.9,7,2.7c1.9,1.8,2.9,4.1,2.9,6.7c0,2.6-0.9,4.8-2.8,6.7c-1.9,1.9-4.1,2.8-6.7,2.8c-0.4,0-1,0-1.9-0.1v-7.5
			c0.6,0.5,1.1,0.7,1.7,0.7c0.7,0,1.3-0.3,1.9-0.8c0.5-0.5,0.8-1.1,0.8-1.9c0-0.7-0.3-1.3-0.8-1.8c-0.5-0.5-1.2-0.8-1.9-0.8
			c-1.8,0-2.7,1.2-2.7,3.6V738.4z"/>
		<path class="st11" d="M741.5,713.2v7.3c-0.5-0.3-0.9-0.4-1.3-0.4c-1.3,0-1.9,1-1.9,2.9v8.6h-7v-10c0-2.6,0.7-4.7,2.2-6.3
			c1.5-1.6,3.4-2.3,5.9-2.3C739.9,713,740.7,713.1,741.5,713.2z"/>
		<path class="st11" d="M752.4,713c2.6,0,4.9,0.9,6.8,2.8c1.9,1.9,2.8,4.1,2.8,6.7c0,2.6-1,4.9-2.9,6.7c-1.9,1.9-4.2,2.8-6.9,2.8
			c-2.7,0-5-0.9-6.9-2.8s-2.9-4.1-2.9-6.7c0-2.7,1-4.9,2.9-6.7C747.2,713.9,749.6,713,752.4,713z M752.2,719.8
			c-0.7,0-1.4,0.3-1.9,0.8c-0.5,0.5-0.8,1.2-0.8,1.9c0,0.8,0.3,1.4,0.8,1.9c0.5,0.5,1.2,0.8,1.9,0.8c0.7,0,1.4-0.3,1.9-0.8
			c0.5-0.5,0.8-1.2,0.8-1.9c0-0.8-0.3-1.4-0.8-1.9C753.6,720,753,719.8,752.2,719.8z"/>
	</g>
	<g>
		<path class="st20" d="M774.4,706.7v7h3.1v7.2h-3.1c0,1.5,0.2,2.5,0.7,3c0.5,0.5,1.3,0.8,2.6,0.8v7.2c-0.4,0-0.6,0-0.8,0
			c-1.6,0-3.1-0.4-4.5-1.1s-2.5-1.7-3.4-2.9c-1.1-1.6-1.6-3.7-1.6-6.3v-15H774.4z"/>
		<path class="st20" d="M799.3,723.6h-10.6c-0.2-0.5-0.2-1-0.2-1.4c0-0.6,0.1-1.2,0.3-1.8h3.5c-0.2-1.4-1-2-2.3-2
			c-0.9,0-1.6,0.4-2.1,1.1c-0.5,0.7-0.8,1.7-0.8,2.8c0,1.2,0.3,2.1,0.8,2.9s1.2,1.1,2.1,1.1c0.7,0,1.4-0.3,2-1l4,4.7
			c-1.9,1.4-3.9,2.1-6.2,2.1c-2.8,0-5.1-0.9-7-2.7s-2.8-4.1-2.8-6.7c0-2.7,0.9-4.9,2.8-6.8s4.2-2.8,7-2.8c2.7,0,5,0.9,6.8,2.7
			c1.8,1.8,2.8,4,2.8,6.6C799.3,722.6,799.3,723,799.3,723.6z"/>
		<path class="st20" d="M813.6,738.4v-15c0-2.4-0.9-3.6-2.7-3.6c-0.7,0-1.4,0.3-1.9,0.8c-0.5,0.5-0.8,1.1-0.8,1.8
			c0,0.7,0.3,1.3,0.8,1.9c0.5,0.5,1.1,0.8,1.9,0.8c0.6,0,1.1-0.2,1.7-0.7v7.5c-0.8,0.1-1.4,0.1-1.9,0.1c-2.6,0-4.8-0.9-6.7-2.8
			c-1.9-1.9-2.8-4.1-2.8-6.7c0-2.7,1-4.9,2.9-6.7c1.9-1.8,4.2-2.7,7-2.7c1.4,0,2.8,0.3,4.1,0.9c1.3,0.6,2.4,1.4,3.3,2.4
			c1.5,1.8,2.2,4,2.2,6.8v15.2H813.6z"/>
	</g>
	<line class="st7" x1="714.2" y1="523.8" x2="801.2" y2="608"/>
	<path class="st20" d="M789.9,552.5c-40.8,0-73.9,31.7-74.5,71h37.9c0.6-19.1,16.8-34.4,36.7-34.4c20.3,0,36.7,15.9,36.7,35.5v62.8
		v70.1h37.9V624.6C864.5,584.8,831.1,552.5,789.9,552.5z"/>
	<path class="st11" d="M738.7,552.5c-41.2,0.2-74.2,33.2-74.2,73.1v131.9h37.9v-70.1v-62.2c0-19.7,16.6-36.3,36.9-36.1
		c20.1,0.1,36.3,15.8,36.4,35.3c0.1,19.7-17,35.8-37.3,35.8h-19c-4.8,0-8.8,3.8-8.8,8.5v14c0,4.7,3.9,8.5,8.8,8.5h24.7
		c37.8,0,69.2-29.3,69.5-65.9C813.9,585,780.2,552.3,738.7,552.5z"/>
	<path class="st20" d="M715.4,624.6c0,39.9,33.4,66.4,74.6,66.4h19.7c4.8,0,8.8-3.8,8.8-8.5v-14c0-4.7-3.9-8.5-8.8-8.5h-19.7
		c-20.3,0-36.7-15.9-36.7-35.5c0-0.4,0-0.8,0-1.1h-37.9C715.4,623.9,715.4,624.3,715.4,624.6z"/>
	<ellipse class="st20" cx="738.7" cy="522.7" rx="26" ry="25.2"/>
	<ellipse class="st11" cx="790.7" cy="522.7" rx="26" ry="25.2"/>
</g>
<g>
	<path class="st21" d="M55.8,244.4h-7v-15.2c0-2.8,0.7-5.1,2.2-6.8c0.9-1,1.9-1.8,3.3-2.4c1.3-0.6,2.7-0.9,4.1-0.9
		c2.8,0,5.1,0.9,7,2.7c1.9,1.8,2.9,4.1,2.9,6.7c0,2.6-0.9,4.8-2.8,6.7c-1.9,1.9-4.1,2.8-6.7,2.8c-0.4,0-1,0-1.9-0.1v-7.5
		c0.6,0.5,1.1,0.7,1.7,0.7c0.7,0,1.3-0.3,1.9-0.8c0.5-0.5,0.8-1.1,0.8-1.9c0-0.7-0.3-1.3-0.8-1.8c-0.5-0.5-1.2-0.8-1.9-0.8
		c-1.8,0-2.7,1.2-2.7,3.6V244.4z"/>
	<path class="st21" d="M81.5,219.2v7.3c-0.5-0.3-0.9-0.4-1.3-0.4c-1.3,0-1.9,1-1.9,2.9v8.6h-7v-10c0-2.6,0.7-4.7,2.2-6.3
		c1.5-1.6,3.4-2.3,5.9-2.3C79.9,219,80.7,219.1,81.5,219.2z"/>
	<path class="st21" d="M92.4,219c2.6,0,4.9,0.9,6.8,2.8c1.9,1.9,2.8,4.1,2.8,6.7c0,2.6-1,4.9-2.9,6.7c-1.9,1.9-4.2,2.8-6.9,2.8
		c-2.7,0-5-0.9-6.9-2.8s-2.9-4.1-2.9-6.7c0-2.7,1-4.9,2.9-6.7C87.2,219.9,89.6,219,92.4,219z M92.2,225.8c-0.7,0-1.4,0.3-1.9,0.8
		c-0.5,0.5-0.8,1.2-0.8,1.9c0,0.8,0.3,1.4,0.8,1.9c0.5,0.5,1.2,0.8,1.9,0.8c0.7,0,1.4-0.3,1.9-0.8c0.5-0.5,0.8-1.2,0.8-1.9
		c0-0.8-0.3-1.4-0.8-1.9C93.6,226,93,225.8,92.2,225.8z"/>
</g>
<g>
	<path class="st22" d="M114.4,212.7v7h3.1v7.2h-3.1c0,1.5,0.2,2.5,0.7,3c0.5,0.5,1.3,0.8,2.6,0.8v7.2c-0.4,0-0.6,0-0.8,0
		c-1.6,0-3.1-0.4-4.5-1.1s-2.5-1.7-3.4-2.9c-1.1-1.6-1.6-3.7-1.6-6.3v-15H114.4z"/>
	<path class="st22" d="M139.3,229.6h-10.6c-0.2-0.5-0.2-1-0.2-1.4c0-0.6,0.1-1.2,0.3-1.8h3.5c-0.2-1.4-1-2-2.3-2
		c-0.9,0-1.6,0.4-2.1,1.1c-0.5,0.7-0.8,1.7-0.8,2.8c0,1.2,0.3,2.1,0.8,2.9s1.2,1.1,2.1,1.1c0.7,0,1.4-0.3,2-1l4,4.7
		c-1.9,1.4-3.9,2.1-6.2,2.1c-2.8,0-5.1-0.9-7-2.7s-2.8-4.1-2.8-6.7c0-2.7,0.9-4.9,2.8-6.8s4.2-2.8,7-2.8c2.7,0,5,0.9,6.8,2.7
		c1.8,1.8,2.8,4,2.8,6.6C139.3,228.6,139.3,229,139.3,229.6z"/>
	<path class="st22" d="M153.6,244.4v-15c0-2.4-0.9-3.6-2.7-3.6c-0.7,0-1.4,0.3-1.9,0.8c-0.5,0.5-0.8,1.1-0.8,1.8
		c0,0.7,0.3,1.3,0.8,1.9c0.5,0.5,1.1,0.8,1.9,0.8c0.6,0,1.1-0.2,1.7-0.7v7.5c-0.8,0.1-1.4,0.1-1.9,0.1c-2.6,0-4.8-0.9-6.7-2.8
		c-1.9-1.9-2.8-4.1-2.8-6.7c0-2.7,1-4.9,2.9-6.7c1.9-1.8,4.2-2.7,7-2.7c1.4,0,2.8,0.3,4.1,0.9c1.3,0.6,2.4,1.4,3.3,2.4
		c1.5,1.8,2.2,4,2.2,6.8v15.2H153.6z"/>
</g>
<line class="st7" x1="54.2" y1="29.8" x2="141.2" y2="114"/>
<path class="st22" d="M129.9,58.5c-40.8,0-73.9,31.7-74.5,71h37.9c0.6-19.1,16.8-34.4,36.7-34.4c20.3,0,36.7,15.9,36.7,35.5v62.8
	v70.1h37.9V130.6C204.5,90.8,171.1,58.5,129.9,58.5z"/>
<path class="st21" d="M78.7,58.5C37.5,58.7,4.5,91.7,4.5,131.6l0,131.9h37.9v-70.1v-62.2c0-19.7,16.6-36.3,36.9-36.1
	c20.1,0.1,36.3,15.8,36.4,35.3c0.1,19.7-17,35.8-37.3,35.8h-19c-4.8,0-8.8,3.8-8.8,8.5v14c0,4.7,3.9,8.5,8.8,8.5h24.7
	c37.8,0,69.2-29.3,69.5-65.9C153.9,91,120.2,58.3,78.7,58.5z"/>
<path class="st22" d="M55.4,129.6c0,39.9,33.4,66.4,74.6,66.4h19.7c4.8,0,8.8-3.8,8.8-8.5v-14c0-4.7-3.9-8.5-8.8-8.5h-19.7
	c-20.3,0-36.7-15.9-36.7-35.5c0-0.4,0-0.8,0-1.1H55.4C55.4,128.9,55.4,129.3,55.4,129.6z"/>
<ellipse class="st22" cx="78.7" cy="28.7" rx="26" ry="25.2"/>
<ellipse class="st21" cx="130.7" cy="28.7" rx="26" ry="25.2"/>
<g>
	<path d="M74.8,445.7c-1,0.5-2.9,1-5.3,1c-5.7,0-10-3.6-10-10.2c0-6.3,4.3-10.6,10.6-10.6c2.5,0,4.1,0.5,4.8,0.9l-0.6,2.1
		c-1-0.5-2.4-0.8-4.1-0.8c-4.7,0-7.9,3-7.9,8.3c0,5,2.8,8.1,7.8,8.1c1.6,0,3.2-0.3,4.3-0.8L74.8,445.7z"/>
	<path d="M90.8,439c0,5.4-3.7,7.7-7.2,7.7c-3.9,0-7-2.9-7-7.5c0-4.9,3.2-7.7,7.2-7.7C88,431.5,90.8,434.6,90.8,439z M79.3,439.2
		c0,3.2,1.8,5.6,4.4,5.6c2.5,0,4.4-2.4,4.4-5.6c0-2.5-1.2-5.6-4.4-5.6C80.6,433.5,79.3,436.4,79.3,439.2z"/>
	<path d="M94.1,425.1h2.6v21.3h-2.6V425.1z"/>
	<path d="M114.3,439c0,5.4-3.7,7.7-7.2,7.7c-3.9,0-7-2.9-7-7.5c0-4.9,3.2-7.7,7.2-7.7C111.5,431.5,114.3,434.6,114.3,439z
		 M102.8,439.2c0,3.2,1.8,5.6,4.4,5.6c2.5,0,4.4-2.4,4.4-5.6c0-2.5-1.2-5.6-4.4-5.6C104.2,433.5,102.8,436.4,102.8,439.2z"/>
	<path d="M117.7,436.4c0-1.7,0-3.2-0.1-4.5h2.3l0.1,2.8h0.1c0.7-1.9,2.3-3.2,4-3.2c0.3,0,0.5,0,0.8,0.1v2.5
		c-0.3-0.1-0.5-0.1-0.9-0.1c-1.9,0-3.2,1.4-3.5,3.4c-0.1,0.4-0.1,0.8-0.1,1.2v7.7h-2.6V436.4z"/>
	<path d="M133.7,446.4c0.1-1,0.1-2.5,0.1-3.8v-17.5h2.6v9.1h0.1c0.9-1.6,2.6-2.7,5-2.7c3.6,0,6.1,3,6.1,7.4c0,5.2-3.3,7.8-6.5,7.8
		c-2.1,0-3.8-0.8-4.9-2.7h-0.1l-0.1,2.4H133.7z M136.5,440.6c0,0.3,0.1,0.7,0.1,1c0.5,1.8,2,3.1,4,3.1c2.8,0,4.4-2.3,4.4-5.6
		c0-2.9-1.5-5.4-4.3-5.4c-1.8,0-3.5,1.2-4,3.2c-0.1,0.3-0.2,0.7-0.2,1.1V440.6z"/>
	<path d="M159,446.4l-0.2-1.8h-0.1c-0.8,1.1-2.4,2.2-4.4,2.2c-2.9,0-4.4-2.1-4.4-4.2c0-3.5,3.1-5.4,8.7-5.4v-0.3
		c0-1.2-0.3-3.4-3.3-3.4c-1.3,0-2.8,0.4-3.8,1.1l-0.6-1.7c1.2-0.8,2.9-1.3,4.8-1.3c4.4,0,5.5,3,5.5,5.9v5.4c0,1.3,0.1,2.5,0.2,3.5
		H159z M158.6,439c-2.9-0.1-6.2,0.5-6.2,3.3c0,1.7,1.1,2.5,2.5,2.5c1.9,0,3.1-1.2,3.5-2.4c0.1-0.3,0.2-0.6,0.2-0.8V439z"/>
	<path d="M175.7,445.9c-0.7,0.4-2.2,0.8-4.2,0.8c-4.4,0-7.2-3-7.2-7.4c0-4.5,3.1-7.7,7.8-7.7c1.6,0,2.9,0.4,3.7,0.8l-0.6,2
		c-0.6-0.4-1.6-0.7-3.1-0.7c-3.3,0-5.1,2.5-5.1,5.5c0,3.4,2.2,5.4,5,5.4c1.5,0,2.5-0.4,3.2-0.7L175.7,445.9z"/>
	<path d="M181.4,438.5L181.4,438.5c0.4-0.5,0.9-1.1,1.3-1.7l4.3-5h3.2l-5.6,6l6.4,8.5h-3.2l-5-7l-1.3,1.5v5.5h-2.6v-21.3h2.6V438.5z
		"/>
	<path d="M205.4,431.9c-0.1,1-0.1,2.2-0.1,4v8.4c0,3.3-0.7,5.4-2.1,6.6c-1.4,1.3-3.5,1.7-5.3,1.7c-1.7,0-3.7-0.4-4.8-1.2l0.7-2
		c1,0.6,2.5,1.1,4.3,1.1c2.7,0,4.7-1.4,4.7-5.1v-1.6h-0.1c-0.8,1.4-2.4,2.4-4.6,2.4c-3.6,0-6.2-3.1-6.2-7.1c0-4.9,3.2-7.7,6.5-7.7
		c2.5,0,3.9,1.3,4.5,2.5h0.1l0.1-2.2H205.4z M202.7,437.6c0-0.4,0-0.8-0.2-1.2c-0.5-1.5-1.8-2.8-3.7-2.8c-2.5,0-4.3,2.1-4.3,5.5
		c0,2.9,1.4,5.2,4.3,5.2c1.6,0,3.1-1,3.7-2.7c0.1-0.5,0.2-1,0.2-1.4V437.6z"/>
	<path d="M209.5,436.4c0-1.7,0-3.2-0.1-4.5h2.3l0.1,2.8h0.1c0.7-1.9,2.3-3.2,4-3.2c0.3,0,0.5,0,0.8,0.1v2.5
		c-0.3-0.1-0.5-0.1-0.9-0.1c-1.9,0-3.2,1.4-3.5,3.4c-0.1,0.4-0.1,0.8-0.1,1.2v7.7h-2.6V436.4z"/>
	<path d="M217.1,444.8c0-1.1,0.8-1.9,1.8-1.9c1.1,0,1.8,0.8,1.8,1.9c0,1.1-0.7,1.9-1.8,1.9C217.8,446.7,217.1,445.9,217.1,444.8z"/>
</g>
<g>
	<path d="M40.8-21.3c-1,0.5-2.9,1-5.3,1c-5.7,0-10-3.6-10-10.2c0-6.3,4.3-10.6,10.6-10.6c2.5,0,4.1,0.5,4.8,0.9l-0.6,2.1
		c-1-0.5-2.4-0.8-4.1-0.8c-4.7,0-7.9,3-7.9,8.3c0,5,2.8,8.1,7.8,8.1c1.6,0,3.2-0.3,4.3-0.8L40.8-21.3z"/>
	<path d="M56.8-28c0,5.4-3.7,7.7-7.2,7.7c-3.9,0-7-2.9-7-7.5c0-4.9,3.2-7.7,7.2-7.7C54-35.5,56.8-32.4,56.8-28z M45.3-27.8
		c0,3.2,1.8,5.6,4.4,5.6c2.5,0,4.4-2.4,4.4-5.6c0-2.5-1.2-5.6-4.4-5.6C46.6-33.5,45.3-30.6,45.3-27.8z"/>
	<path d="M60.1-41.9h2.6v21.3h-2.6V-41.9z"/>
	<path d="M80.3-28c0,5.4-3.7,7.7-7.2,7.7c-3.9,0-7-2.9-7-7.5c0-4.9,3.2-7.7,7.2-7.7C77.5-35.5,80.3-32.4,80.3-28z M68.8-27.8
		c0,3.2,1.8,5.6,4.4,5.6c2.5,0,4.4-2.4,4.4-5.6c0-2.5-1.2-5.6-4.4-5.6C70.2-33.5,68.8-30.6,68.8-27.8z"/>
	<path d="M83.7-30.6c0-1.7,0-3.2-0.1-4.5h2.3l0.1,2.8h0.1c0.7-1.9,2.3-3.2,4-3.2c0.3,0,0.5,0,0.8,0.1v2.5c-0.3-0.1-0.5-0.1-0.9-0.1
		c-1.9,0-3.2,1.4-3.5,3.4c-0.1,0.4-0.1,0.8-0.1,1.2v7.7h-2.6V-30.6z"/>
	<path d="M99.7-20.6c0.1-1,0.1-2.5,0.1-3.8v-17.5h2.6v9.1h0.1c0.9-1.6,2.6-2.7,5-2.7c3.6,0,6.1,3,6.1,7.4c0,5.2-3.3,7.8-6.5,7.8
		c-2.1,0-3.8-0.8-4.9-2.7h-0.1l-0.1,2.4H99.7z M102.5-26.4c0,0.3,0.1,0.7,0.1,1c0.5,1.8,2,3.1,4,3.1c2.8,0,4.4-2.3,4.4-5.6
		c0-2.9-1.5-5.4-4.3-5.4c-1.8,0-3.5,1.2-4,3.2c-0.1,0.3-0.2,0.7-0.2,1.1V-26.4z"/>
	<path d="M125-20.6l-0.2-1.8h-0.1c-0.8,1.1-2.4,2.2-4.4,2.2c-2.9,0-4.4-2.1-4.4-4.2c0-3.5,3.1-5.4,8.7-5.4v-0.3
		c0-1.2-0.3-3.4-3.3-3.4c-1.3,0-2.8,0.4-3.8,1.1l-0.6-1.7c1.2-0.8,2.9-1.3,4.8-1.3c4.4,0,5.5,3,5.5,5.9v5.4c0,1.3,0.1,2.5,0.2,3.5
		H125z M124.6-28c-2.9-0.1-6.2,0.5-6.2,3.3c0,1.7,1.1,2.5,2.5,2.5c1.9,0,3.1-1.2,3.5-2.4c0.1-0.3,0.2-0.6,0.2-0.8V-28z"/>
	<path d="M141.7-21.1c-0.7,0.4-2.2,0.8-4.2,0.8c-4.4,0-7.2-3-7.2-7.4c0-4.5,3.1-7.7,7.8-7.7c1.6,0,2.9,0.4,3.7,0.8l-0.6,2
		c-0.6-0.4-1.6-0.7-3.1-0.7c-3.3,0-5.1,2.5-5.1,5.5c0,3.4,2.2,5.4,5,5.4c1.5,0,2.5-0.4,3.2-0.7L141.7-21.1z"/>
	<path d="M147.4-28.5L147.4-28.5c0.4-0.5,0.9-1.1,1.3-1.7l4.3-5h3.2l-5.6,6l6.4,8.5h-3.2l-5-7l-1.3,1.5v5.5h-2.6v-21.3h2.6V-28.5z"
		/>
	<path d="M171.4-35.1c-0.1,1-0.1,2.2-0.1,4v8.4c0,3.3-0.7,5.4-2.1,6.6c-1.4,1.3-3.5,1.7-5.3,1.7c-1.7,0-3.7-0.4-4.8-1.2l0.7-2
		c1,0.6,2.5,1.1,4.3,1.1c2.7,0,4.7-1.4,4.7-5.1v-1.6h-0.1c-0.8,1.4-2.4,2.4-4.6,2.4c-3.6,0-6.2-3.1-6.2-7.1c0-4.9,3.2-7.7,6.5-7.7
		c2.5,0,3.9,1.3,4.5,2.5h0.1l0.1-2.2H171.4z M168.7-29.4c0-0.4,0-0.8-0.2-1.2c-0.5-1.5-1.8-2.8-3.7-2.8c-2.5,0-4.3,2.1-4.3,5.5
		c0,2.9,1.4,5.2,4.3,5.2c1.6,0,3.1-1,3.7-2.7c0.1-0.5,0.2-1,0.2-1.4V-29.4z"/>
	<path d="M175.5-30.6c0-1.7,0-3.2-0.1-4.5h2.3l0.1,2.8h0.1c0.7-1.9,2.3-3.2,4-3.2c0.3,0,0.5,0,0.8,0.1v2.5c-0.3-0.1-0.5-0.1-0.9-0.1
		c-1.9,0-3.2,1.4-3.5,3.4c-0.1,0.4-0.1,0.8-0.1,1.2v7.7h-2.6V-30.6z"/>
	<path d="M183.1-22.2c0-1.1,0.8-1.9,1.8-1.9c1.1,0,1.8,0.8,1.8,1.9c0,1.1-0.7,1.9-1.8,1.9C183.8-20.3,183.1-21.1,183.1-22.2z"/>
</g>
<g>
	<path d="M350,446.4l-5.1-20.2h2.8l2.4,10.2c0.6,2.5,1.1,5,1.5,7h0.1c0.3-2,1-4.4,1.6-7l2.7-10.2h2.7l2.5,10.3
		c0.6,2.4,1.1,4.8,1.4,6.9h0.1c0.4-2.2,1-4.5,1.6-7l2.7-10.2h2.7l-5.7,20.2h-2.7l-2.5-10.5c-0.6-2.6-1.1-4.6-1.3-6.6h-0.1
		c-0.4,2-0.8,4-1.6,6.6l-2.9,10.5H350z"/>
	<path d="M371.8,425.1h2.6v9.1h0.1c0.4-0.8,1.1-1.4,1.9-1.9c0.8-0.5,1.7-0.8,2.7-0.8c2,0,5.1,1.2,5.1,6.2v8.6h-2.6v-8.3
		c0-2.3-0.9-4.3-3.4-4.3c-1.7,0-3.1,1.2-3.5,2.6c-0.2,0.4-0.2,0.8-0.2,1.3v8.8h-2.6V425.1z"/>
	<path d="M391.4,427.8c0,0.9-0.6,1.6-1.7,1.6c-0.9,0-1.6-0.7-1.6-1.6c0-0.9,0.7-1.6,1.6-1.6C390.8,426.1,391.4,426.9,391.4,427.8z
		 M388.5,446.4v-14.5h2.6v14.5H388.5z"/>
	<path d="M398.7,427.7v4.2h3.8v2h-3.8v7.8c0,1.8,0.5,2.8,2,2.8c0.7,0,1.2-0.1,1.5-0.2l0.1,2c-0.5,0.2-1.3,0.4-2.3,0.4
		c-1.2,0-2.2-0.4-2.9-1.1c-0.8-0.8-1-2.1-1-3.8v-7.9h-2.3v-2h2.3v-3.5L398.7,427.7z"/>
	<path d="M406.7,439.6c0.1,3.6,2.3,5,5,5c1.9,0,3-0.3,4-0.8l0.5,1.9c-0.9,0.4-2.5,0.9-4.8,0.9c-4.5,0-7.1-2.9-7.1-7.3
		s2.6-7.8,6.8-7.8c4.7,0,6,4.2,6,6.8c0,0.5-0.1,1-0.1,1.2H406.7z M414.4,437.7c0-1.7-0.7-4.3-3.7-4.3c-2.7,0-3.8,2.5-4,4.3H414.4z"
		/>
	<path d="M426.5,446.4c0.1-1,0.1-2.5,0.1-3.8v-17.5h2.6v9.1h0.1c0.9-1.6,2.6-2.7,5-2.7c3.6,0,6.1,3,6.1,7.4c0,5.2-3.3,7.8-6.5,7.8
		c-2.1,0-3.8-0.8-4.9-2.7h-0.1l-0.1,2.4H426.5z M429.2,440.6c0,0.3,0.1,0.7,0.1,1c0.5,1.8,2,3.1,4,3.1c2.8,0,4.4-2.3,4.4-5.6
		c0-2.9-1.5-5.4-4.3-5.4c-1.8,0-3.5,1.2-4,3.2c-0.1,0.3-0.2,0.7-0.2,1.1V440.6z"/>
	<path d="M451.7,446.4l-0.2-1.8h-0.1c-0.8,1.1-2.4,2.2-4.4,2.2c-2.9,0-4.4-2.1-4.4-4.2c0-3.5,3.1-5.4,8.7-5.4v-0.3
		c0-1.2-0.3-3.4-3.3-3.4c-1.3,0-2.8,0.4-3.8,1.1l-0.6-1.7c1.2-0.8,2.9-1.3,4.8-1.3c4.4,0,5.5,3,5.5,5.9v5.4c0,1.3,0.1,2.5,0.2,3.5
		H451.7z M451.3,439c-2.9-0.1-6.2,0.5-6.2,3.3c0,1.7,1.1,2.5,2.5,2.5c1.9,0,3.1-1.2,3.5-2.4c0.1-0.3,0.2-0.6,0.2-0.8V439z"/>
	<path d="M468.5,445.9c-0.7,0.4-2.2,0.8-4.2,0.8c-4.4,0-7.2-3-7.2-7.4c0-4.5,3.1-7.7,7.8-7.7c1.6,0,2.9,0.4,3.7,0.8l-0.6,2
		c-0.6-0.4-1.6-0.7-3.1-0.7c-3.3,0-5.1,2.5-5.1,5.5c0,3.4,2.2,5.4,5,5.4c1.5,0,2.5-0.4,3.2-0.7L468.5,445.9z"/>
	<path d="M474.2,438.5L474.2,438.5c0.4-0.5,0.9-1.1,1.3-1.7l4.3-5h3.2l-5.6,6l6.4,8.5h-3.2l-5-7l-1.3,1.5v5.5h-2.6v-21.3h2.6V438.5z
		"/>
	<path d="M498.2,431.9c-0.1,1-0.1,2.2-0.1,4v8.4c0,3.3-0.7,5.4-2.1,6.6c-1.4,1.3-3.5,1.7-5.3,1.7c-1.7,0-3.7-0.4-4.8-1.2l0.7-2
		c1,0.6,2.5,1.1,4.3,1.1c2.7,0,4.7-1.4,4.7-5.1v-1.6h-0.1c-0.8,1.4-2.4,2.4-4.6,2.4c-3.6,0-6.2-3.1-6.2-7.1c0-4.9,3.2-7.7,6.5-7.7
		c2.5,0,3.9,1.3,4.5,2.5h0.1l0.1-2.2H498.2z M495.4,437.6c0-0.4,0-0.8-0.2-1.2c-0.5-1.5-1.8-2.8-3.7-2.8c-2.5,0-4.3,2.1-4.3,5.5
		c0,2.9,1.4,5.2,4.3,5.2c1.6,0,3.1-1,3.7-2.7c0.1-0.5,0.2-1,0.2-1.4V437.6z"/>
	<path d="M502.2,436.4c0-1.7,0-3.2-0.1-4.5h2.3l0.1,2.8h0.1c0.7-1.9,2.3-3.2,4-3.2c0.3,0,0.5,0,0.8,0.1v2.5
		c-0.3-0.1-0.5-0.1-0.9-0.1c-1.9,0-3.2,1.4-3.5,3.4c-0.1,0.4-0.1,0.8-0.1,1.2v7.7h-2.6V436.4z"/>
	<path d="M509.8,444.8c0-1.1,0.8-1.9,1.8-1.9c1.1,0,1.8,0.8,1.8,1.9c0,1.1-0.7,1.9-1.8,1.9C510.6,446.7,509.8,445.9,509.8,444.8z"/>
</g>
<rect x="892" y="405" width="210" height="270"/>
<g>
	<path class="st11" d="M91.8,711.4h-7v-15.2c0-2.8,0.7-5.1,2.2-6.8c0.9-1,1.9-1.8,3.3-2.4c1.3-0.6,2.7-0.9,4.1-0.9
		c2.8,0,5.1,0.9,7,2.7c1.9,1.8,2.9,4.1,2.9,6.7c0,2.6-0.9,4.8-2.8,6.7c-1.9,1.9-4.1,2.8-6.7,2.8c-0.4,0-1,0-1.9-0.1v-7.5
		c0.6,0.5,1.1,0.7,1.7,0.7c0.7,0,1.3-0.3,1.9-0.8c0.5-0.5,0.8-1.1,0.8-1.9c0-0.7-0.3-1.3-0.8-1.8c-0.5-0.5-1.2-0.8-1.9-0.8
		c-1.8,0-2.7,1.2-2.7,3.6V711.4z"/>
	<path class="st11" d="M117.5,686.2v7.3c-0.5-0.3-0.9-0.4-1.3-0.4c-1.3,0-1.9,1-1.9,2.9v8.6h-7v-10c0-2.6,0.7-4.7,2.2-6.3
		c1.5-1.6,3.4-2.3,5.9-2.3C115.9,686,116.7,686.1,117.5,686.2z"/>
	<path class="st11" d="M128.4,686c2.6,0,4.9,0.9,6.8,2.8c1.9,1.9,2.8,4.1,2.8,6.7c0,2.6-1,4.9-2.9,6.7c-1.9,1.9-4.2,2.8-6.9,2.8
		c-2.7,0-5-0.9-6.9-2.8s-2.9-4.1-2.9-6.7c0-2.7,1-4.9,2.9-6.7C123.2,686.9,125.6,686,128.4,686z M128.2,692.8
		c-0.7,0-1.4,0.3-1.9,0.8c-0.5,0.5-0.8,1.2-0.8,1.9c0,0.8,0.3,1.4,0.8,1.9c0.5,0.5,1.2,0.8,1.9,0.8c0.7,0,1.4-0.3,1.9-0.8
		c0.5-0.5,0.8-1.2,0.8-1.9c0-0.8-0.3-1.4-0.8-1.9C129.6,693,129,692.8,128.2,692.8z"/>
</g>
<g>
	<path class="st20" d="M150.4,679.7v7h3.1v7.2h-3.1c0,1.5,0.2,2.5,0.7,3c0.5,0.5,1.3,0.8,2.6,0.8v7.2c-0.4,0-0.6,0-0.8,0
		c-1.6,0-3.1-0.4-4.5-1.1s-2.5-1.7-3.4-2.9c-1.1-1.6-1.6-3.7-1.6-6.3v-15H150.4z"/>
	<path class="st20" d="M175.3,696.6h-10.6c-0.2-0.5-0.2-1-0.2-1.4c0-0.6,0.1-1.2,0.3-1.8h3.5c-0.2-1.4-1-2-2.3-2
		c-0.9,0-1.6,0.4-2.1,1.1c-0.5,0.7-0.8,1.7-0.8,2.8c0,1.2,0.3,2.1,0.8,2.9s1.2,1.1,2.1,1.1c0.7,0,1.4-0.3,2-1l4,4.7
		c-1.9,1.4-3.9,2.1-6.2,2.1c-2.8,0-5.1-0.9-7-2.7s-2.8-4.1-2.8-6.7c0-2.7,0.9-4.9,2.8-6.8s4.2-2.8,7-2.8c2.7,0,5,0.9,6.8,2.7
		c1.8,1.8,2.8,4,2.8,6.6C175.3,695.6,175.3,696,175.3,696.6z"/>
	<path class="st20" d="M189.6,711.4v-15c0-2.4-0.9-3.6-2.7-3.6c-0.7,0-1.4,0.3-1.9,0.8c-0.5,0.5-0.8,1.1-0.8,1.8
		c0,0.7,0.3,1.3,0.8,1.9c0.5,0.5,1.1,0.8,1.9,0.8c0.6,0,1.1-0.2,1.7-0.7v7.5c-0.8,0.1-1.4,0.1-1.9,0.1c-2.6,0-4.8-0.9-6.7-2.8
		c-1.9-1.9-2.8-4.1-2.8-6.7c0-2.7,1-4.9,2.9-6.7c1.9-1.8,4.2-2.7,7-2.7c1.4,0,2.8,0.3,4.1,0.9c1.3,0.6,2.4,1.4,3.3,2.4
		c1.5,1.8,2.2,4,2.2,6.8v15.2H189.6z"/>
</g>
<line class="st7" x1="90.2" y1="496.8" x2="177.2" y2="581"/>
<path class="st20" d="M165.9,525.5c-40.8,0-73.9,31.7-74.5,71h37.9c0.6-19.1,16.8-34.4,36.7-34.4c20.3,0,36.7,15.9,36.7,35.5v62.8
	v70.1h37.9V597.6C240.5,557.8,207.1,525.5,165.9,525.5z"/>
<path class="st11" d="M114.7,525.5c-41.2,0.2-74.2,33.2-74.2,73.1v131.9h37.9v-70.1v-62.2c0-19.7,16.6-36.3,36.9-36.1
	c20.1,0.1,36.3,15.8,36.4,35.3c0.1,19.7-17,35.8-37.3,35.8h-19c-4.8,0-8.8,3.8-8.8,8.5v14c0,4.7,3.9,8.5,8.8,8.5h24.7
	c37.8,0,69.2-29.3,69.5-65.9C189.9,558,156.2,525.3,114.7,525.5z"/>
<path class="st20" d="M91.4,596.6c0,39.9,33.4,66.4,74.6,66.4h19.7c4.8,0,8.8-3.8,8.8-8.5v-14c0-4.7-3.9-8.5-8.8-8.5h-19.7
	c-20.3,0-36.7-15.9-36.7-35.5c0-0.4,0-0.8,0-1.1H91.4C91.4,595.9,91.4,596.3,91.4,596.6z"/>
<ellipse class="st20" cx="114.7" cy="495.7" rx="26" ry="25.2"/>
<ellipse class="st11" cx="166.7" cy="495.7" rx="26" ry="25.2"/>
<g>
</g>
<g>
</g>
<g>
</g>
<g>
</g>
<g>
</g>
<g>
</g>
<g>
</g>
<g>
</g>
<g>
</g>
<g>
</g>
<g>
</g>
<g>
</g>
<g>
</g>
<g>
</g>
<g>
</g>
</svg>
