<?xml version="1.0" encoding="utf-8"?>
<!-- Generator: Adobe Illustrator 23.0.2, SVG Export Plug-In . SVG Version: 6.00 Build 0)  -->
<svg version="1.1" id="Layer_1" xmlns="http://www.w3.org/2000/svg" xmlns:xlink="http://www.w3.org/1999/xlink" x="0px" y="0px"
	 viewBox="0 0 100 80" style="enable-background:new 0 0 100 80;" xml:space="preserve">
<style type="text/css">
	.st0{fill:#022859;stroke:#CCCCCC;stroke-width:1.5349;stroke-miterlimit:10;}
	.st1{fill:#022859;stroke:#CCCCCC;stroke-miterlimit:10;}
	.st2{fill:#2E78A6;stroke:#CCCCCC;stroke-miterlimit:10;}
	.st3{fill:#6AAED9;stroke:#CCCCCC;stroke-miterlimit:10;}
	.st4{fill:#ACD7F2;stroke:#CCCCCC;stroke-miterlimit:10;}
	.st5{fill:#F2F2F2;stroke:#CCCCCC;stroke-miterlimit:10;}
	.st6{fill:#FF931E;stroke:#CCCCCC;stroke-miterlimit:10;}
	.st7{fill:#FF1D25;stroke:#CCCCCC;stroke-miterlimit:10;}
	.st8{fill:#7AC943;stroke:#CCCCCC;stroke-miterlimit:10;}
	.st9{fill:#022859;}
	.st10{fill:#FF931E;}
	.st11{fill:#F2F2F2;}
	.st12{fill:none;stroke:#132958;stroke-width:4;stroke-miterlimit:10;}
	.st13{fill:none;stroke:#132958;stroke-width:4.1021;stroke-miterlimit:10;}
	.st14{fill:none;stroke:#132958;stroke-width:2;stroke-miterlimit:10;}
	.st15{fill:#132958;stroke:#132958;stroke-width:0.25;stroke-miterlimit:10;}
</style>
<ellipse class="st0" cx="-331.1" cy="-219.8" rx="96.8" ry="70.6"/>
<g>
	<rect x="-12" y="-214" class="st1" width="26" height="24.1"/>
	<rect x="26" y="-214" class="st2" width="26" height="24.1"/>
	<rect x="64" y="-214" class="st3" width="26" height="24.1"/>
	<rect x="102" y="-214" class="st4" width="26" height="24.1"/>
	<rect x="140" y="-214" class="st5" width="26" height="24.1"/>
</g>
<rect x="-12" y="-243" class="st6" width="26" height="24.1"/>
<rect x="26" y="-243" class="st7" width="26" height="24.1"/>
<rect x="64" y="-243" class="st8" width="26" height="24.1"/>
<path class="st9" d="M315-38.7c-1.6-2.2-3.7-3.7-5.9-4.4c-0.9-0.3-1.9-0.5-2.3-1.6c-0.2-0.5-0.3-1.1-0.5-1.5
	c-0.5-0.9-1.4-0.8-2.1-1.3c-0.9-0.7-1.3-2.5-1.2-4s0.4-3.1,0.4-4.7c0-4.3-2.7-7.4-5.3-9.2c-3.5-2.4-7.5-3.5-10.6-7
	c-1-1.1-1.8-2.4-2.9-3.4c-2.7-2.6-6.1-2.6-9.1-4.4c-2.9-1.7-5.5-6.2-8.6-5.9c-1.4,0.2-5.3,2.4-6.6,3.2c-4.8,3.1-7.2,5.1-12.4,5.9
	c-0.6,0.1-1.2,0.2-1.7,0.8c-0.2,0.3-0.4,0.8-0.6,1.2c-1.2,2.5-3.8,2-5.8,1.7c-2.4-0.4-4.8-0.2-7.1,0.6c-0.5,0.2-1,0.4-1.4,0.8
	c-0.3,0.3-0.6,2.9-0.9,3.4c-3,5-6.1,7.9-9.1,12.9c-0.9,1.4-2.2,3-3.4,2c0.6,1.1,1.7,0.8,2.6,0.5c1.3-0.4,2.6-0.7,3.9-1.1
	c0.6-0.2,1.3-0.3,1.8,0.2c0.3,0.3,0.5,0.8,0.6,1.2c0.7,1.7,0.5,2.1,1.5,3.2c0.6-0.8,0.9-1,0.7-2.1c-0.1-0.8,0.1-1.6,0.4-2.3
	c0.9-2.4,2.1-4.5,3.6-6c1.3-1.3,2.8-2.4,3.4-4.4c0.2-0.5,0.3-1.1,0.6-1.4c0.4-0.4,1,0,1.3,0.7c0.2,0.6,0.3,1.4,0.2,2.1
	c-0.1,2.5-0.4,5-0.9,7.5c-0.2,0.9-0.4,1.7-0.4,2.7s0.3,1.9,0.9,2.2c0.1-3.1,1.9-5.4,2.6-8.4c0.3-1.2,0.3-2.4,0.6-3.6
	c0.2-1.2,0.7-2.4,1.5-2.8c0.7-0.4,1.5,0,2.2-0.4c0.8-0.4,1.4-1.5,1.9-2.6c0.8-1.6,1.7-3.1,2.9-3.9c1.4-1.1,3.1-1.1,4.7-1.2
	c0.2,0,0.5,0,0.6,0.2c0.2,0.2,0.2,0.6,0.2,0.9c0.1,3.5,0.2,4.9,0,8.5c-0.4-1.3-0.1-0.7,0.5-1.9c0.6-1.2,1.3-2.1,1.7-3.4
	c0.4-1.4,0.8-3.4,1.9-3.2c0.7,0.1,1.1,1.4,1.2,2.4c0.5,2.7,1,2.3,1.5,5c-0.3-0.9,0.4-1.1,0.9-1.8c0.5-0.7,1.1-1.2,1.5-1.9
	c1.1-2,0.4-2.9-0.4-5.2c-0.3-0.7-0.6-1.6-0.4-2.4c0.1-0.4,0.3-0.8,0.6-1.1c0.9-1.2,2-2.1,3.1-2.5c0.2-0.1,0.5-0.2,0.7-0.1
	s0.4,0.4,0.6,0.6c1.4,1.9,3.4,2.5,4.7,4.6c0.6,1,1,2.4,1.4,3.7c1.5,4.9,1.9,3.6,3.3,8.5c1.1-4.4-0.1-2.8,0.2-7.5
	c0-0.3,0.1-0.7,0.2-1c0.2-0.4,0.6-0.6,0.9-0.6c1.2-0.3,2.4,0.3,3.6,0.9c1.6,0.9,3.3,2.1,4.5,3.9c1.3,1.8,2.1,4.2,2.7,6.7
	c0.9,3.8,1.1,7.9,1.6,11.8c0.1,0.8,0.4,1.9,1,1.8c0-3.9-0.5-7.9-1.5-11.5c-0.6-2.2-0.6-4.6-1-6.8c1-0.6,2.1,0.6,3.2,1
	c0.5,0.2,1,0.2,1.6,0.3c1.9,0.5,3.6,2.7,4.2,5.5c0.2,0.9,0.2,1.8,0.3,2.7c0.2,2.3,0.3,4.6,0.4,6.8c0.1,1.9,0,3.8,0.4,5.6
	c-0.5-2.3,1.6-4.7,0.8-6.8c-0.1-0.3-0.3-0.6-0.4-0.9s0-0.8,0.2-0.9c1,1.8,1.8,3.8,2.3,5.9c0.6,2.3,1.8,4.8,3.5,5
	c0.6,0.1,1.2,0,1.8,0.3c0.2,0.1,0.4,0.3,0.6,0.4c0.2,0.1,0.5,0.2,0.7,0.2c0.8,0.1,1.6,0,2.4,0.1C313.1-39.7,314.4-39.5,315-38.7z"/>
<g>
	<path class="st10" d="M249.8-25.2c0-0.1,0.1-0.2,0.2-0.2h2.7c1.4,0,2.5,0.9,2.5,2.2c0,0.9-0.8,1.5-1.3,1.8c0.6,0.3,1.6,0.8,1.6,1.9
		c0,1.3-1.1,2.2-2.5,2.2h-3c-0.1,0-0.2-0.1-0.2-0.2V-25.2z M252.5-22.2c0.4,0,0.8-0.4,0.8-0.8c0-0.5-0.4-0.8-0.8-0.8h-0.9v1.6
		C251.6-22.2,252.5-22.2,252.5-22.2z M252.6-19c0.5,0,0.8-0.4,0.8-0.8c0-0.5-0.5-0.8-0.9-0.8h-0.9v1.7h1V-19z"/>
	<path class="st10" d="M258.4-22.1c1.2,0,2.2,0.9,2.2,2.2c0,0.1,0,0.2,0,0.3c0,0.1-0.1,0.2-0.2,0.2h-2.8c0,0.3,0.3,0.8,0.9,0.8
		c0.3,0,0.6-0.1,0.8-0.3c0.1-0.1,0.2-0.1,0.3,0l0.6,0.7c0.1,0.1,0.1,0.2,0,0.3c-0.4,0.4-1,0.7-1.7,0.7c-1.4,0-2.4-1.1-2.4-2.4
		C256-21,257-22.1,258.4-22.1z M259-20.3c0-0.3-0.3-0.5-0.6-0.5c-0.3,0-0.6,0.2-0.6,0.5H259z"/>
	<path class="st10" d="M261.4-24.3c0-0.5,0.4-0.9,0.9-0.9s0.9,0.4,0.9,0.9s-0.4,0.9-0.9,0.9S261.4-23.8,261.4-24.3z M261.5-21.8
		c0-0.1,0.1-0.2,0.2-0.2h1.3c0.1,0,0.2,0.1,0.2,0.2v4.2c0,0.1-0.1,0.2-0.2,0.2h-1.3c-0.1,0-0.2-0.1-0.2-0.2V-21.8z"/>
	<path class="st10" d="M264.6-20.5h-0.3c-0.1,0-0.2-0.1-0.2-0.2v-1c0-0.1,0.1-0.2,0.2-0.2h0.3v-1.3c0-0.1,0.1-0.2,0.2-0.2h1.2
		c0.1,0,0.2,0.1,0.2,0.2v1.3h0.9c0.1,0,0.2,0.1,0.2,0.2v1c0,0.1-0.1,0.2-0.2,0.2h-0.9v1.4c0,0.3,0.2,0.3,0.3,0.3
		c0.2,0,0.3-0.1,0.5-0.1c0.1,0,0.2,0,0.3,0.2l0.3,1c0,0.1,0,0.2-0.2,0.3c0,0-0.8,0.3-1.4,0.3c-0.9,0-1.4-0.6-1.4-1.6V-20.5z"/>
	<path class="st10" d="M270.5-22.1c1.3,0,2.4,1.1,2.4,2.4s-1.1,2.4-2.4,2.4s-2.4-1.1-2.4-2.4C268-21,269.1-22.1,270.5-22.1z
		 M270.5-18.7c0.5,0,0.9-0.4,0.9-1c0-0.5-0.4-0.9-0.9-0.9s-0.9,0.4-0.9,0.9C269.5-19.1,269.9-18.7,270.5-18.7z"/>
	<path class="st10" d="M273.5-17.9l0.4-0.8c0-0.1,0.2-0.1,0.2-0.1s0.5,0.3,1,0.3c0.1,0,0.2-0.1,0.2-0.2s-0.1-0.3-0.7-0.5
		c-0.9-0.3-1.3-0.8-1.3-1.6c0-0.8,0.6-1.4,1.8-1.4c0.7,0,1.3,0.2,1.5,0.4c0.1,0.1,0.2,0.2,0.1,0.3l-0.4,0.8c0,0.1-0.2,0.1-0.2,0.1
		s-0.5-0.3-1-0.3c-0.2,0-0.3,0-0.3,0.2c0,0.1,0.1,0.2,0.5,0.4c0.9,0.3,1.6,0.7,1.6,1.6c0,0.8-0.6,1.5-2,1.5c-0.8,0-1.3-0.2-1.6-0.4
		C273.5-17.7,273.5-17.7,273.5-17.9z"/>
	<path class="st10" d="M278.2-20.5h-0.3c-0.1,0-0.2-0.1-0.2-0.2v-1c0-0.1,0.1-0.2,0.2-0.2h0.3v-1.3c0-0.1,0.1-0.2,0.2-0.2h1.2
		c0.1,0,0.2,0.1,0.2,0.2v1.3h0.9c0.1,0,0.2,0.1,0.2,0.2v1c0,0.1-0.1,0.2-0.2,0.2h-0.9v1.4c0,0.3,0.2,0.3,0.3,0.3
		c0.2,0,0.3-0.1,0.5-0.1c0.1,0,0.2,0,0.3,0.2l0.3,1c0,0.1,0,0.2-0.2,0.3c0,0-0.8,0.3-1.4,0.3c-0.9,0-1.4-0.6-1.4-1.6V-20.5z"/>
	<path class="st10" d="M281.9-17.9l0.3-0.3c-0.3-0.4-0.5-0.9-0.5-1.5c0-1.3,1.1-2.4,2.4-2.4c0.5,0,1.1,0.2,1.5,0.5l0.3-0.3
		c0.1-0.1,0.2-0.1,0.3,0l0.1,0.1c0.1,0.1,0.1,0.2,0,0.3l-0.3,0.3c0.3,0.4,0.5,0.9,0.5,1.5c0,1.3-1.1,2.5-2.4,2.5
		c-0.5,0-1.1-0.2-1.5-0.5l-0.3,0.3c-0.1,0.1-0.2,0.1-0.3,0l-0.1-0.1C281.8-17.7,281.8-17.8,281.9-17.9z M284.5-20.5
		c-0.1-0.1-0.3-0.1-0.4-0.1c-0.5,0-0.9,0.4-0.9,0.9c0,0.2,0,0.3,0.1,0.4L284.5-20.5z M284.1-18.7c0.5,0,0.9-0.4,0.9-1
		c0-0.1,0-0.3-0.1-0.4l-1.2,1.3C283.8-18.7,284-18.7,284.1-18.7z"/>
	<path class="st10" d="M287.4-25.2c0-0.1,0.1-0.2,0.2-0.2h1.3c0.1,0,0.2,0.1,0.2,0.2v7.7c0,0.1-0.1,0.2-0.2,0.2h-1.3
		c-0.1,0-0.2-0.1-0.2-0.2V-25.2z"/>
	<path class="st10" d="M292.5-22.1c1.2,0,2.2,0.9,2.2,2.2c0,0.1,0,0.2,0,0.3c0,0.1-0.1,0.2-0.2,0.2h-2.8c0,0.3,0.3,0.8,0.9,0.8
		c0.3,0,0.6-0.1,0.8-0.3c0.1-0.1,0.2-0.1,0.3,0l0.6,0.7c0.1,0.1,0.1,0.2,0,0.3c-0.4,0.4-1,0.7-1.7,0.7c-1.4,0-2.4-1.1-2.4-2.4
		C290.1-21,291.1-22.1,292.5-22.1z M293-20.3c0-0.3-0.3-0.5-0.6-0.5c-0.3,0-0.6,0.2-0.6,0.5H293z"/>
	<path class="st10" d="M295.5-21.8c0-0.1,0.1-0.2,0.2-0.2h0.5c0.1,0,0.2,0.1,0.2,0.1l0.2,0.5c0.3-0.3,0.8-0.7,1.6-0.7
		c1.4,0,2.2,1.1,2.2,2.4v2.1c0,0.1-0.1,0.2-0.2,0.2H299c-0.1,0-0.2-0.1-0.2-0.2v-2.2c0-0.5-0.3-0.9-0.8-0.9s-0.9,0.3-0.9,0.8v2.2
		c0,0.1,0,0.2-0.2,0.2h-1.2c-0.1,0-0.2-0.1-0.2-0.2L295.5-21.8L295.5-21.8z"/>
</g>
<g>
	<path class="st9" d="M249.1-44.9L249.1-44.9l-0.2-0.3c-0.5-0.5-0.8-1-0.8-1.7c0-0.9,0.8-1.9,2.2-1.9c1.3,0,2.3,0.9,2.3,1.9
		c0,1.3-1.3,2-1.3,2l1,1.1c0.2-0.2,0.3-0.6,0.4-0.9c0.1-0.2,0.1-0.4,0.5-0.3l0.8,0.3c0.3,0.1,0.2,0.4,0.2,0.5
		c-0.3,0.8-0.7,1.4-0.7,1.4l1,0.9c0.2,0.1,0.3,0.2,0,0.5l-0.6,0.7c-0.1,0.1-0.3,0.2-0.5,0l-0.8-0.8c0,0-0.8,0.9-2.5,0.9
		c-1.5,0-2.5-1-2.5-2.2C247.5-44.2,249.1-44.9,249.1-44.9z M250.2-41.8c0.9,0,1.2-0.6,1.2-0.6l-1.5-1.6c0,0-0.8,0.3-0.8,1.2
		C249.1-42.2,249.6-41.8,250.2-41.8z M251.1-46.6c0-0.4-0.4-0.7-0.9-0.7c-0.4,0-0.7,0.3-0.7,0.6s0.2,0.6,0.5,0.9l0.3,0.3
		C250.4-45.7,251.1-46,251.1-46.6z"/>
</g>
<g>
	<path class="st9" d="M233-29.9l1.1-1.9c0.2-0.3,0.6-0.3,0.8-0.1c0.1,0,1.8,1.3,3.3,1.3c0.9,0,1.6-0.6,1.6-1.4c0-1-0.8-1.7-2.4-2.3
		c-2-0.8-4.5-2.3-4.5-5.1c0-2.3,1.8-4.6,5.3-4.6c2.4,0,4.3,1.2,5,1.7c0.3,0.2,0.2,0.6,0.1,0.7l-1.2,1.8c-0.2,0.3-0.6,0.5-0.8,0.3
		c-0.2-0.1-1.9-1.4-3.3-1.4c-0.8,0-1.5,0.6-1.5,1.2c0,0.9,0.7,1.5,2.5,2.2s4.7,2.1,4.7,5.3c0,2.4-2.1,4.8-5.5,4.8
		c-3,0-4.7-1.3-5.2-1.8C232.9-29.5,232.8-29.5,233-29.9z"/>
	<path class="st9" d="M249.8-37.2c2.4,0,4.4,1.8,4.4,4.4c0,0.2,0,0.5,0,0.6c0,0.2-0.2,0.4-0.4,0.4h-5.6c0.1,0.6,0.6,1.5,1.8,1.5
		c0.6,0,1.3-0.3,1.6-0.6c0.2-0.2,0.4-0.2,0.6,0l1.2,1.4c0.1,0.2,0.2,0.5,0,0.7c-0.8,0.8-2,1.3-3.4,1.3c-2.8,0-4.8-2.2-4.8-4.9
		C245-34.9,247.1-37.2,249.8-37.2z M250.9-33.6c0-0.6-0.6-1.1-1.2-1.1c-0.6,0-1.2,0.5-1.3,1.1H250.9z"/>
	<path class="st9" d="M255.9-36.5c0-0.3,0.2-0.4,0.4-0.4h1.1c0.3,0,0.3,0.1,0.4,0.3l0.4,1c0.5-0.7,1.3-1.5,2.5-1.5
		c1.3,0,2.2,0.5,1.9,1l-1.1,1.9c-0.1,0.2-0.3,0.3-0.5,0.2c-0.1,0-0.3-0.1-0.6-0.1c-0.7,0-1.2,0.5-1.2,1.3v4.8c0,0.3-0.1,0.4-0.5,0.4
		h-2.4c-0.2,0-0.4-0.2-0.4-0.4L255.9-36.5L255.9-36.5z"/>
	<path class="st9" d="M263.3-36.3c-0.2-0.3,0-0.6,0.4-0.6h2.6c0.2,0,0.3,0.1,0.4,0.3l1.4,3.1c0,0,0,0,0.1,0l1.5-3.1
		c0.1-0.3,0.3-0.3,0.6-0.3h2.3c0.3,0,0.6,0.3,0.4,0.6l-4.4,8.6c-0.1,0.1-0.3,0.2-0.4,0.2H268c-0.1,0-0.3-0.1-0.4-0.2L263.3-36.3z"/>
	<path class="st9" d="M274.2-41.6c0-1,0.8-1.9,1.8-1.9s1.9,0.8,1.9,1.9c0,1-0.8,1.8-1.9,1.8C275-39.7,274.2-40.5,274.2-41.6z
		 M274.3-36.5c0-0.3,0.2-0.4,0.4-0.4h2.5c0.2,0,0.4,0.2,0.4,0.4v8.4c0,0.2-0.2,0.4-0.4,0.4h-2.5c-0.2,0-0.4-0.2-0.4-0.4V-36.5z"/>
	<path class="st9" d="M284.5-37.2c1.5,0,2.6,0.6,3.5,1.7c0.2,0.2,0.1,0.5-0.1,0.6l-1.4,1.3c-0.1,0.1-0.4,0.1-0.5,0
		c-0.3-0.3-0.8-0.6-1.3-0.6c-1,0-1.9,0.9-1.9,1.9s0.8,1.9,1.8,1.9c0.8,0,1.2-0.3,1.6-0.7c0.2-0.2,0.4-0.2,0.5-0.1l1.4,1.2
		c0.2,0.2,0.3,0.4,0.2,0.6c-0.9,1.3-2.1,1.9-3.7,1.9c-2.6,0-5-2.1-5-4.9C279.5-35,281.9-37.2,284.5-37.2z"/>
	<path class="st9" d="M294.1-37.2c2.4,0,4.4,1.8,4.4,4.4c0,0.2,0,0.5,0,0.6c0,0.2-0.2,0.4-0.4,0.4h-5.6c0.1,0.6,0.6,1.5,1.8,1.5
		c0.6,0,1.3-0.3,1.6-0.6c0.2-0.2,0.4-0.2,0.6,0l1.2,1.4c0.1,0.2,0.2,0.5,0,0.7c-0.8,0.8-2,1.3-3.4,1.3c-2.8,0-4.8-2.2-4.8-4.9
		C289.3-34.9,291.3-37.2,294.1-37.2z M295.2-33.6c0-0.6-0.6-1.1-1.2-1.1s-1.2,0.5-1.3,1.1H295.2z"/>
</g>
<g>
	<g>
		<path class="st9" d="M256.4-60.9c0-0.2,0.2-0.4,0.4-0.4h6.9c2.8,0,5,2.2,5,5c0,2.1-1.4,3.8-3.4,4.7l3.2,5.9c0.2,0.3,0,0.7-0.4,0.7
			H265c-0.2,0-0.3-0.1-0.4-0.2l-3.1-6.1H260v5.9c0,0.2-0.2,0.4-0.4,0.4h-2.8c-0.3,0-0.4-0.2-0.4-0.4L256.4-60.9L256.4-60.9z
			 M263.4-54.5c1,0,1.8-0.9,1.8-1.9s-0.8-1.8-1.8-1.8H260v3.6h3.4V-54.5z"/>
		<path class="st9" d="M270-46.3l0.6-0.6c-0.6-0.8-1-1.9-1-3c0-2.6,2.2-4.8,4.8-4.8c1.1,0,2.1,0.4,2.9,1l0.6-0.6
			c0.2-0.2,0.4-0.2,0.6,0l0.3,0.3c0.2,0.2,0.2,0.4,0,0.6l-0.6,0.6c0.6,0.8,1,1.8,1,2.9c0,2.7-2.2,4.9-4.8,4.9c-1.1,0-2.1-0.4-2.9-1
			l-0.6,0.6c-0.2,0.2-0.4,0.1-0.6,0l-0.3-0.3C269.9-45.8,269.9-46.1,270-46.3z M275.2-51.5c-0.2-0.1-0.5-0.2-0.8-0.2
			c-1,0-1.8,0.8-1.8,1.8c0,0.3,0,0.6,0.2,0.8L275.2-51.5z M274.5-47.9c1,0,1.8-0.9,1.8-1.9c0-0.3-0.1-0.5-0.2-0.8l-2.5,2.5
			C273.9-48,274.2-47.9,274.5-47.9z"/>
		<path class="st9" d="M281.1-54c0-0.3,0.2-0.4,0.4-0.4h1.1c0.3,0,0.3,0.1,0.4,0.3l0.4,1c0.5-0.7,1.3-1.5,2.5-1.5
			c1.3,0,2.2,0.5,1.9,1l-1.1,1.9c-0.1,0.2-0.3,0.3-0.5,0.2c-0.1,0-0.3-0.1-0.6-0.1c-0.7,0-1.2,0.5-1.2,1.3v4.8
			c0,0.3-0.1,0.4-0.5,0.4h-2.4c-0.2,0-0.4-0.2-0.4-0.4L281.1-54L281.1-54z"/>
	</g>
</g>
<rect x="-550.6" y="-148.9" class="st1" width="133" height="110"/>
<path class="st11" d="M-279.5-206.6c-1.6-2.2-3.7-3.7-5.9-4.4c-0.9-0.3-1.9-0.5-2.3-1.6c-0.2-0.5-0.3-1.1-0.5-1.5
	c-0.5-0.9-1.4-0.8-2.1-1.3c-0.9-0.7-1.3-2.5-1.2-4c0.1-1.6,0.4-3.1,0.4-4.7c0-4.3-2.7-7.4-5.3-9.2c-3.5-2.4-7.5-3.5-10.6-7
	c-1-1.1-1.8-2.4-2.9-3.4c-2.7-2.6-6.1-2.6-9.1-4.4c-2.8-1.6-5.4-6.1-8.5-5.8c-1.4,0.2-5.3,2.4-6.6,3.2c-4.8,3.1-7.2,5.1-12.4,5.9
	c-0.6,0.1-1.2,0.2-1.7,0.8c-0.2,0.3-0.4,0.8-0.6,1.2c-1.2,2.5-3.8,2-5.8,1.7c-2.4-0.4-4.8-0.2-7.1,0.6c-0.5,0.2-1,0.4-1.4,0.8
	c-0.3,0.3-0.6,2.9-0.9,3.4c-3,5-6.1,7.9-9.1,12.9c-0.9,1.4-2.2,3-3.4,2c0.6,1.1,1.7,0.8,2.6,0.5c1.3-0.4,2.6-0.7,3.9-1.1
	c0.6-0.2,1.3-0.3,1.8,0.2c0.3,0.3,0.5,0.8,0.6,1.2c0.7,1.7,0.5,2.1,1.5,3.2c0.6-0.8,0.9-1,0.7-2.1c-0.1-0.8,0.1-1.6,0.4-2.3
	c0.9-2.4,2.1-4.5,3.6-6c1.3-1.3,2.8-2.4,3.4-4.4c0.2-0.5,0.3-1.1,0.6-1.4c0.4-0.4,1,0,1.3,0.7c0.2,0.6,0.3,1.4,0.2,2.1
	c-0.1,2.5-0.4,5-0.9,7.5c-0.2,0.9-0.4,1.7-0.4,2.7c0,0.9,0.3,1.9,0.9,2.2c0.1-3.1,1.9-5.4,2.6-8.4c0.3-1.2,0.3-2.4,0.6-3.6
	c0.2-1.2,0.7-2.4,1.5-2.8c0.7-0.4,1.5,0,2.2-0.4c0.8-0.4,1.4-1.5,1.9-2.6c0.8-1.6,1.7-3.1,2.9-3.9c1.4-1.1,3.1-1.1,4.7-1.2
	c0.2,0,0.5,0,0.6,0.2c0.2,0.2,0.2,0.6,0.2,0.9c0.1,3.5,0.2,4.9,0,8.5c-0.4-1.3-0.1-0.7,0.5-1.9c0.6-1.2,1.3-2.1,1.7-3.4
	c0.4-1.4,0.8-3.4,1.9-3.2c0.7,0.1,1.1,1.4,1.2,2.4c0.5,2.7,1,2.3,1.5,5c-0.3-0.9,0.4-1.1,0.9-1.8c0.5-0.7,1.1-1.2,1.5-1.9
	c1.1-2,0.4-2.9-0.4-5.2c-0.3-0.7-0.6-1.6-0.4-2.4c0.1-0.4,0.3-0.8,0.6-1.1c0.9-1.2,2-2.1,3.1-2.5c0.2-0.1,0.5-0.2,0.7-0.1
	c0.2,0.1,0.4,0.4,0.6,0.6c1.4,1.9,3.4,2.5,4.7,4.6c0.6,1,1,2.4,1.4,3.7c1.5,4.9,1.9,3.6,3.3,8.5c1.1-4.4-0.1-2.8,0.2-7.5
	c0-0.3,0.1-0.7,0.2-1c0.2-0.4,0.6-0.6,0.9-0.6c1.2-0.3,2.4,0.3,3.6,0.9c1.6,0.9,3.3,2.1,4.5,3.9c1.3,1.8,2.1,4.2,2.7,6.7
	c0.9,3.8,1.1,7.9,1.6,11.8c0.1,0.8,0.4,1.9,1,1.8c0-3.9-0.5-7.9-1.5-11.5c-0.6-2.2-0.6-4.6-1-6.8c1-0.6,2.1,0.6,3.2,1
	c0.5,0.2,1,0.2,1.6,0.3c1.9,0.5,3.6,2.7,4.2,5.5c0.2,0.9,0.2,1.8,0.3,2.7c0.2,2.3,0.3,4.6,0.4,6.8c0.1,1.9,0,3.8,0.4,5.6
	c-0.5-2.3,1.6-4.7,0.8-6.8c-0.1-0.3-0.3-0.6-0.4-0.9s0-0.8,0.2-0.9c1,1.8,1.8,3.8,2.3,5.9c0.6,2.3,1.8,4.8,3.5,5
	c0.6,0.1,1.2,0,1.8,0.3c0.2,0.1,0.4,0.3,0.6,0.4c0.2,0.1,0.5,0.2,0.7,0.2c0.8,0.1,1.6,0,2.4,0.1
	C-281.4-207.6-280.1-207.4-279.5-206.6z"/>
<g>
	<path class="st10" d="M-352.7-193.1c0-0.1,0.1-0.2,0.2-0.2h2.7c1.4,0,2.5,0.9,2.5,2.2c0,0.9-0.8,1.5-1.3,1.8
		c0.6,0.3,1.6,0.8,1.6,1.9c0,1.3-1.1,2.2-2.5,2.2h-3c-0.1,0-0.2-0.1-0.2-0.2V-193.1z M-350-190.1c0.4,0,0.8-0.4,0.8-0.8
		c0-0.5-0.4-0.8-0.8-0.8h-0.9v1.6C-350.9-190.1-350-190.1-350-190.1z M-349.9-186.9c0.5,0,0.8-0.4,0.8-0.8c0-0.5-0.5-0.8-0.9-0.8
		h-0.9v1.6H-349.9z"/>
	<path class="st10" d="M-344.1-190c1.2,0,2.2,0.9,2.2,2.2c0,0.1,0,0.2,0,0.3c0,0.1-0.1,0.2-0.2,0.2h-2.8c0,0.3,0.3,0.8,0.9,0.8
		c0.3,0,0.6-0.1,0.8-0.3c0.1-0.1,0.2-0.1,0.3,0l0.6,0.7c0.1,0.1,0.1,0.2,0,0.3c-0.4,0.4-1,0.7-1.7,0.7c-1.4,0-2.4-1.1-2.4-2.4
		C-346.5-188.9-345.5-190-344.1-190z M-343.5-188.2c0-0.3-0.3-0.5-0.6-0.5c-0.3,0-0.6,0.2-0.6,0.5H-343.5z"/>
	<path class="st10" d="M-341.1-192.2c0-0.5,0.4-0.9,0.9-0.9s0.9,0.4,0.9,0.9s-0.4,0.9-0.9,0.9S-341.1-191.7-341.1-192.2z
		 M-341-189.7c0-0.1,0.1-0.2,0.2-0.2h1.3c0.1,0,0.2,0.1,0.2,0.2v4.2c0,0.1-0.1,0.2-0.2,0.2h-1.3c-0.1,0-0.2-0.1-0.2-0.2V-189.7z"/>
	<path class="st10" d="M-337.9-188.4h-0.3c-0.1,0-0.2-0.1-0.2-0.2v-1c0-0.1,0.1-0.2,0.2-0.2h0.3v-1.3c0-0.1,0.1-0.2,0.2-0.2h1.2
		c0.1,0,0.2,0.1,0.2,0.2v1.2h0.9c0.1,0,0.2,0.1,0.2,0.2v1c0,0.1-0.1,0.2-0.2,0.2h-0.9v1.4c0,0.3,0.2,0.3,0.3,0.3
		c0.2,0,0.3-0.1,0.5-0.1c0.1,0,0.2,0,0.3,0.2l0.3,1c0,0.1,0,0.2-0.2,0.3c0,0-0.8,0.3-1.4,0.3c-0.9,0-1.4-0.6-1.4-1.6
		C-337.9-186.7-337.9-188.4-337.9-188.4z"/>
	<path class="st10" d="M-332-190c1.3,0,2.4,1.1,2.4,2.4s-1.1,2.4-2.4,2.4c-1.3,0-2.5-1-2.5-2.4C-334.5-188.9-333.4-190-332-190z
		 M-332-186.6c0.5,0,0.9-0.4,0.9-1c0-0.5-0.4-0.9-0.9-0.9s-0.9,0.4-0.9,0.9C-333-187-332.6-186.6-332-186.6z"/>
	<path class="st10" d="M-329-185.8l0.4-0.8c0-0.1,0.2-0.1,0.2-0.1s0.5,0.3,1,0.3c0.1,0,0.2-0.1,0.2-0.2c0-0.1-0.1-0.3-0.7-0.5
		c-0.9-0.3-1.3-0.8-1.3-1.6c0-0.8,0.6-1.4,1.8-1.4c0.7,0,1.3,0.2,1.5,0.4c0.1,0.1,0.2,0.2,0.1,0.3l-0.4,0.8c0,0.1-0.2,0.1-0.2,0.1
		s-0.5-0.3-1-0.3c-0.2,0-0.3,0-0.3,0.2c0,0.1,0.1,0.2,0.5,0.4c0.9,0.3,1.6,0.7,1.6,1.6c0,0.8-0.6,1.5-2,1.5c-0.8,0-1.3-0.2-1.6-0.4
		C-329-185.6-329-185.6-329-185.8z"/>
	<path class="st10" d="M-324.3-188.4h-0.3c-0.1,0-0.2-0.1-0.2-0.2v-1c0-0.1,0.1-0.2,0.2-0.2h0.3v-1.3c0-0.1,0.1-0.2,0.2-0.2h1.2
		c0.1,0,0.2,0.1,0.2,0.2v1.2h0.9c0.1,0,0.2,0.1,0.2,0.2v1c0,0.1-0.1,0.2-0.2,0.2h-0.9v1.4c0,0.3,0.2,0.3,0.3,0.3
		c0.2,0,0.3-0.1,0.5-0.1c0.1,0,0.2,0,0.3,0.2l0.3,1c0,0.1,0,0.2-0.2,0.3c0,0-0.8,0.3-1.4,0.3c-0.9,0-1.4-0.6-1.4-1.6
		C-324.3-186.7-324.3-188.4-324.3-188.4z"/>
	<path class="st10" d="M-320.6-185.8l0.3-0.3c-0.3-0.4-0.5-0.9-0.5-1.5c0-1.3,1.1-2.4,2.4-2.4c0.5,0,1.1,0.2,1.5,0.5l0.3-0.3
		c0.1-0.1,0.2-0.1,0.3,0l0.1,0.1c0.1,0.1,0.1,0.2,0,0.3l-0.3,0.4c0.3,0.4,0.5,0.9,0.5,1.5c0,1.3-1.1,2.5-2.4,2.5
		c-0.5,0-1.1-0.2-1.5-0.5l-0.3,0.3c-0.1,0.1-0.2,0.1-0.3,0l-0.1-0.1C-320.7-185.6-320.7-185.7-320.6-185.8z M-318-188.4
		c-0.1-0.1-0.3-0.1-0.4-0.1c-0.5,0-0.9,0.4-0.9,0.9c0,0.2,0,0.3,0.1,0.4L-318-188.4z M-318.4-186.6c0.5,0,0.9-0.4,0.9-1
		c0-0.1,0-0.3-0.1-0.4l-1.2,1.3C-318.7-186.6-318.5-186.6-318.4-186.6z"/>
	<path class="st10" d="M-315.1-193.1c0-0.1,0.1-0.2,0.2-0.2h1.3c0.1,0,0.2,0.1,0.2,0.2v7.7c0,0.1-0.1,0.2-0.2,0.2h-1.3
		c-0.1,0-0.2-0.1-0.2-0.2V-193.1z"/>
	<path class="st10" d="M-310-190c1.2,0,2.2,0.9,2.2,2.2c0,0.1,0,0.2,0,0.3c0,0.1-0.1,0.2-0.2,0.2h-2.8c0,0.3,0.3,0.8,0.9,0.8
		c0.3,0,0.6-0.1,0.8-0.3c0.1-0.1,0.2-0.1,0.3,0l0.6,0.7c0.1,0.1,0.1,0.2,0,0.3c-0.4,0.4-1,0.7-1.7,0.7c-1.4,0-2.4-1.1-2.4-2.4
		C-312.4-188.9-311.4-190-310-190z M-309.5-188.2c0-0.3-0.3-0.5-0.6-0.5s-0.6,0.2-0.6,0.5H-309.5z"/>
	<path class="st10" d="M-307-189.7c0-0.1,0.1-0.2,0.2-0.2h0.5c0.1,0,0.2,0.1,0.2,0.1l0.2,0.5c0.3-0.3,0.8-0.7,1.6-0.7
		c1.4,0,2.2,1.1,2.2,2.4v2.1c0,0.1-0.1,0.2-0.2,0.2h-1.2c-0.1,0-0.2-0.1-0.2-0.2v-2.2c0-0.5-0.3-0.9-0.8-0.9s-0.9,0.3-0.9,0.8v2.2
		c0,0.1,0,0.2-0.2,0.2h-1.2c-0.1,0-0.2-0.1-0.2-0.2C-307-185.6-307-189.7-307-189.7z"/>
</g>
<g>
	<path class="st11" d="M-345.4-212.8L-345.4-212.8l-0.2-0.3c-0.5-0.5-0.8-1-0.8-1.7c0-0.9,0.8-1.9,2.2-1.9c1.3,0,2.3,0.9,2.3,1.9
		c0,1.3-1.3,2-1.3,2l1,1.1c0.2-0.2,0.3-0.6,0.4-0.9c0.1-0.2,0.1-0.4,0.5-0.3l0.8,0.3c0.3,0.1,0.2,0.4,0.2,0.5
		c-0.3,0.8-0.7,1.4-0.7,1.4l1,0.9c0.2,0.1,0.3,0.2,0,0.5l-0.6,0.7c-0.1,0.1-0.3,0.2-0.5,0l-0.8-0.8c0,0-0.8,0.9-2.5,0.9
		c-1.5,0-2.5-1-2.5-2.2C-347-212.1-345.4-212.8-345.4-212.8z M-344.3-209.7c0.9,0,1.2-0.6,1.2-0.6l-1.5-1.6c0,0-0.8,0.3-0.8,1.2
		C-345.4-210.1-344.9-209.7-344.3-209.7z M-343.4-214.5c0-0.4-0.4-0.7-0.9-0.7c-0.4,0-0.7,0.3-0.7,0.6s0.2,0.6,0.5,0.9l0.3,0.3
		C-344.1-213.6-343.4-213.9-343.4-214.5z"/>
</g>
<g>
	<path class="st11" d="M-361.5-197.8l1.1-1.9c0.2-0.3,0.6-0.3,0.8-0.1c0.1,0,1.8,1.3,3.3,1.3c0.9,0,1.6-0.6,1.6-1.4
		c0-1-0.8-1.7-2.4-2.3c-2-0.8-4.5-2.3-4.5-5.1c0-2.3,1.8-4.6,5.4-4.6c2.4,0,4.3,1.2,5,1.7c0.3,0.2,0.2,0.6,0.1,0.7l-1.2,1.8
		c-0.2,0.3-0.6,0.5-0.8,0.3c-0.2-0.1-1.9-1.4-3.3-1.4c-0.8,0-1.5,0.6-1.5,1.2c0,0.9,0.7,1.5,2.5,2.2c1.8,0.7,4.7,2.1,4.7,5.3
		c0,2.4-2.1,4.8-5.5,4.8c-3,0-4.7-1.3-5.2-1.8C-361.6-197.4-361.7-197.4-361.5-197.8z"/>
	<path class="st11" d="M-344.7-205.1c2.4,0,4.4,1.8,4.4,4.4c0,0.2,0,0.5,0,0.6c0,0.2-0.2,0.4-0.4,0.4h-5.6c0.1,0.6,0.6,1.5,1.8,1.5
		c0.6,0,1.3-0.3,1.6-0.6c0.2-0.2,0.4-0.2,0.6,0l1.2,1.4c0.1,0.2,0.2,0.5,0,0.7c-0.8,0.8-2,1.3-3.4,1.3c-2.8,0-4.8-2.2-4.8-4.9
		C-349.5-202.8-347.4-205.1-344.7-205.1z M-343.6-201.5c0-0.6-0.6-1.1-1.2-1.1c-0.6,0-1.2,0.5-1.3,1.1H-343.6z"/>
	<path class="st11" d="M-338.6-204.4c0-0.3,0.2-0.4,0.4-0.4h1.1c0.3,0,0.3,0.1,0.4,0.3l0.4,1c0.5-0.7,1.3-1.5,2.5-1.5
		c1.3,0,2.2,0.5,1.9,1l-1.1,1.9c-0.1,0.2-0.3,0.3-0.5,0.2c-0.1,0-0.3-0.1-0.6-0.1c-0.7,0-1.2,0.5-1.2,1.3v4.8c0,0.3-0.1,0.4-0.5,0.4
		h-2.4c-0.2,0-0.4-0.2-0.4-0.4C-338.6-195.9-338.6-204.4-338.6-204.4z"/>
	<path class="st11" d="M-331.2-204.2c-0.2-0.3,0-0.6,0.4-0.6h2.6c0.2,0,0.3,0.1,0.4,0.3l1.4,3.2c0,0,0,0,0.1,0l1.5-3.2
		c0.1-0.3,0.3-0.3,0.6-0.3h2.3c0.3,0,0.6,0.3,0.4,0.6l-4.4,8.6c-0.1,0.1-0.3,0.2-0.4,0.2h-0.2c-0.1,0-0.3-0.1-0.4-0.2L-331.2-204.2z
		"/>
	<path class="st11" d="M-320.3-209.5c0-1,0.8-1.9,1.8-1.9s1.9,0.8,1.9,1.9s-0.9,1.9-1.9,1.9S-320.3-208.4-320.3-209.5z
		 M-320.2-204.4c0-0.3,0.2-0.4,0.4-0.4h2.5c0.2,0,0.4,0.2,0.4,0.4v8.4c0,0.2-0.2,0.4-0.4,0.4h-2.5c-0.2,0-0.4-0.2-0.4-0.4V-204.4z"
		/>
	<path class="st11" d="M-310-205.1c1.5,0,2.6,0.6,3.5,1.7c0.2,0.2,0.1,0.5-0.1,0.6l-1.4,1.3c-0.1,0.1-0.4,0.1-0.5,0
		c-0.3-0.3-0.8-0.6-1.3-0.6c-1,0-1.9,0.9-1.9,1.9s0.8,1.9,1.8,1.9c0.8,0,1.2-0.3,1.6-0.7c0.2-0.2,0.4-0.2,0.5-0.1l1.4,1.2
		c0.2,0.2,0.3,0.4,0.2,0.6c-0.9,1.3-2.1,1.9-3.7,1.9c-2.6,0-5-2.1-5-4.9C-315-202.9-312.6-205.1-310-205.1z"/>
	<path class="st11" d="M-300.4-205.1c2.4,0,4.4,1.8,4.4,4.4c0,0.2,0,0.5,0,0.6c0,0.2-0.2,0.4-0.4,0.4h-5.6c0.1,0.6,0.6,1.5,1.8,1.5
		c0.6,0,1.3-0.3,1.6-0.6c0.2-0.2,0.4-0.2,0.6,0l1.2,1.4c0.1,0.2,0.2,0.5,0,0.7c-0.8,0.8-2,1.3-3.4,1.3c-2.8,0-4.8-2.2-4.8-4.9
		C-305.2-202.8-303.2-205.1-300.4-205.1z M-299.3-201.5c0-0.6-0.6-1.1-1.2-1.1s-1.2,0.5-1.3,1.1H-299.3z"/>
</g>
<g>
	<g>
		<path class="st11" d="M-338.1-228.8c0-0.2,0.2-0.4,0.4-0.4h6.9c2.8,0,5,2.2,5,5c0,2.1-1.4,3.8-3.4,4.7l3.2,5.9
			c0.2,0.3,0,0.7-0.4,0.7h-3.1c-0.2,0-0.3-0.1-0.4-0.2l-3.1-6.1h-1.5v5.9c0,0.2-0.2,0.4-0.4,0.4h-2.8c-0.3,0-0.4-0.2-0.4-0.4
			C-338.1-213.3-338.1-228.8-338.1-228.8z M-331.1-222.4c0.9,0,1.8-0.9,1.8-1.9s-0.8-1.8-1.8-1.8h-3.4v3.6L-331.1-222.4
			L-331.1-222.4z"/>
		<path class="st11" d="M-324.5-214.2l0.6-0.6c-0.6-0.8-1-1.9-1-3c0-2.6,2.2-4.8,4.8-4.8c1.1,0,2.1,0.4,2.9,1l0.6-0.6
			c0.2-0.2,0.4-0.2,0.6,0l0.3,0.3c0.2,0.2,0.2,0.4,0,0.6l-0.6,0.6c0.6,0.8,1,1.8,1,2.9c0,2.7-2.2,4.9-4.8,4.9c-1.1,0-2.1-0.4-2.9-1
			l-0.5,0.7c-0.2,0.2-0.4,0.1-0.6,0l-0.3-0.3C-324.6-213.7-324.6-214-324.5-214.2z M-319.3-219.4c-0.2-0.1-0.5-0.2-0.8-0.2
			c-1,0-1.8,0.8-1.8,1.8c0,0.3,0,0.6,0.2,0.8L-319.3-219.4z M-320-215.8c1,0,1.8-0.9,1.8-1.9c0-0.3-0.1-0.5-0.2-0.8l-2.5,2.5
			C-320.6-215.9-320.3-215.8-320-215.8z"/>
		<path class="st11" d="M-313.4-221.9c0-0.3,0.2-0.4,0.4-0.4h1.1c0.3,0,0.3,0.1,0.4,0.3l0.4,1c0.5-0.7,1.3-1.5,2.5-1.5
			c1.3,0,2.2,0.5,1.9,1l-1.1,1.9c-0.1,0.2-0.3,0.3-0.5,0.2c-0.1,0-0.3-0.1-0.6-0.1c-0.7,0-1.2,0.5-1.2,1.3v4.8
			c0,0.3-0.1,0.4-0.5,0.4h-2.4c-0.2,0-0.4-0.2-0.4-0.4C-313.4-213.4-313.4-221.9-313.4-221.9z"/>
	</g>
</g>
<circle class="st12" cx="-47.5" cy="-91.5" r="46.5"/>
<polyline class="st13" points="-44,-109.3 -44,-74 -57,-62 -57,-123 -67,-133 -26,-92 -67,-51 "/>
<circle class="st14" cx="170" cy="27" r="25"/>
<polyline class="st14" points="171.4,17.9 171.4,36.9 164.4,43.4 164.4,10.6 159,5.2 181.1,27.2 159,49.3 "/>
<g>
	
		<ellipse transform="matrix(0.4767 -0.8791 0.8791 0.4767 99.2009 243.4374)" class="st15" cx="254.1" cy="38.4" rx="10.4" ry="23.4"/>
	<polygon class="st15" points="262.9,39.4 251.5,33.2 216.6,89 218.5,88.8 218.2,90.4 220,89.9 220.5,92.4 	"/>
</g>
<path class="st11" d="M99,56.4c-1.7-2.2-3.7-3.8-5.9-4.4c-0.9-0.3-1.9-0.5-2.4-1.7c-0.2-0.5-0.3-1.1-0.5-1.6
	c-0.5-0.9-1.4-0.8-2.1-1.3c-1-0.7-1.3-2.5-1.2-4.1c0.1-1.6,0.4-3.1,0.4-4.7c0-4.3-2.7-7.5-5.3-9.3c-3.6-2.4-7.6-3.5-10.7-7
	c-1-1.1-1.9-2.4-2.9-3.4c-2.7-2.6-6.2-2.7-9.2-4.4c-2.9-1.7-5.6-6.3-8.7-6c-1.4,0.2-5.4,2.4-6.7,3.3c-4.8,3.1-7.3,5.1-12.6,5.9
	c-0.6,0.1-1.2,0.2-1.7,0.8c-0.2,0.3-0.4,0.8-0.6,1.2c-1.2,2.6-3.8,2.1-5.9,1.7C20.5,21,18,21.2,15.7,22c-0.5,0.2-1,0.4-1.4,0.8
	c-0.4,0.3-0.6,2.9-0.9,3.4c-3.1,5.1-6.2,8-9.3,13c-0.9,1.5-2.3,3.1-3.4,2.1c0.6,1.1,1.7,0.8,2.7,0.6c1.3-0.4,2.7-0.7,4-1.1
	c0.6-0.2,1.3-0.3,1.8,0.2c0.3,0.3,0.5,0.8,0.6,1.3c0.7,1.7,0.5,2.1,1.6,3.3c0.6-0.8,0.9-1,0.7-2.2c-0.1-0.8,0.1-1.6,0.4-2.4
	c0.9-2.4,2.1-4.5,3.7-6.1c1.3-1.3,2.8-2.4,3.4-4.5c0.2-0.5,0.3-1.1,0.6-1.4c0.4-0.4,1,0,1.3,0.7c0.3,0.6,0.3,1.4,0.2,2.2
	c-0.1,2.6-0.4,5.1-0.9,7.6c-0.2,0.9-0.4,1.8-0.4,2.7c0,0.9,0.3,1.9,0.9,2.2c0.1-3.1,2-5.5,2.6-8.5c0.3-1.2,0.3-2.5,0.6-3.7
	s0.8-2.4,1.6-2.8c0.7-0.4,1.5,0,2.2-0.4c0.8-0.4,1.4-1.6,1.9-2.6c0.8-1.6,1.7-3.1,2.9-4c1.5-1.1,3.1-1.2,4.8-1.2
	c0.2,0,0.5,0,0.6,0.2c0.2,0.2,0.2,0.6,0.2,0.9c0.1,3.6,0.2,5,0,8.6c-0.4-1.3-0.1-0.7,0.5-1.9s1.3-2.2,1.7-3.4
	c0.5-1.4,0.9-3.4,1.9-3.2c0.7,0.1,1.1,1.4,1.3,2.4c0.5,2.8,1,2.3,1.5,5.1c-0.3-0.9,0.4-1.2,0.9-1.8c0.5-0.7,1.1-1.2,1.6-2
	c1.1-2,0.4-3-0.4-5.2c-0.3-0.7-0.6-1.6-0.4-2.4c0.1-0.4,0.3-0.8,0.6-1.1c0.9-1.2,2-2.1,3.2-2.6c0.2-0.1,0.5-0.2,0.7-0.1
	c0.2,0.1,0.4,0.4,0.6,0.6c1.4,1.9,3.5,2.6,4.8,4.6c0.7,1.1,1.1,2.4,1.5,3.7c1.5,5,1.9,3.6,3.4,8.6c1.1-4.4-0.1-2.8,0.2-7.6
	c0-0.4,0.1-0.7,0.2-1c0.2-0.4,0.6-0.6,0.9-0.6c1.2-0.3,2.5,0.3,3.6,0.9c1.7,0.9,3.3,2.1,4.6,3.9c1.3,1.8,2.1,4.2,2.7,6.8
	c0.9,3.9,1.1,8,1.6,12c0.1,0.9,0.4,1.9,1,1.8c0-4-0.5-8-1.5-11.7c-0.6-2.2-0.6-4.7-1-6.9c1-0.6,2.1,0.6,3.2,1
	c0.5,0.2,1.1,0.2,1.6,0.3c2,0.5,3.7,2.7,4.2,5.6c0.2,0.9,0.2,1.8,0.3,2.7c0.2,2.3,0.3,4.6,0.4,6.9c0.1,1.9,0,3.8,0.4,5.7
	c-0.5-2.3,1.6-4.8,0.8-6.9c-0.1-0.3-0.3-0.6-0.4-0.9c-0.1-0.3,0-0.8,0.2-0.9c1,1.8,1.8,3.8,2.4,6c0.6,2.3,1.8,4.8,3.5,5
	c0.6,0.1,1.2,0,1.8,0.3c0.2,0.1,0.4,0.3,0.6,0.4c0.2,0.1,0.5,0.2,0.7,0.2c0.8,0.1,1.6,0,2.4,0.1C97,55.4,98.3,55.6,99,56.4z"/>
<g>
	<path class="st10" d="M24.5,61.6c0-0.1,0.1-0.2,0.2-0.2h2.7c1.4,0,2.5,1,2.5,2.2c0,0.9-0.8,1.6-1.4,1.9c0.6,0.3,1.6,0.8,1.6,1.9
		c0,1.3-1.2,2.3-2.6,2.3h-2.9c-0.1,0-0.2-0.1-0.2-0.2V61.6z M27.2,64.7c0.4,0,0.8-0.4,0.8-0.8c0-0.5-0.4-0.8-0.8-0.8h-0.9v1.6H27.2z
		 M27.4,67.9c0.5,0,0.8-0.4,0.8-0.9c0-0.5-0.5-0.8-1-0.8h-1v1.7H27.4z"/>
	<path class="st10" d="M33.2,64.8c1.2,0,2.2,0.9,2.2,2.2c0,0.1,0,0.2,0,0.3c0,0.1-0.1,0.2-0.2,0.2h-2.8c0,0.3,0.3,0.8,0.9,0.8
		c0.3,0,0.6-0.1,0.8-0.3c0.1-0.1,0.2-0.1,0.3,0l0.6,0.7c0.1,0.1,0.1,0.2,0,0.3c-0.4,0.4-1,0.7-1.7,0.7c-1.4,0-2.5-1.1-2.5-2.5
		C30.8,65.9,31.8,64.8,33.2,64.8z M33.8,66.6c0-0.3-0.3-0.6-0.6-0.6c-0.3,0-0.6,0.2-0.6,0.6H33.8z"/>
	<path class="st10" d="M36.2,62.6c0-0.5,0.4-0.9,0.9-0.9s0.9,0.4,0.9,0.9c0,0.5-0.4,0.9-0.9,0.9S36.2,63.1,36.2,62.6z M36.3,65.1
		c0-0.1,0.1-0.2,0.2-0.2h1.3c0.1,0,0.2,0.1,0.2,0.2v4.2c0,0.1-0.1,0.2-0.2,0.2h-1.3c-0.1,0-0.2-0.1-0.2-0.2V65.1z"/>
	<path class="st10" d="M39.5,66.4h-0.3c-0.1,0-0.2-0.1-0.2-0.2v-1c0-0.1,0.1-0.2,0.2-0.2h0.3v-1.3c0-0.1,0.1-0.2,0.2-0.2H41
		c0.1,0,0.2,0.1,0.2,0.2v1.3H42c0.1,0,0.2,0.1,0.2,0.2v1c0,0.1-0.1,0.2-0.2,0.2h-0.9v1.5c0,0.3,0.2,0.3,0.3,0.3
		c0.2,0,0.3-0.1,0.5-0.1c0.1,0,0.2,0,0.3,0.2l0.3,1c0,0.1,0,0.2-0.2,0.3c0,0-0.8,0.3-1.4,0.3c-0.9,0-1.4-0.6-1.4-1.6V66.4z"/>
	<path class="st10" d="M45.4,64.8c1.3,0,2.4,1.1,2.4,2.5c0,1.3-1.1,2.5-2.4,2.5c-1.3,0-2.4-1.1-2.4-2.5C43,65.9,44.1,64.8,45.4,64.8
		z M45.4,68.2c0.5,0,0.9-0.4,0.9-1c0-0.5-0.4-0.9-0.9-0.9c-0.5,0-0.9,0.4-0.9,0.9C44.5,67.8,44.9,68.2,45.4,68.2z"/>
	<path class="st10" d="M48.5,69.1l0.4-0.8c0-0.1,0.2-0.1,0.2-0.1c0,0,0.6,0.3,1.1,0.3c0.1,0,0.2-0.1,0.2-0.2c0-0.1-0.1-0.3-0.7-0.5
		c-0.9-0.3-1.3-0.8-1.3-1.6c0-0.8,0.6-1.4,1.8-1.4c0.7,0,1.3,0.2,1.6,0.4c0.1,0.1,0.2,0.2,0.1,0.3l-0.4,0.8c0,0.1-0.2,0.1-0.2,0.1
		c0,0-0.5-0.3-1-0.3c-0.2,0-0.3,0-0.3,0.2c0,0.1,0.1,0.2,0.5,0.4c1,0.3,1.6,0.7,1.6,1.6c0,0.8-0.7,1.5-2,1.5c-0.8,0-1.4-0.2-1.6-0.4
		C48.5,69.3,48.5,69.2,48.5,69.1z"/>
	<path class="st10" d="M53.3,66.4H53c-0.1,0-0.2-0.1-0.2-0.2v-1c0-0.1,0.1-0.2,0.2-0.2h0.3v-1.3c0-0.1,0.1-0.2,0.2-0.2h1.3
		c0.1,0,0.2,0.1,0.2,0.2v1.3h0.9c0.1,0,0.2,0.1,0.2,0.2v1c0,0.1-0.1,0.2-0.2,0.2H55v1.5c0,0.3,0.2,0.3,0.3,0.3
		c0.2,0,0.3-0.1,0.5-0.1c0.1,0,0.2,0,0.3,0.2l0.3,1c0,0.1,0,0.2-0.2,0.3c0,0-0.8,0.3-1.4,0.3c-0.9,0-1.4-0.6-1.4-1.6V66.4z"/>
	<path class="st10" d="M57,69l0.3-0.3c-0.3-0.4-0.5-1-0.5-1.5c0-1.3,1.1-2.4,2.4-2.4c0.6,0,1.1,0.2,1.5,0.5l0.3-0.3
		c0.1-0.1,0.2-0.1,0.3,0l0.1,0.1c0.1,0.1,0.1,0.2,0,0.3l-0.3,0.3c0.3,0.4,0.5,0.9,0.5,1.5c0,1.3-1.1,2.5-2.4,2.5
		c-0.6,0-1.1-0.2-1.5-0.5l-0.3,0.3c-0.1,0.1-0.2,0.1-0.3,0L57,69.3C57,69.3,56.9,69.1,57,69z M59.6,66.4c-0.1-0.1-0.3-0.1-0.4-0.1
		c-0.5,0-0.9,0.4-0.9,0.9c0,0.2,0,0.3,0.1,0.4L59.6,66.4z M59.3,68.2c0.5,0,0.9-0.4,0.9-1c0-0.1,0-0.3-0.1-0.4l-1.2,1.3
		C59,68.2,59.1,68.2,59.3,68.2z"/>
	<path class="st10" d="M62.6,61.6c0-0.1,0.1-0.2,0.2-0.2h1.3c0.1,0,0.2,0.1,0.2,0.2v7.8c0,0.1-0.1,0.2-0.2,0.2h-1.3
		c-0.1,0-0.2-0.1-0.2-0.2V61.6z"/>
	<path class="st10" d="M67.7,64.8c1.2,0,2.2,0.9,2.2,2.2c0,0.1,0,0.2,0,0.3c0,0.1-0.1,0.2-0.2,0.2h-2.8c0,0.3,0.3,0.8,0.9,0.8
		c0.3,0,0.6-0.1,0.8-0.3c0.1-0.1,0.2-0.1,0.3,0l0.6,0.7c0.1,0.1,0.1,0.2,0,0.3c-0.4,0.4-1,0.7-1.7,0.7c-1.4,0-2.5-1.1-2.5-2.5
		C65.3,65.9,66.3,64.8,67.7,64.8z M68.3,66.6c0-0.3-0.3-0.6-0.6-0.6c-0.3,0-0.6,0.2-0.6,0.6H68.3z"/>
	<path class="st10" d="M70.8,65.1c0-0.1,0.1-0.2,0.2-0.2h0.6c0.1,0,0.2,0.1,0.2,0.1l0.2,0.5c0.3-0.3,0.8-0.7,1.7-0.7
		c1.5,0,2.2,1.1,2.2,2.5v2.1c0,0.1-0.1,0.2-0.2,0.2h-1.3c-0.1,0-0.2-0.1-0.2-0.2v-2.2c0-0.5-0.3-0.9-0.8-0.9c-0.5,0-0.9,0.3-0.9,0.8
		v2.3c0,0.1,0,0.2-0.2,0.2H71c-0.1,0-0.2-0.1-0.2-0.2V65.1z"/>
</g>
<g>
	<path class="st11" d="M61.6,43.1L61.6,43.1l-0.2-0.3c-0.5-0.5-0.8-1-0.8-1.7c0-0.9,0.8-1.9,2.3-1.9c1.3,0,2.3,0.9,2.3,2
		c0,1.3-1.3,2-1.3,2.1l1.1,1.1c0.2-0.2,0.3-0.6,0.4-0.9c0.1-0.2,0.1-0.4,0.5-0.3l0.9,0.3c0.3,0.1,0.2,0.4,0.2,0.5
		c-0.3,0.8-0.7,1.4-0.7,1.5l1,0.9c0.2,0.1,0.3,0.2,0,0.5l-0.7,0.7c-0.1,0.1-0.3,0.2-0.5,0l-0.8-0.8c0,0-0.8,0.9-2.6,0.9
		c-1.5,0-2.6-1-2.6-2.2C60,43.8,61.6,43.1,61.6,43.1z M62.8,46.2c0.9,0,1.3-0.6,1.3-0.6L62.5,44c0,0-0.8,0.3-0.8,1.2
		C61.7,45.8,62.2,46.2,62.8,46.2z M63.7,41.3c0-0.4-0.4-0.8-0.9-0.8c-0.4,0-0.7,0.3-0.7,0.6c0,0.4,0.2,0.6,0.5,0.9l0.3,0.3
		C63,42.3,63.7,42,63.7,41.3z"/>
</g>
<g>
	<path class="st11" d="M9.1,57.5l0.8-1.4c0.1-0.2,0.5-0.2,0.6-0.1c0.1,0,1.3,1,2.5,1c0.7,0,1.2-0.4,1.2-1c0-0.7-0.6-1.3-1.8-1.7
		C10.9,53.5,9,52.4,9,50.3c0-1.7,1.3-3.4,4-3.4c1.8,0,3.2,0.9,3.7,1.3c0.2,0.1,0.2,0.4,0.1,0.6L15.9,50c-0.1,0.2-0.4,0.3-0.6,0.2
		c-0.2-0.1-1.4-1-2.5-1c-0.6,0-1.1,0.4-1.1,0.9c0,0.6,0.5,1.1,1.9,1.7c1.3,0.5,3.5,1.6,3.5,3.9c0,1.8-1.5,3.6-4.1,3.6
		c-2.2,0-3.5-0.9-3.9-1.3C9,57.8,9,57.7,9.1,57.5z"/>
	<path class="st11" d="M21.6,52c1.8,0,3.3,1.3,3.3,3.3c0,0.1,0,0.3,0,0.5c0,0.2-0.2,0.3-0.3,0.3h-4.2c0.1,0.5,0.4,1.1,1.3,1.1
		c0.4,0,0.9-0.2,1.2-0.4c0.2-0.1,0.3-0.1,0.4,0l0.9,1c0.1,0.1,0.1,0.3,0,0.5c-0.6,0.6-1.5,1-2.6,1c-2.1,0-3.6-1.6-3.6-3.6
		C18.1,53.7,19.6,52,21.6,52z M22.5,54.7c0-0.5-0.5-0.8-0.9-0.8c-0.5,0-0.9,0.4-0.9,0.8H22.5z"/>
	<path class="st11" d="M26.2,52.5c0-0.2,0.2-0.3,0.3-0.3h0.8c0.2,0,0.3,0.1,0.3,0.2l0.3,0.8c0.3-0.5,1-1.1,1.9-1.1
		c1,0,1.6,0.3,1.4,0.7l-0.8,1.4c-0.1,0.1-0.2,0.2-0.4,0.2c-0.1,0-0.3-0.1-0.4-0.1c-0.5,0-0.9,0.4-0.9,1v3.6c0,0.2-0.1,0.3-0.4,0.3
		h-1.8c-0.2,0-0.3-0.2-0.3-0.3V52.5z"/>
	<path class="st11" d="M31.7,52.7c-0.1-0.2,0-0.5,0.3-0.5h1.9c0.1,0,0.3,0.1,0.3,0.2l1,2.4c0,0,0,0,0.1,0l1.1-2.4
		c0.1-0.2,0.2-0.2,0.5-0.2h1.7c0.3,0,0.4,0.2,0.3,0.5l-3.3,6.5c-0.1,0.1-0.2,0.2-0.3,0.2h-0.1c-0.1,0-0.2-0.1-0.3-0.2L31.7,52.7z"/>
	<path class="st11" d="M39.8,48.7c0-0.8,0.6-1.4,1.4-1.4c0.8,0,1.4,0.6,1.4,1.4c0,0.8-0.6,1.4-1.4,1.4
		C40.4,50.1,39.8,49.5,39.8,48.7z M39.9,52.5c0-0.2,0.2-0.3,0.3-0.3h1.9c0.2,0,0.3,0.1,0.3,0.3v6.3c0,0.2-0.2,0.3-0.3,0.3h-1.9
		c-0.2,0-0.3-0.2-0.3-0.3V52.5z"/>
	<path class="st11" d="M47.6,52c1.1,0,1.9,0.5,2.6,1.2c0.1,0.2,0.1,0.3-0.1,0.5l-1,1c-0.1,0.1-0.3,0.1-0.4,0c-0.2-0.3-0.6-0.5-1-0.5
		c-0.8,0-1.4,0.6-1.4,1.4c0,0.8,0.6,1.4,1.3,1.4c0.6,0,0.9-0.3,1.2-0.5c0.1-0.1,0.3-0.2,0.4-0.1l1,0.9c0.2,0.1,0.2,0.3,0.1,0.5
		c-0.6,1-1.5,1.5-2.8,1.5c-2,0-3.7-1.6-3.7-3.6C43.8,53.6,45.6,52,47.6,52z"/>
	<path class="st11" d="M54.7,52c1.8,0,3.3,1.3,3.3,3.3c0,0.1,0,0.3,0,0.5c0,0.2-0.2,0.3-0.3,0.3h-4.2c0.1,0.5,0.4,1.1,1.3,1.1
		c0.4,0,0.9-0.2,1.2-0.4c0.2-0.1,0.3-0.1,0.4,0l0.9,1c0.1,0.1,0.1,0.3,0,0.5c-0.6,0.6-1.5,1-2.6,1c-2.1,0-3.6-1.6-3.6-3.6
		C51.1,53.7,52.6,52,54.7,52z M55.5,54.7c0-0.5-0.5-0.8-0.9-0.8c-0.5,0-0.9,0.4-0.9,0.8H55.5z"/>
</g>
<g>
	<g>
		<path class="st11" d="M30.2,35.2c0-0.2,0.1-0.3,0.3-0.3h5.2c2.1,0,3.8,1.7,3.8,3.7c0,1.6-1.1,2.9-2.6,3.5l2.4,4.4
			c0.1,0.2,0,0.5-0.3,0.5h-2.3c-0.1,0-0.2-0.1-0.3-0.2l-2.3-4.6h-1.2v4.4c0,0.2-0.2,0.3-0.3,0.3h-2.1c-0.2,0-0.3-0.2-0.3-0.3V35.2z
			 M35.4,40.1c0.7,0,1.3-0.7,1.3-1.4c0-0.7-0.6-1.3-1.3-1.3h-2.6v2.7H35.4z"/>
		<path class="st11" d="M40.4,46.2l0.4-0.4c-0.5-0.6-0.7-1.4-0.7-2.2c0-2,1.6-3.6,3.6-3.6c0.8,0,1.6,0.3,2.2,0.8l0.5-0.5
			c0.1-0.1,0.3-0.1,0.5,0l0.2,0.2c0.1,0.1,0.1,0.3,0,0.5l-0.5,0.5c0.5,0.6,0.8,1.4,0.8,2.2c0,2-1.6,3.7-3.6,3.7
			c-0.8,0-1.6-0.3-2.2-0.7l-0.4,0.4c-0.1,0.1-0.3,0.1-0.5,0l-0.2-0.2C40.3,46.5,40.3,46.3,40.4,46.2z M44.3,42.3
			c-0.2-0.1-0.4-0.1-0.6-0.1c-0.8,0-1.4,0.6-1.4,1.4c0,0.2,0,0.4,0.1,0.6L44.3,42.3z M43.7,45c0.8,0,1.4-0.7,1.4-1.4
			c0-0.2-0.1-0.4-0.1-0.6l-1.8,1.9C43.3,44.9,43.5,45,43.7,45z"/>
		<path class="st11" d="M48.6,40.4c0-0.2,0.2-0.3,0.3-0.3h0.8c0.2,0,0.3,0.1,0.3,0.2l0.3,0.8c0.3-0.5,1-1.1,1.9-1.1
			c1,0,1.6,0.3,1.4,0.7l-0.8,1.4c-0.1,0.1-0.2,0.2-0.4,0.2c-0.1,0-0.3-0.1-0.4-0.1c-0.5,0-0.9,0.4-0.9,1v3.6c0,0.2-0.1,0.3-0.4,0.3
			H49c-0.2,0-0.3-0.2-0.3-0.3V40.4z"/>
	</g>
</g>
<g>
	<g>
		<path class="st11" d="M63.4,52.7c-0.1-0.2,0-0.5,0.3-0.5h1.9c0.1,0,0.3,0.1,0.3,0.2l1,2.4c0,0,0,0,0.1,0l1.1-2.4
			c0.1-0.2,0.2-0.2,0.5-0.2h1.7c0.3,0,0.4,0.2,0.3,0.5l-3.3,6.5c-0.1,0.1-0.2,0.2-0.3,0.2H67c-0.1,0-0.2-0.1-0.3-0.2L63.4,52.7z"/>
		<path class="st11" d="M70.8,52.7c-0.1-0.2,0-0.5,0.3-0.5H73c0.1,0,0.3,0.1,0.3,0.2l1,2.4c0,0,0,0,0.1,0l1.1-2.4
			c0.1-0.2,0.2-0.2,0.5-0.2h1.7c0.3,0,0.4,0.2,0.3,0.5l-3.3,6.5c-0.1,0.1-0.2,0.2-0.3,0.2h-0.1c-0.1,0-0.2-0.1-0.3-0.2L70.8,52.7z"
			/>
		<path class="st11" d="M78.7,58.4l0.6-1.2c0.1-0.1,0.2-0.2,0.4-0.1c0,0,0.8,0.5,1.6,0.5c0.2,0,0.3-0.1,0.3-0.3c0-0.2-0.1-0.4-1-0.7
			c-1.3-0.5-1.9-1.2-1.9-2.3c0-1.2,0.8-2.1,2.7-2.1c1.1,0,1.9,0.3,2.3,0.5c0.2,0.1,0.3,0.3,0.2,0.4l-0.6,1.2
			c-0.1,0.1-0.2,0.2-0.4,0.1c0,0-0.8-0.4-1.5-0.4c-0.2,0-0.4,0.1-0.4,0.2c0,0.2,0.2,0.3,0.8,0.6c1.4,0.5,2.4,1,2.4,2.4
			c0,1.2-1,2.2-2.9,2.2c-1.1,0-2-0.3-2.4-0.6C78.7,58.7,78.6,58.6,78.7,58.4z"/>
	</g>
</g>
</svg>
